<?xml version="1.0" encoding="UTF-8"?><svg xmlns="http://www.w3.org/2000/svg" viewBox="0 0 286.9 387.7"><defs><style>.d{fill:#fff;}</style></defs><g id="a"/><g id="b"><g id="c"><path class="d" d="M274.84,233.5c-.8-.84-2.19-.47-2.49,.64-1.98,7.35-11.08,34.36-40.68,47.47-.99,.44-1.03,1.81-.1,2.35,2.77,1.62,9.15,3.58,22.43,.73-13.76,19.17-32.61,29.71-49.59,35.49-20.47,6.97-41.8-8.13-42.33-29.75l-3.93-158.48,63.45-6.57c2.47-.26,4.58-1.93,5.32-4.3,1.92-6.08,1.92-12.17,0-18.25-.74-2.37-2.86-4.04-5.32-4.3l-66.01-6.84v-11.95h0c.53-.17,1.05-.34,1.58-.53,.18-.06,.36-.14,.54-.2,.34-.13,.68-.25,1.01-.39,.21-.08,.41-.17,.61-.26,.3-.13,.61-.25,.9-.39,.22-.1,.43-.2,.64-.31,.28-.13,.56-.27,.84-.41,.22-.11,.43-.23,.65-.34,.27-.14,.54-.28,.81-.43,.22-.12,.43-.24,.64-.37,.26-.15,.52-.3,.78-.46,.21-.13,.42-.27,.64-.4,.25-.16,.5-.32,.75-.48,.21-.14,.42-.28,.63-.43,.24-.17,.48-.33,.72-.5,.21-.15,.41-.3,.61-.45,.23-.18,.47-.35,.69-.53,.2-.16,.4-.32,.59-.47,.23-.18,.45-.37,.67-.56,.19-.16,.39-.33,.58-.5,.22-.19,.43-.39,.65-.58,.19-.17,.37-.35,.55-.52,.21-.2,.42-.4,.62-.61,.18-.18,.36-.36,.53-.54,.2-.21,.4-.42,.6-.63,.17-.19,.34-.37,.51-.56,.19-.22,.38-.44,.57-.66,.16-.19,.33-.38,.49-.58,.19-.23,.37-.46,.55-.69,.16-.2,.31-.39,.46-.59,.18-.24,.35-.47,.52-.71,.15-.2,.29-.4,.44-.61,.17-.25,.34-.5,.5-.75,.14-.2,.27-.41,.41-.61,.16-.26,.32-.52,.48-.78,.13-.21,.25-.41,.37-.62,.16-.27,.31-.55,.46-.83,.11-.2,.23-.4,.34-.61,.16-.3,.31-.6,.46-.91,.09-.19,.19-.37,.28-.56,.19-.39,.36-.78,.54-1.17,.05-.11,.1-.22,.15-.33,.22-.5,.42-1.01,.62-1.52,.07-.19,.14-.38,.2-.56,.12-.33,.24-.66,.36-1,.07-.22,.14-.45,.21-.67,.1-.31,.2-.61,.29-.92,.07-.24,.13-.48,.2-.72,.08-.3,.16-.6,.24-.9,.06-.25,.12-.5,.17-.75,.07-.3,.14-.59,.2-.89,.05-.26,.1-.52,.15-.78,.05-.3,.11-.59,.16-.89,.04-.27,.08-.53,.12-.8,.04-.3,.08-.59,.12-.89,.03-.27,.06-.54,.08-.82,.03-.3,.06-.6,.08-.9,.02-.27,.04-.55,.05-.83,.02-.3,.03-.6,.04-.91,0-.28,.01-.56,.02-.84,0-.17,.01-.34,.01-.51,0-.11,0-.21,0-.32,0-.47-.02-.95-.04-1.43,0-.2-.01-.4-.02-.6,0-.09,0-.17-.01-.26-.03-.52-.08-1.03-.13-1.54,0-.08-.01-.15-.02-.23-.07-.7-.17-1.39-.28-2.07-.01-.08-.03-.15-.04-.23-.1-.57-.2-1.15-.32-1.71-.06-.26-.12-.52-.18-.79-.08-.36-.17-.73-.26-1.09-.09-.35-.19-.69-.29-1.04-.07-.25-.15-.51-.22-.76-.13-.42-.27-.83-.41-1.24-.05-.15-.1-.3-.16-.44-.18-.49-.36-.98-.56-1.47l-.02-.04c-4.66-11.53-14.44-20.45-26.51-23.95-.4-.12-.8-.23-1.21-.34-.21-.05-.43-.1-.64-.15-.45-.11-.9-.21-1.35-.3-.21-.04-.41-.08-.62-.12-.47-.09-.94-.17-1.41-.24-.21-.03-.42-.06-.63-.09-.46-.06-.93-.12-1.4-.16-.23-.02-.46-.05-.69-.06-.15-.01-.31-.03-.46-.04-.24-.02-.48-.02-.72-.03-.36-.02-.73-.04-1.09-.05-.37,0-.73-.01-1.1-.01s-.73,0-1.1,.01c-.37,0-.73,.03-1.09,.05-.24,.01-.48,.01-.72,.03-.15,.01-.31,.03-.46,.04-.23,.02-.46,.04-.69,.06-.47,.05-.94,.1-1.4,.16-.21,.03-.42,.06-.63,.09-.47,.07-.94,.15-1.41,.24-.21,.04-.41,.08-.62,.12-.45,.09-.91,.2-1.35,.3-.21,.05-.43,.1-.64,.15-.41,.1-.81,.22-1.21,.34-12.07,3.49-21.85,12.42-26.51,23.95v.03c-.21,.49-.4,.98-.57,1.47-.05,.15-.1,.29-.16,.44-.14,.41-.28,.83-.41,1.25-.08,.25-.15,.5-.22,.75-.1,.35-.2,.69-.29,1.04-.09,.36-.18,.72-.26,1.08-.06,.26-.13,.53-.18,.79-.12,.57-.23,1.14-.32,1.71-.01,.08-.03,.15-.04,.23-.11,.68-.2,1.38-.28,2.07,0,.08-.01,.16-.02,.24-.05,.51-.1,1.02-.13,1.53,0,.09,0,.17-.01,.25-.01,.2-.02,.4-.02,.6-.02,.48-.03,.95-.04,1.42,0,.11,0,.21,0,.32,0,.17,0,.35,.01,.52,0,.28,0,.55,.02,.83,.01,.31,.02,.61,.04,.91,.01,.27,.03,.55,.05,.82,.02,.3,.05,.6,.08,.9,.03,.27,.05,.54,.08,.81,.04,.3,.08,.6,.12,.9,.04,.26,.07,.53,.11,.79,.05,.3,.1,.6,.16,.9,.05,.26,.09,.51,.14,.77,.06,.3,.13,.6,.2,.9,.06,.25,.11,.5,.17,.74,.08,.31,.16,.61,.24,.91,.06,.24,.12,.47,.19,.71,.09,.32,.19,.63,.29,.94,.07,.22,.13,.44,.21,.65,.12,.34,.24,.69,.37,1.03,.07,.18,.13,.36,.19,.54,.2,.51,.4,1.02,.62,1.53,.04,.1,.09,.19,.13,.28,.18,.41,.36,.82,.56,1.22,.09,.18,.18,.36,.27,.54,.15,.31,.31,.62,.47,.93,.11,.2,.22,.4,.33,.59,.16,.28,.31,.56,.47,.84,.12,.2,.25,.41,.37,.61,.16,.26,.32,.53,.49,.79,.13,.2,.27,.41,.4,.61,.17,.25,.33,.5,.51,.75,.14,.2,.29,.4,.43,.6,.17,.24,.35,.48,.53,.72,.15,.2,.3,.39,.46,.59,.18,.23,.37,.46,.55,.69,.16,.19,.32,.38,.48,.57,.19,.22,.38,.45,.58,.66,.17,.19,.34,.37,.51,.56,.2,.21,.4,.43,.6,.64,.18,.18,.35,.36,.53,.54,.21,.21,.41,.41,.62,.61,.18,.18,.37,.35,.55,.52,.21,.2,.43,.39,.65,.58,.19,.17,.38,.33,.57,.5,.22,.19,.45,.38,.67,.56,.2,.16,.39,.32,.59,.47,.23,.18,.46,.36,.69,.53,.2,.15,.41,.3,.61,.45,.24,.17,.48,.34,.72,.51,.21,.14,.41,.29,.62,.42,.25,.16,.5,.32,.75,.48,.21,.13,.42,.27,.63,.4,.26,.16,.52,.31,.78,.46,.21,.12,.42,.25,.64,.37,.27,.15,.54,.29,.81,.43,.21,.11,.43,.23,.64,.34,.28,.14,.56,.27,.85,.41,.21,.1,.42,.21,.64,.3,.3,.14,.6,.26,.91,.39,.2,.09,.41,.18,.61,.26,.33,.14,.67,.26,1.01,.39,.18,.07,.36,.14,.54,.2,.52,.19,1.05,.36,1.57,.53h0v11.96l-66.01,6.84c-2.47,.26-4.58,1.93-5.32,4.3-1.91,6.08-1.91,12.16,0,18.25,.74,2.37,2.86,4.05,5.32,4.3l63.45,6.57-3.93,158.48c-.54,21.62-21.86,36.72-42.33,29.75-16.98-5.78-35.83-16.33-49.59-35.49,13.29,2.85,19.67,.88,22.43-.73,.93-.54,.87-1.91-.11-2.34-29.6-13.11-38.71-40.12-40.68-47.47-.3-1.11-1.7-1.48-2.49-.64-7.69,8.08-22.46,53.7-.64,72.94,1.13,1,2.93,.5,3.36-.95,.86-2.94,2.69-7.22,6.36-9.19,0,0,0-.02-.03-.05,28.24,49.31,104.66,71.02,120.25,90.44,1.09,1.35,3.09,1.35,4.18,0,15.59-19.42,92.01-41.13,120.25-90.44l-.03,.05c3.66,1.97,5.5,6.25,6.36,9.18,.43,1.45,2.24,1.95,3.37,.94,21.8-19.24,7.03-64.84-.65-72.92ZM147.27,49.14c-1.27-.11-2.54-.17-3.82-.17s-2.54,.06-3.82,.17c-4.73,.42-8.32,4.45-8.32,9.2v4.2h0c-.49-.28-.98-.58-1.45-.89-.16-.1-.31-.22-.46-.32-.31-.21-.62-.43-.93-.66-.18-.14-.35-.28-.53-.42-.27-.21-.53-.43-.79-.65-.18-.16-.35-.32-.53-.48-.24-.22-.48-.44-.71-.67-.18-.17-.34-.35-.51-.53-.22-.23-.44-.47-.65-.71-.17-.19-.33-.38-.49-.57-.2-.24-.4-.49-.59-.74-.15-.2-.3-.4-.45-.61-.18-.26-.36-.52-.54-.78-.14-.21-.28-.42-.41-.64-.17-.27-.33-.55-.49-.83-.12-.22-.25-.43-.36-.66-.15-.29-.3-.58-.44-.88-.11-.22-.21-.44-.31-.66-.14-.31-.27-.64-.39-.96-.08-.21-.17-.43-.25-.64-.13-.36-.25-.73-.36-1.11-.06-.18-.12-.36-.17-.55-.16-.56-.3-1.12-.42-1.69-.02-.09-.03-.19-.05-.28-.1-.48-.18-.97-.25-1.47-.03-.21-.04-.43-.07-.64-.04-.38-.08-.76-.11-1.14-.01-.25-.02-.49-.03-.74-.01-.37-.02-.74-.02-1.11,0-.16,0-.32,.01-.48,.01-.43,.04-.86,.07-1.29,.01-.16,.02-.32,.04-.48,.06-.59,.14-1.18,.24-1.76,.03-.19,.07-.38,.11-.57,.1-.52,.22-1.03,.35-1.53,.04-.15,.08-.31,.13-.46,.15-.51,.31-1.01,.49-1.51,.06-.16,.11-.32,.17-.47,.21-.56,.44-1.1,.69-1.64,.05-.1,.1-.21,.15-.31,.27-.55,.55-1.09,.85-1.61,.01-.02,.02-.05,.04-.07,.33-.57,.68-1.11,1.05-1.65,.04-.06,.09-.12,.13-.18,.38-.54,.78-1.07,1.2-1.57h0c.43-.53,.89-1.03,1.36-1.52,.02-.02,.03-.04,.05-.05,.45-.46,.93-.9,1.42-1.33,.07-.06,.13-.12,.2-.17,.49-.41,.98-.81,1.5-1.19,.03-.02,.07-.05,.1-.07,.46-.33,.94-.65,1.43-.95,.13-.08,.26-.17,.4-.24,.48-.29,.97-.56,1.47-.81,.19-.09,.37-.18,.56-.27,.39-.19,.78-.36,1.18-.52,.26-.11,.53-.21,.8-.31,.4-.15,.8-.29,1.21-.42,.24-.08,.49-.15,.73-.22,.51-.14,1.02-.27,1.54-.38,.21-.04,.42-.08,.64-.12,.47-.09,.94-.16,1.42-.22,.15-.02,.3-.04,.46-.06,.17-.02,.35-.03,.52-.04,.27-.02,.54-.05,.81-.06,.23-.01,.47-.01,.7-.02,.22,0,.45-.02,.67-.02s.45,.01,.67,.02c.23,0,.46,0,.7,.02,.27,.01,.54,.04,.81,.06,.17,.01,.35,.03,.52,.04,.15,.02,.3,.04,.46,.06,.48,.06,.95,.14,1.42,.22,.21,.04,.43,.08,.64,.12,.52,.11,1.03,.24,1.54,.38,.25,.07,.49,.14,.73,.22,.41,.13,.81,.27,1.21,.42,.27,.1,.53,.2,.79,.31,.4,.17,.79,.34,1.18,.53,.19,.09,.38,.18,.56,.27,.5,.25,.99,.52,1.47,.81,.13,.08,.26,.16,.39,.24,.49,.3,.96,.62,1.43,.95,.03,.02,.07,.05,.1,.07,.52,.38,1.02,.78,1.5,1.19,.07,.06,.13,.11,.2,.17,.49,.43,.96,.87,1.42,1.33,.02,.02,.03,.04,.05,.05,.47,.48,.93,.99,1.36,1.51h0c.42,.52,.82,1.04,1.2,1.58,.04,.06,.09,.12,.13,.18,.37,.54,.73,1.09,1.05,1.65,.01,.02,.02,.05,.04,.07,.3,.53,.58,1.07,.85,1.61,.05,.1,.1,.21,.15,.31,.25,.54,.48,1.08,.69,1.64,.06,.16,.12,.32,.17,.47,.18,.5,.34,1,.49,1.51,.04,.15,.09,.31,.13,.46,.13,.5,.25,1.02,.35,1.53,.04,.19,.08,.38,.11,.57,.1,.58,.19,1.17,.24,1.76,.02,.16,.03,.32,.04,.48,.03,.43,.06,.86,.07,1.29,0,.16,.01,.32,.01,.48,0,.37,0,.74-.02,1.11,0,.25,0,.5-.03,.74-.02,.38-.07,.76-.11,1.14-.02,.21-.04,.43-.07,.64-.07,.49-.15,.98-.25,1.47-.02,.09-.03,.19-.05,.28-.12,.57-.26,1.14-.42,1.69-.05,.18-.12,.36-.17,.55-.11,.37-.23,.74-.36,1.11-.08,.22-.17,.43-.25,.64-.13,.32-.25,.64-.39,.96-.1,.22-.21,.44-.31,.66-.14,.3-.28,.59-.44,.88-.12,.22-.24,.44-.37,.66-.16,.28-.32,.55-.49,.83-.13,.22-.27,.43-.41,.64-.17,.26-.35,.53-.54,.78-.15,.21-.3,.41-.45,.61-.19,.25-.39,.5-.59,.74-.16,.19-.32,.39-.49,.57-.21,.24-.43,.47-.65,.71-.17,.18-.34,.36-.51,.53-.23,.23-.47,.45-.71,.67-.18,.16-.35,.33-.53,.48-.26,.22-.53,.44-.79,.65-.18,.14-.35,.28-.53,.42-.3,.23-.61,.44-.93,.66-.16,.11-.31,.22-.46,.32-.47,.31-.96,.6-1.45,.88h0v-4.19c0-4.74-3.59-8.78-8.31-9.2Z"/></g></g></svg>