<?xml version="1.0" encoding="UTF-8"?><svg id="_レイヤー_2" xmlns="http://www.w3.org/2000/svg" viewBox="0 0 407.32 171.33"><defs><style>.cls-1{fill:#fff;opacity:.3;stroke:#000;stroke-miterlimit:10;}</style></defs><g id="_レイヤー_1-2"><g><path class="cls-1" d="M406.82,145.48c-.42,1.45-1.26,2.06-2.88,1.87-2.77-.33-5.51-.05-8.29,.38-2.2,.34-4.53-.4-6.84-.46-7.94-.24-15.85-.97-23.76-1.76-.78-.08-1.54-.38-2.31-.57,.62-1.26,1.61-.52,2.47-.45,10.16,.05,20.31,.56,30.45,1.09,3.74,.2,7.44-.25,11.16-.57v.48Z"/><path class="cls-1" d="M333.48,170.83c.03-.14,.02-.28-.02-.41,1.13-.51,2.26-.9,3.4,0-.02,.14-.03,.27-.02,.41h-3.36Z"/><path class="cls-1" d="M26.69,101.4c-2.62,.2-5.23,.12-7.79-.48-3.98-.92-5.11-4.09-2.6-7.31,2.32-2.98,5.77-4.34,8.96-6.05q.04-.74-1.04-.53c-6.05-.69-11.54,.77-16.51,4.25-2.37,1.66-3.3,3.82-2.66,5.84,.2,.64,.5,1.17,1.01,1.58,4.33,3.46,8.84,6.28,14.59,7.15,9.05,1.37,17.98,.34,26.95-.31,7.84-.56,15.24-3.44,23.02-4.27,4.73-.51,9.5-.72,14.25-1,3.17-.19,6.34-.48,9.49-.72,11.41-.86,22.3,.67,32.92,5.04,9.46,3.89,19.45,4.53,29.56,3.18,2.13-.29,4.29-.17,6.43-.32,9.73-.66,19.12-3.54,28.82-4.32,3.34-.27,6.66-1.22,9.93-1.28,5.75-.1,11.51-1.02,17.32,.03,4.68,.85,9.51,.88,14.14,2.2,.72,.21,2.03-.11,1.97,.82-.07,1.06-1.27,.55-1.99,.46-3.99-.5-7.96-.93-11.93-1.92-2.79-.69-6.12-.02-9.21,.07-12.11,.36-24.19,1.35-36.05,3.91-9.75,2.11-19.59,2.34-29.49,2.28-5.34-.03-10.67,.23-15.86-1.49-2.96-.98-5.81-2.17-8.57-3.59-4.27-2.18-8.77-2.99-13.58-3.15-20.04-.67-39.6,2.7-59.19,6.29-11.78,2.16-23.68,1.8-35.38-1.11-3.94-.98-7.42-3.22-11.15-4.79-2.51-1.06-2.96-2.65-2.19-5.2,1.68-5.54,8.73-10.73,15.12-10.88,6.41-.15,12.6-1.96,19-2.2,1.68-.06,3.12-1.11,4.56-1.96,5.57-3.29,11.28-6.18,17.7-7.55,5.02-1.07,9.02-4.29,13.25-6.95,.61-.38,.89-1.28,1.31-1.94,.39-.6,.65-1.33,1.15-1.8,3.88-3.63,7.39-7.83,13.12-8.69,1.94-.29,3.87,.34,5.83-.19,.05,1.33-.47,1.88-1.49,2.04-1.34,.21-2.66,.55-4.01,.62-4.32,.22-7.53,2.31-10.03,5.67-1,1.34-1.95,2.72-2.94,4.07-2.63,3.59-6.11,5.99-10.35,7.32-3.88,1.21-7.74,2.46-11.63,3.62-4.42,1.33-8.42,3.37-11.82,6.51-1.24,1.15-2.56,1.66-4.34,1.41-1.96-.28-3.92,.67-5.93,.35-.65-.1-1.08,.34-1.16,.95-.21,1.49-1.3,2.28-2.32,3.19-1.07,.96-1.89,1.79-3.64,1.25-1.69-.53-3.92,1.6-4.55,3.83-.6,2.11,1.1,2.58,2.42,3.21,2.09,.99,4.28,1.72,6.59,2.06,.32,.26,.31,.52,0,.79Z"/><path class="cls-1" d="M223.67,36.28c-3.52,.17-7.02,.09-10.2-1.65-1.5-.83-1.62,0-1.64,1.07-.06,3.17,2.6,6.65,5.72,7.47,1.86,.49,3.78,.76,5.69,.63,10.9-.75,21.85-.19,32.73-1.35,2.29-.24,4.79,.7,6.73-1.45,.7-.77,1.3,.02,1.65,.65,.76,1.38,2,1.58,3.43,1.72,5.72,.54,11.31,1.53,16.38,4.52,2.65,1.56,4.7,3.8,6.94,5.79,2.02,1.8,2.14,8.29,.61,10.55-3.04,4.49-7.19,6.65-12.66,7.54-4.26,.7-8.45,.89-12.7,.97-.62,.01-1.67,.44-1.73-.63-.04-.77,.9-.71,1.52-.78,4.78-.57,9.32-2.04,13.82-3.69,2.53-.93,4.67-2.47,6.57-4.26,4.22-3.99,2.63-11.11-2.63-13.52-5.11-2.35-10.35-4.1-15.88-5.01-1.07-.18-2.16-.24-3.34-.1,2.98,1.05,5.53,2.7,7.9,4.67,2.9,2.41,3.73,5.61,3.56,9.18-.03,.63-.27,1.24-.76,1.71-4.4,4.23-9.89,4.73-15.68,4.28,1.79-.63,3.59-1.25,5.37-1.91,.82-.3,1.62-.65,2.43-.99,2.39-1.01,4.59-2.39,4.54-5.25-.06-2.92-1.19-5.35-3.96-7.1-5.79-3.66-12.03-4.74-18.73-4.44-6.36,.28-12.77-.1-19.1,.51-4.72,.45-9.2-.33-13.77-.85-3.68-.42-7.47-4.44-7.52-8.2-.02-1.68-.26-1.91-2.19-2.03-6.7-.41-13.59,.56-20.02-2.28-3.71-1.64-5.21-4.73-3.75-8.05,.36-.81,.72-1.65,1.87-1.51,.36,.51,.31,1.03,.04,1.56-.4,2.43,1.32,5.45,3.93,6.24,4.41,1.33,8.85,2.62,13.62,2.1-3.09-1.19-5.84-2.96-8.7-4.55-3.37-1.88-3.85-4.98-1.09-7.72,.39-.39,.83-.86,1.33-.99,3.96-1,7.46-3.45,11.67-3.69,1.35-.08,2.71-.44,4.04-.35,5.51,.36,9.44-2.63,12.53-6.47,4.47-5.55,10.88-6.09,17-7.47,1.75-.39,3.65-.13,5.49-.17,1.01-.17,2.08-.69,2.91,.41-3.25,.58-6.49,1.26-9.94,1.52,2.01,.88,4.02,1.77,5.93,2.61-.1,.72-.51,.88-.74,.78-3.01-1.31-6.31-.63-9.4-1.39-1.95-.48-3.72,.01-5.43,1.13-3.15,2.05-6.21,4.1-8.34,7.34-1.46,2.22-3.82,2.81-6.45,2.99-5.59,.38-11.04,1.49-16.04,4.16-3.84,2.06-3.96,4.69-.37,7.23,2.61,1.85,5.41,2.9,8.68,2.48,2.59-.33,5.01,.84,7.55,1.02,.16,.01,.43,.03,.45,.1,1.3,4.26,5.34,2.52,8.06,3.66,.65,.28,1.38,.37,2.08,.54,.31,.24,.32,.48,0,.72Z"/><path class="cls-1" d="M246.98,138.39c2.23-.44,3.84-1.1,5.25-2.09,1.71-1.2,2.07-2.94,1.42-4.87-1.03-3.05-2.98-5.42-5.6-7.25-2.5-1.74-5.32-2.85-8.1-4.02-1.02-.43-2.12-.56-3.28-.24-.82,.22-1.75,.22-2.6,.1-.97-.14-2.15-.72-2.05-1.67,.12-1.09,1.43-.61,2.17-.54,8.17,.7,15.44,3.21,20.31,10.36,.45,.66,.9,1.32,1.27,2.02,2.69,5.22,1.36,8.19-4.31,9.74-2.38,.65-4.8,1.18-7.04,2.24-1.82,.87-3.47,1.94-4.48,3.79-1.79,3.28-.7,6.85,2.69,8.43,2.23,1.04,4.54,1.92,6.81,2.88,.72,.3,1.57,.41,1.95,1.63-2.95-.82-6.07-.13-8.56-2.3-.45-.4-1.14-.56-1.74-.75-4.4-1.38-5.86-4.21-4.56-8.72,.91-3.19,3.23-5.01,6.03-6.37,.61-.3,1.35-.33,2.02-1.42-5.43,1.38-10.81,1.3-14.99,5.18-2.64,2.45-3.01,3.49-1.62,6.87,1.65,4,3.93,7.45,7.73,9.72,2.37,1.41,5.09,1.84,7.68,2.53,6.38,1.71,12.79,3.49,19.53,2.85,5.08-.48,10.16-.97,15.22-1.56,3.63-.43,7.15-.09,11.15,.93-2.58,1.24-5.2,.89-7.33,2.19,12.65-.84,25.28-.4,38.12-.46-1.06,1.07-2.37,1.18-3.49,1.2-11.62,.27-23.22,1.61-34.86,.68-3.18-.26-6.36-.58-9.5-1.11-3.73-.63-7.44,.23-11.19-.17-6-.64-12.09-.52-18.07-1.26-3.38-.42-6.66-1.73-9.77-3.38-3.88-2.06-5.38-5.78-6.81-9.43-2.46-6.3-.62-9.86,5.41-13.15,3.11-1.69,6.33-2.49,9.69-3.08,2.29-.41,4.19-1.35,5.67-3.2,.93-1.16,.87-2.1-.12-3.14-1.75-1.83-3.81-3.12-6.27-3.75-.54-.14-1.08-.27-1.63-.4-.84-.2-2.01-.37-1.78-1.43,.21-.96,1.36-.59,2.1-.45,3.25,.62,6.37,1.59,8.5,4.37,2.25,2.94,2.03,5.91-1,8.53Z"/><path class="cls-1" d="M209.62,106.07c-14.08,2.07-27.29,6.51-41.01,8.52-9.01,1.32-18.12,1.86-27.19,1.2-7.72-.56-15.28-1.73-22.36-5.65-5.73-3.17-12.1-5.04-19.01-4.52-5.4,.4-10.85,.08-16.28,.08-1.35,0-2.71-.08-4.03,.36-.95,.32-1.79,.03-2.79-.91,3.22-.62,6.16-.42,9.05-.46,7.72-.11,15.42-1.16,23.17-.44,5.67,.52,10.81,2.77,15.97,4.75,6.99,2.69,14.21,3.41,21.52,3.95,13.34,.98,26.27-1.17,39.21-4.31,6.88-1.67,13.91-3.59,21.18-3.1,.74,.05,1.55-.25,2.57,.53Z"/><path class="cls-1" d="M212.99,115.59c-.32,1.49-1.16,1.6-2.08,1.69-7.61,.76-15.17,1.97-22.74,3.03-16.32,2.29-32.68,4.6-49.21,4.65-12.04,.04-24.05-.45-35.78-3.61-2.52-.68-5.32-4.67-4.85-7.18,.39-2.13,1.94-3.05,3.9-3.25,.91-.1,1.91-1.56,2.44-.58,.55,1-.99,1.7-1.77,2.19-1.8,1.13-1.4,2.05-.19,3.32,1.89,1.97,4.19,3.17,6.78,3.81,6.36,1.56,12.87,1.75,19.36,2.34,8.86,.8,17.71,.64,26.55,.46,8.05-.16,16.07-1.16,24-2.55,6.81-1.19,13.63-2.26,20.49-3.07,4.31-.51,8.69-.24,13.1-1.24Z"/><path class="cls-1" d="M261.08,86.55c-4.4-.39-8.43,.59-12.53,2.31-5.55,2.33-11.58,2.96-17.58,3.09-5.27,.12-10.57,.28-15.81-.14-4.9-.39-9.73-1.68-14.63-2.27-9.66-1.15-19.24,.08-28.85,1.13-8.89,.97-17.52,3.99-26.65,3.11-3.75-.36-7.41-1.04-11.05-1.94-1.25-.31-2.27-1.15-3.21-2.02-1.61-1.5-1.58-3.85,.21-5.16,1.6-1.17,3.38-2.1,5.11-3.08,1.1-.63,1.85-.05,2.31,.92,.49,1.04,.04,1.59-1.04,1.9-1.3,.37-2.49,1.01-3.54,1.92-1,.87-.86,1.3,.23,2.09,5.99,4.4,12.69,4.43,19.62,3.48,7.8-1.07,15.55-2.45,23.37-3.38,5.35-.63,10.68-1.37,16.08-1.41,5.01-.03,9.88,1,14.79,1.78,10.74,1.7,21.51,2.56,32.32,.65,2.6-.46,5.05-1.46,7.47-2.48,6.31-2.65,12.96-1.66,19.49-1.92,.49-.02,1.07,.17,1.01,.74-.06,.5-.63,.67-1.14,.67-2,0-3.99,0-5.99,0Z"/><path class="cls-1" d="M123.67,55.26c3.1,1.05,5.73,2.8,7.96,5.19,.79,.85,1.26,.59,1.66-.46,.5-1.32,1.42-1.14,2.52-.55,4.67,2.51,8.61,6.29,13.76,7.97,.37,.12,.7,.38,1.02,.61,2.04,1.49,3.41,4.78,2.62,6.24-.45,.83-5.45,2.62-6.61,2.33-.27-.07-.58-.25-.74-.47-.23-.33,.07-.58,.32-.77,.19-.14,.42-.22,.62-.35,3.78-2.42,3.79-3.8,.11-6.37-.87-.61-1.42-.58-1.8,.43-.65,1.71-2.15,2.48-3.63,3.28-.4,.21-.8,.69-1.18,.07-.28-.46,.2-.66,.45-.95,1.76-2.04,1.65-4.45-.3-6.27-.29-.27-.61-.51-.93-.75-1.42-1.04-3.15-2.5-4.64-1.92-1.16,.44-.53,2.73-.51,4.19,.02,1.86-.72,3.19-2.26,4.19-5.99,3.88-12.45,6.11-19.66,5.28-3.4-.39-6.76,.5-10.13-.03-1.9-.3-3.71-.92-5.45-1.7-1.84-.83-2.27-2.2-1.13-3.84,1.61-2.31,3.97-3.62,6.6-4.46,.39-.13,1.16-.03,1.31,.22,.36,.6-.22,.97-.69,1.29-1.12,.75-2.38,1.29-3.26,2.38-1.06,1.32-.77,2.37,.65,3.1,1.29,.66,2.76,.75,4.18,.97,.58,.09,.89-.12,.85-.77-.23-3.08,2.19-4.06,4.33-4.43,2.94-.5,6.03-1.52,9.58,0-3.86,1.63-7.94,1.16-11.2,3.68,1.18,.9,2.37,1.51,3.81,1.55,5.15,.13,10.16-.6,14.99-2.47,2.23-.86,3.75-2.63,5.46-4.15,.79-.7,.35-1.62,0-2.43-1.37-3.2-3.74-5.5-6.65-7.29-1.03-.63-1.95-1.24-2.01-2.58v.07Z"/><path class="cls-1" d="M307.86,114.1c1.18-.66,2.16,.13,3.13,.52,7.99,3.18,16.14,5.89,24.64,7.28,4.41,.72,8.65,2.26,13.13,2.58,1.4,.64,3.16-.61,4.41,.84,12.26,3.43,24.8,4.53,37.49,4.88,3.59,.1,7.24-.35,10.8,.48,.53,.12,1.72-.77,1.52,.62-.14,.98-.3,2.17-2.02,2-5.46-.53-10.92-1.01-16.37-1.5-7.67-.69-15.4-1.25-22.94-2.61-13.52-2.44-27.06-4.9-40.45-8.06-3.82-.9-7-3.12-10.78-3.91-1.51-.32-2.27-1.63-2.49-3.17l-.06,.05Z"/><path class="cls-1" d="M294.92,56.78c2.41-.67,3.7,.04,4.77,1.63,2.26,3.33,4.55,6.6,3.22,10.98-.79,2.59-2.31,4.51-4.9,5.45-7.85,2.81-15.97,4.47-24.26,4.81-8.35,.33-16.72,.11-25.08-.17-2.59-.08-5.24,.29-7.79,.8-2.34,.47-2.47,1.14-1.02,3.02,.63,.82,1.23,1.68,.28,2.48-1.09,.91-2.35,1.71-3.92,1.04-.4-.17-.7-.45-.39-.89,.91-1.27,.92-2.28-.38-3.43-.8-.71-.12-1.59,.62-2.2,1.79-1.49,3.91-2.04,6.17-2.26,8.04-.78,16.1-.69,24.14-.38,9.52,.37,18.73-1.09,27.84-3.53,5.38-1.44,7.46-7.92,4.35-12.6-1.04-1.56-1.86-3.27-3.64-4.74Z"/><path class="cls-1" d="M316.69,78.59c.37-1.11,1.12-1.69,2.24-2.17,5.39-2.28,11.1-3.32,16.75-4.66,12.29-2.91,24.86-4.85,36.54-9.97,4.5-1.97,8.76-4.26,9.91-9.76,.27-1.28,.12-2.32-.4-3.42-.46-.98-.52-1.91,.75-2.29,1.22-.36,1.4,.54,1.69,1.43,1.41,4.29,.38,7.95-2.63,11.21-3.44,3.73-7.61,6.29-12.48,7.57-8.39,2.21-16.86,3.92-25.47,5.17-6.96,1.01-13.97,2.29-20.58,4.97-2.07,.84-4.15,1.58-6.37,1.87l.05,.05Z"/><path class="cls-1" d="M348.3,132.58c2.45,1.14,5.17,.82,7.73,1.38,.34,.07,.9,.18,.86-.43-.05-.64-.32-1.47,.67-1.37,1.09,.11,2.41,.26,3.16,.92,2.13,1.88,2.1,2.02,6.28,2.32,3.98,.28,7.95,.52,11.93,.85,.51,.04,1.54-.25,1.43,.75-.09,.81-.91,.31-1.39,.34-9.62,.69-19.02-1.12-28.41-2.66-4.8-.79-9.62-1.49-14.44-1.99-4.71-.49-9.17-1.92-13.79-2.73-4.83-.85-9.69-1.92-14.35-3.38-3.03-.95-6.39-1.55-9.07-3.75-2.46-2.03-5.66-2.86-8.42-4.44-.46-.26-1.37-.14-1.1-1.13,1-.91,2.16-.86,3.37-.56,11.34,7.23,24.1,10.44,37.09,12.97,4.21,.82,8.45,1.5,12.68,2.24,1.58,.28,3.16,.36,4.76,.12,.6-.31,.79,.17,1.02,.55Z"/><path class="cls-1" d="M350.71,124.02c-6.2-1.46-12.4-2.89-18.59-4.38-3.18-.77-6.21-1.98-9.21-3.27-1.22-.53-2.11-1.31-2.87-2.95,1.77,.49,3.25,.67,4.51,1.3,6.74,3.35,14.21,3.99,21.35,5.8,8.83,2.24,17.83,3.62,26.86,4.96,9.91,1.47,19.8,1.62,29.73,1.83,.24,0,.48,0,.72,0,.77,.02,1.69-.2,1.62,1.1-.07,1.24-1.01,.82-1.6,.79-8.91-.4-17.81-.94-26.71-1.61-7.48-.56-14.84-2.03-22.29-2.75-1.19-.18-2.49,.13-3.51-.8Z"/><path class="cls-1" d="M260.42,147.76c0,.2,.02,.28,0,.36-1.44,4.43,1.65,5.77,4.81,7.15,2.71,1.18,5.53,1.89,8.38,2.65,6.7,1.78,13.59,.97,20.36,1.84,6.89,.88,13.86,.24,20.78,.04,2.84-.08,5.66-.49,8.51-.06,.39,.06,1.05-.41,1.07,.4,.02,.65-.59,.67-1.06,.65-6.08-.37-12.05,1.08-18.13,.92-5.23-.13-10.45-.43-15.68-.45-4.02-.01-8.12-.13-12.09-1.12-3.55-.88-7.1-1.73-10.73-2.28-2.77-.42-5.19-1.99-7.66-3.22-1.67-.83-1.76-2.67-1.42-4.42,.3-1.59,.99-2.69,2.86-2.46Z"/><path class="cls-1" d="M336.86,170.42h-3.4c-.24-.04-.5-.03-.7-.14-.27-.14-.27-.31,.08-.38,1.56-.31,3.11-.74,4.69-.91,10.43-1.09,20.87-2.16,31.31-3.12,9.62-.88,19.26-.74,28.85-1.66,.58-.06,1.72-.79,1.83,.6,.09,1.16-.78,1.25-1.75,1.38-3.8,.54-7.64,.07-11.41,.39-5.5,.48-11.01,.05-16.5,.55-2.78,.25-5.6,.14-8.35,.57-5.98,.94-11.99,1.66-18.02,2.07-2.22,.15-4.48-.09-6.64,.64Z"/><path class="cls-1" d="M288.89,116.43c-3.56-3.34-4.78-7.35-3.52-12.09,.38-1.44,.2-2.93,.82-4.4,1.76-4.14,4.27-7.38,8.38-9.58,3.48-1.86,6.54-4.52,10.45-5.59,.42-.11,.85-.63,1.31-.18,.6,.59-.1,1.03-.31,1.45-.9,1.84-2.45,2.9-4.45,3.25-4.49,.77-8.23,3.35-10.74,6.64-1.86,2.44-3.08,5.92-3.15,9.42-.06,3.45,.3,6.69,3.07,9.15,.57,.5,.83,1.15,1.09,1.81-.96,.61-1.96,.49-2.96,.12Z"/><path class="cls-1" d="M122.48,80.22c-3.5,.41-6.56,.73-9.61,1.14-2.68,.36-4.95,1.6-6.96,3.42-1.63,1.47-1.16,2.66,.38,3.59,1.25,.76,2.67,1.22,4.01,1.82-6.12,1.74-11.99,.51-17.82-1.15-1.07-.31-1.81-.95-2.03-2.1-.27-1.41,.26-2.51,1.37-3.33,3.62-2.66,7.99-3.02,12.53-4.26-.89,1.81-2.25,1.78-3.41,1.99-2.44,.44-4.45,1.62-6.29,3.22-1.07,.93-.91,1.7,.05,2.55,1.35,1.2,2.96,1.86,4.67,2.27,2.82,.68,2.97,.54,3-2.38,.03-2.8,2.62-5.64,5.78-6.04,3.95-.5,7.93-.81,11.81-1.78,.81-.2,1.53,.07,2.52,1.03Z"/><path class="cls-1" d="M330.27,26.14c2.53,.53,4.46,.32,6.35-.4,2.9-1.11,3.31-3.42,.99-5.55-.46-.43-1.73-.51-1.16-1.43,.62-1,1.4,0,1.99,.35,.82,.47,1.71,1.01,2.23,1.76,2.74,3.98,2.88,6.14-2.16,7.35-3.78,.91-7.4-.86-11.13-.42-.77,.09-1.21-.73-1.38-1.44-.17-.75,.42-1.13,.98-1.45,1.17-.67,2.42-1.23,3.52-2.01,2.09-1.47,2.37-3.16,1.07-5.29-1.39-2.28-3.23-4.13-5.34-5.74-.41-.31-1.15-.64-.76-1.28,.52-.84,1.14-.13,1.61,.17,2.55,1.67,4.68,3.72,6.54,6.2,1.81,2.43,.55,4.68,.06,6.87-.19,.86-1.96,1.37-3.42,2.31Z"/><path class="cls-1" d="M368.46,102.15c-.81,1.17-1.57,1.36-2.63,1.38-3.75,.1-7.15-1.44-10.74-2.02-3.58-.58-6.65-1.95-9.59-3.92-3.73-2.49-5.05-6.16-5.3-10.39-.06-1.06,.32-2.09,1.01-2.87,2.81-3.16,5.7-6.23,9.92-7.55,1.36-.43,2.68-.99,4.05-1.39,.83-.24,2.07-1.17,2.48,.05,.29,.86-1.13,1-1.94,1.25-1.37,.41-2.74,.82-4.08,1.31-1.74,.62-3.23,1.67-4.73,2.73-6.64,4.66-4.66,13.52,1.54,16.51,5.4,2.6,10.99,4.57,17.09,4.71,.86,.02,1.72,.12,2.94,.21Z"/><path class="cls-1" d="M347.11,163.98c12.29-2.66,24.34-3.45,36.46-3.69,4.94-.1,9.83-1.05,14.78-.91,.92,.03,2.56-.6,2.66,.44,.17,1.61-1.6,1.01-2.57,1.21-4.89,1-9.85,.57-14.78,.7-4.62,.13-9.22,.53-13.81,1.07-.08,0-.16,.02-.24,.03-6.09,.52-12.17,1.06-18.26,1.53-1.3,.1-2.66,.26-4.25-.37Z"/><path class="cls-1" d="M316.15,27.23c-5.21,.57-10.44-.02-15.65,.1-.83,.02-1.61-.19-2.27-.63-1.37-.93-2.01-1.97-.45-3.39,1.44-1.31,3.02-2.33,4.87-2.92,3.58-1.14,7.25-.86,10.9-.65,.89,.05,1.79,.63,2.6,1.11,.79,.48,1.79,1.06,1.19,2.23-.67,1.3-1.92,.92-2.68,.31-2.96-2.39-6.28-2.8-9.9-2.32-1,.13-1.86,.27-2.53,1.06-1.21,1.41-.91,2.44,.94,2.86,2.65,.6,5.36,.78,8.07,.8,1.68,.01,3.34,.13,4.96,.62,.32,.29,.33,.56-.04,.81Z"/><path class="cls-1" d="M344.06,36.48c1.22-.75,2.41-.48,3.64,.04,2.55,1.08,5.09,2.21,7.71,3.1,3.54,1.21,4.87,4.09,5.87,7.24,.29,.93,.12,2-.9,2.47-1.4,.65-2.51,2.12-4.29,1.69-.85-.21-.42-.77-.21-1.3,2.06-5.23,1.08-7.19-4.36-9.06-2.66-.91-5.62-1.25-7.55-3.68-.15-.14-.18-.26-.1-.36,.07-.09,.13-.13,.2-.13Z"/><path class="cls-1" d="M353.37,32.65c6.26,3.37,13.55,2.47,20.05,4.8,2.18,.78,4.12,2.07,5.81,3.69,.34,.33,.77,.74,.48,1.22-.27,.45-.84,.41-1.3,.22-1.24-.53-2.64-.87-3.67-1.68-4.4-3.46-9.7-3.29-14.81-3.86-1.97-.22-3.99,.05-5.94-.52-1.18-.34-1.99-1.01-2.2-2.24-.2-1.2,.25-1.86,1.58-1.62Z"/><path class="cls-1" d="M237.7,32.77c-6.21-.66-12.44,.09-17.63-4.04-.76-.61-1.81-1.03-1.35-2.45,.42-1.3,.97-2.4,2.39-2.68,1.63-.33,3.3-.5,4.94-.77,2.58-.43,5.23-.19,7.77-1.1,1.05-.38,2.37-.2,3.46,1.3-3.7,.05-7.12,.24-10.48,.92-.54,.11-1.1,.16-1.64,.28-1.39,.31-2.89,1.02-3.12,2.28-.23,1.2,1.52,1.57,2.48,2.13,3.15,1.86,6.63,2.57,10.28,2.52,1.09-.01,2.26-.18,2.91,1.61Z"/><path class="cls-1" d="M104.44,76.99c-.57,1.45-1.58,1.38-2.37,1.4-3.34,.08-6.68,.17-10.02-.11-4.46-.37-4.64-3.12-3.38-6.39,.17-.43,.46-.85,.78-1.19,.63-.66,1.12-2.06,2.06-1.64,1,.44,.3,1.64,0,2.49-.68,1.87,.53,2.83,1.82,3.67,2.6,1.69,5.64,1.44,8.54,1.76,.78,.09,1.57,.01,2.57,.01Z"/><path class="cls-1" d="M221.6,86.98c.8-.56,1.37-1,1.98-1.36,1.61-.93,2.07-2.17,1.55-4-.87-3.03-.46-3.82,2.56-4.73,3.04-.92,6.15-1.59,9.21-2.43,1.23-.34,2.15,.13,3.45,1.08-3.97,.87-7.59,1.81-11.26,2.41-1.93,.31-1.86,1.09-1.37,2.52,1.41,4.08-1.47,7.33-6.12,6.52Z"/><path class="cls-1" d="M307.92,114.04c-3.99-.12-7.96-3.12-9.11-6.87-1.11-3.63,.31-7.34,3.72-9.68,.22,.75-.22,1.36-.43,1.97-2.02,5.7-.82,9.19,4.3,12.53,.73,.48,1.57,1,1.46,2.11,0,0,.05-.05,.05-.05Z"/><path class="cls-1" d="M352.39,87.11c.49-1.93,1.92-3.63,3.42-5.27,.16-.17,.63-.21,.88-.11,.35,.15,.23,.53,.1,.83-.19,.44-.39,.87-.58,1.31-1.74,4.05-1.4,5.27,2.23,7.95,1.71,1.26,3.6,2.02,5.75,2.1,.53,.02,1.24,.03,1.14,.83-.06,.54-.59,.78-1.1,.67-3.98-.84-8.05-1.52-10.71-5.12-.63-.85-1.05-1.77-1.13-3.18Z"/><path class="cls-1" d="M343.09,25.94c.52-.34,1.06-.65,1.54-1.03,.69-.56,2.09-.66,1.94-1.75-.16-1.17-1.06-2.1-2.24-2.59-1.17-.48-2.4-.85-3.26-1.86-.33-.39-1.03-.69-.56-1.34,.33-.46,.87-.26,1.31-.06,2.51,1.17,5.09,2.21,7.27,3.98,.76,.62,1.33,1.35,1.7,2.25,.77,1.85,.29,2.76-1.69,2.88-1.95,.11-3.91,.02-5.87,.02-.04-.16-.09-.33-.13-.49Z"/><path class="cls-1" d="M195.45,112.07c8.91-2.17,17.89-2.03,26.89-.82-7.96,.66-15.95,.67-23.91,1.27-1.02,.02-2.16,.81-2.98-.45Z"/><path class="cls-1" d="M399.55,139.02c-.64,.98-1.58,1.33-2.66,1.25-4.67-.35-9.35-.69-13.93-1.73-.58-.13-1.5-.1-1.46-.92,.05-1.04,1.05-.82,1.68-.74,1.89,.23,3.75,.64,5.63,.87,2.6,.32,5.2,.66,7.84,.53,1.03-.05,2.03,.02,2.9,.72Z"/><path class="cls-1" d="M311.83,104.34c.99,3.22,1.98,6.42,5.65,7.69,.47,.16,.73,.65,.63,1.16-.08,.42-.39,.57-.88,.54-5.67-.32-9.07-6.68-6.27-11.79,1.54,.35,.23,1.72,.87,2.39Z"/><path class="cls-1" d="M300.89,3.96c4.53-1.67,8.93-.65,13.27,.75,2.06,.67,4.38,1.06,5.82,3.63-3.11-1.21-5.88-2.35-8.82-2.92-2.75-.53-5.52-.73-8.32-.66-.67,.02-1.45,.41-1.94-.43-.17-.08-.23-.16-.18-.25,.06-.09,.11-.13,.17-.13Z"/><path class="cls-1" d="M300.89,3.96c.01,.13,.01,.25,0,.38-5.1,.42-10.17,1.29-15.32,.91-.31-.27-.31-.54,0-.82,4.3-.78,8.75-.22,13.01-1.39,1.01-.28,1.6,.45,2.31,.92Z"/><path class="cls-1" d="M331.97,166.54c4.86-1.37,9.81-2.31,14.98-2.64-.94,1.41-.94,1.49-7.33,2.07-2.53,.23-4.99,1.55-7.65,.57Z"/><path class="cls-1" d="M223.67,36.28c0-.24,0-.48,0-.72,1.99,.79,4.07,.28,6.1,.35,3.04,.09,6.08,.02,9.13,.33-1.32,.99-2.78,.56-4.19,.61-2.06-.43-4.12,.23-6.18-.03-1.68,.31-3.28,0-4.87-.53Z"/><path class="cls-1" d="M95.02,51.74c1.78,0,3.18-.07,4.57,.03,.87,.06,1.54,.66,1.36,1.59-.17,.91-1,.92-1.72,.68-1.37-.45-3.03-.29-4.2-2.29Z"/><path class="cls-1" d="M316.64,78.54c-1.03,2.88-3.53,3.26-6.08,3.55,1.8-1.58,3.25-3.79,6.13-3.49,0,0-.05-.05-.05-.05Z"/><path class="cls-1" d="M214.08,116.51c1.78-1.81,3.5-1.44,5.18-1.22,.31,.04,.62,.14,.6,.56-.03,.51-.41,.65-.8,.65-1.48,.02-2.96,0-4.98,0Z"/><path class="cls-1" d="M372.3,95.97c-1.64,0-3.28,0-4.93,0-.39,0-.84-.05-.91-.54-.09-.66,.45-.77,.91-.81,1.75-.13,3.35,.49,4.92,1.35Z"/><path class="cls-1" d="M348.62,46.81c.13-.81,.22-1.63,.41-2.42,.12-.52,.21-1.16,.86-1.31,.44-.11,.67,.27,.87,.63,.36,.64,.35,1.21-.25,1.67-.59,.45-1.23,.84-1.89,1.43Z"/><path class="cls-1" d="M247.66,1.39c-.89-.7-1.97-.07-2.91-.41,2.46-.4,4.95-1.18,7.19,.85-1.42-.15-2.85-.29-4.27-.44Z"/><path class="cls-1" d="M123.66,55.2c-.28,.82-.93,.42-1.4,.36-.91-.12-1.91-.1-2.52-.97-.08-.12,.04-.54,.17-.61,1.07-.54,1.95,.1,2.83,.57,.34,.18,.62,.48,.92,.72,0,0,0-.07,0-.07Z"/><path class="cls-1" d="M228.54,36.81c2.06-.68,4.13-.74,6.18,.03-2.06,.1-4.13,1.04-6.18-.03Z"/><path class="cls-1" d="M184.92,24.05c-.01-.52-.03-1.04-.04-1.56,.79-1.12,1.72-2.04,3.42-2.05-.34,2.05-3.52,1.35-3.38,3.61Z"/><path class="cls-1" d="M350.71,124.02c1.21,.08,2.4,.27,3.51,.8-.35,.16-.71,.33-1.06,.49-1.49-.16-2.99-.3-4.41-.84,.61-.34,1.43,.26,1.96-.45Z"/><path class="cls-1" d="M271.24,4.9c-1.12,.84-2.01,.39-2.83,.52-.51,.08-1.24,.01-1.01-.83,.13-.46,.57-.71,1.12-.53,.8,.26,1.6,.5,2.71,.85Z"/><path class="cls-1" d="M195.45,112.07c.9,.76,2,.2,2.98,.45-1.93,.67-3.92,.34-5.96,.08,.99-.18,1.99-.35,2.98-.53Z"/><path class="cls-1" d="M365.22,144.48c-.8,.3-1.75-.25-2.47,.45-.78-.2-1.56-.4-2.34-.61,1.7-.76,3.24-.08,4.82,.15Z"/><path class="cls-1" d="M325.27,167.34c.93-1.42,2.37-.39,3.45-.85,.06-.03,.36,.27,.38,.43,.05,.37-.25,.58-.58,.6-1.06,.05-2.13,.27-3.25-.18Z"/><path class="cls-1" d="M311.83,104.34c-.82-.61-.08-1.77-.87-2.39,1.07-.39-.48-2.68,1.67-2.28l-.07-.04c-.55,1.53-1.05,3.06-.74,4.72Z"/><path class="cls-1" d="M288.89,116.43l2.96-.12c.4-.09,.7,.03,.9,.39-1.21-.33-2.16,.91-3.37,.56-.17-.27-.33-.55-.5-.82Z"/><path class="cls-1" d="M246.23,125.95c-1.05,.11-1.81-.27-2.23-1.32,.91-.2,1.72-.15,2.33,.64,.17,.26,.14,.48-.1,.68Z"/><path class="cls-1" d="M348.3,132.58c-.34-.18-.68-.36-1.02-.55-.02-.43-.82-.76-.35-1.16,.37-.32,.98-.23,1.5,.07,1.15,.67-.57,1.06-.13,1.64Z"/><path class="cls-1" d="M312.63,99.67c-.41-1.17,.66-1.45,1.27-2,.33,1.16-.31,1.68-1.34,1.96,0,0,.07,.05,.07,.05Z"/><path class="cls-1" d="M344.06,36.48c-.03,.16-.06,.33-.09,.49-.88-.06-1.76-.11-2.84-.18,1.03-1.37,1.98-.81,2.93-.31Z"/><path class="cls-1" d="M285.57,4.42c0,.27,0,.54,0,.82-.75,.18-1.4,.02-2.04-.56,.71-.41,1.38-.33,2.04-.26Z"/><path class="cls-1" d="M24.21,87.03c.6-.54,1.33-.3,2.2-.49-.26,.72-.6,.99-1.16,1.02-.35-.18-.69-.35-1.04-.53Z"/><path class="cls-1" d="M246.23,125.95c.03-.23,.07-.45,.1-.68,.12,.1,.29,.17,.35,.29,.23,.41,1.44,.24,.88,.97-.65,.84-.9-.31-1.33-.58Z"/><path class="cls-1" d="M352.45,132.47c.79-.47,1.6-.54,2.48-.08-.86,.6-1.67,.27-2.48,.08Z"/><path class="cls-1" d="M27.65,100.6c.48-.01,.95-.03,1.43-.04,.32,.29,.32,.58,.01,.88-.32-.01-.65-.02-.97-.04-.32-.17-.57-.39-.47-.8Z"/><path class="cls-1" d="M27.65,100.6c.16,.27,.31,.53,.47,.8-.48,0-.95,0-1.43,0,0-.26,0-.52,0-.79,.32,0,.64,0,.97-.01Z"/><path class="cls-1" d="M29.08,101.44c0-.29,0-.59-.01-.88,.41,.04,1.08-.3,1.1,.35,.02,.56-.61,.56-1.09,.53Z"/><path class="cls-1" d="M316.15,27.23c.01-.27,.03-.54,.04-.81,.53-.12,1.1,.1,1.05,.57-.07,.62-.68,.3-1.09,.24Z"/><path class="cls-1" d="M319.41,27.93c-.42-.83-.7-1.13-.66-1.37,.04-.24,.42-.57,.65-.57,.23,0,.62,.33,.66,.56,.04,.25-.24,.55-.65,1.38Z"/></g></g></svg>