<?xml version="1.0" encoding="UTF-8"?><svg id="_レイヤー_2" xmlns="http://www.w3.org/2000/svg" viewBox="0 0 476.3 134.9"><defs><style>.cls-1{fill:#fff;}</style></defs><g id="_レイヤー_1-2"><g><path class="cls-1" d="M209.41,109c-14.64-3.96-29.53-7.48-42.56-14.39-.82-.18-1.68-.68-1.21-1.24,.7-.86,1.71-.36,2.49,.2,6.49,3.88,14.59,2.51,22.02,3.89-1.4-.89-2.8-1.77-4.06-2.57,.11-1.86,5.2,.51,3.3-3.09-1.1-2.09,1.42-1.21,3.05-1.24,7.55-.14,13.8,3.39,20.93,4.34l-.08,.07c.2-.66-1.7-1.47-.24-1.81,1.27-.29,2.4,.69,2.86,1.8l-.06-.06c6.99,2.24,13.09,6.21,21.51,6.9-3.9-2.63-8.08-4.28-10.48-7.95,13.81,5.04,27.62,10.07,41.43,15.11-7.37-6.01-17.64-8.88-24.34-15.46,28.27,11.22,57.04,20.88,88.82,23.46-2.2-1.76-5.66-1.63-8.08-4.04,12.36-2.08,24.25-.49,36.15-.46-22.85-3.29-46.6-2.46-68.71-9.48,10.91-2.3,21.83-2.09,33.02,.18-.22-2.24-3.64-1.82-3.78-3.83,5.32-2.06,10.73-3.17,16.64-1.12,1.55,.54,4.21,2.24,3.99-1.25,0-.12,.86-.45,1-.36,5.36,3.37,11.74,.42,17.76,1.87,6.68,1.61,13.69,2.94,20.66,4.05,.12,.02,.44-.2,.42-.25-.11-.3-.3-.58-.45-.87-1.18-.41-2.7-.28-3.48-1.35-.24-.25-.49-.49-.73-.74,.43,.1,.87,.2,1.3,.3,1.38,.03,2.74,.09,3.68,1.06,5.46,2.2,12.33,.18,17.36,3.65,3.11-4.07,8.06,2.4,11.51-1.25,.69-.73,2.62,.58,3.97,1.03,6.67,2.2,13.37,4.35,20.28,6.06-1.97-2.81-5.53-3.69-8.14-5.45,4.51-4.99,8.05-.17,12.09,.68,1.24-1.74-2.02-2.35-1.34-4.58,11.63,6.57,24.33,9.46,38.41,7.52-12.31,1.36-21.24-4.56-30.83-8.95-7.53-3.45-14.97-4.01-22.79-.6-1.32,.57-3.3,.42-4.93,.29-12.57-1.06-25.2-1.83-37.66-3.46-5.81-.76-11.22-3.55-17.3-.91-.42,.18-1.3-.03-1.81-.28-11.87-5.71-24.19-1.49-36.19-.72-12.67,.81-25.28,1-37.9,.27-8.03-.47-14.92-3.31-20.44-8.06-1.77-1.52-2.92-3.25-3.27-5.29-.16-.96,.66-1.53,1.69-1.86,.82-.27,2.18-.22,2.16,.37-.05,1.66-.25,3.26,2.74,2.4,2.23-.64,2.94-2.32,2.86-4.09-.09-1.83-.96-3.27-3.67-3.34-1.47-.04-2.97,.14-4.22-.7-1.17-.37-2.5-.69-2.29-1.97,.1-.61,.43-1.37,1.52-1.29,1.55,.11,1.84,1.13,2.17,2.09,1.68,.42,3.52,.81,4.14-1,.53-1.53-.24-2.94-1.67-4.09-1.44-1.16-3.59-2.1-5.05-1.07-3.6,2.52-7.3,2.79-11.97,2.54-4.69-.25-7.92,3.62-12.7,4.68-2.4,.53-3.53,4.75-5.12,7.34-.42,.69-.47,2.23-.62,2.22-9.63-.39-16.29,8.18-26.8,5.42-3.53-.93-7.68-.44-11.18-1.41-10.5-2.9-20.65-5.03-32.23-3.07-8.33,1.4-14.67-3.08-18.58-9.06-1.2-1.84-1.59-3.82-.83-5.81,.62-1.64,2.18-2.45,4.37-2.16,1.82,.24,3.39,.92,2.61,2.66-.76,1.69-.84,2.98,1.83,3.34,2.32,.31,4.25-.31,5.21-2.08,1.86-3.43,.45-6.14-3.37-8.08-1.83-.93-3.76-.77-4.23-3.63-.56-3.35-5.48-2.41-8.39-1.16-3.23,1.39-5.69,3.56-8.76-.3-.67-.85-3.94-.53-6.02-.54-10.24-.03-16.88,4.01-19.22,11.84-.33,1.11,.02,2.07-1.75,2.71-13.1,4.74-20.67,13.31-25.57,23.58-3.45,7.24-9.52,12.43-18.37,15.71-4.34,1.61-8.98,2.85-13.04,6.25,4.63-.21,8.01,1.2,11.84,2.99-.33-5.25,3.95-5.74,8.69-6.4,3.72-.52,6.88-3.13,12.65-1.04-2.47-2.53-4.56-4.19-2.62-5.98,1.64-1.51,3.86-.63,5.86-.03,1.09,.33,2.48,.86,3.28-.24,2.37-3.23,2.18-3.12,5.79-.6,8.22,5.74,16.52,11.45,29.74,12-12.42-4.21-23.11-8.64-31.26-16.82,2.84,.35,5.3,.64,7.76,.94l-.1,.07c-.3-2.07-2.87-2.68-4.14-4.09-.68-.75-4.4-2.14,.51-3.1,2.26-.44-1.87-1.97-.85-3.76,4.27,.72,6.02,4.53,10.11,5.58,.75-1.4-.91-2.1-1.16-3.13-2.68-1.64-5.36-3.27-8.04-4.91,4.81-.89,7.11,1.42,9.45,3.67,4.27,.6,6.53,3.48,9.67,5.35,2.77,1.65,4.99,4.02,9.99,4.61-5.05-4.42-10.62-7.5-12.58-13.47,5.15,1.6,6.98,5.7,11.53,7.26-4.13-6.86-5.98-8.41-13.96-11.87-1.75-.76-4.95-1.42-3.59-3.27,1.55-2.13,4.12-.27,5.96,.63,3.98,1.94,7.16,4.55,10.02,7.51,3.96,4.08,8.74,7.38,15.77,7.71-4.61-2.9-9.55-5.46-13.06-9.25-3.46-3.74-7.01-7.38-13.5-9.39,4.63-.66,4.85-.75,7.32,.97,24.94,17.44,54.98,25.96,86.99,31.04,.9-.24,2.09-.07,2.49-1.05Zm78.57-12.97h6.85c-3.01,2.26-6.21,2.41-9.59,1.37-11.43-.6-23.75,.83-31.39-8.5-1.16,.71,1.41,2.49-1.14,2.7-2.36,.2-12.98-5.87-14.11-7.68-1.44-2.31-.15-3.74,2.12-4.98,3.07-1.68,2.4,1.35,3.64,1.77,4.81,1.65,4.31,7.03,9.58,8.25-.43-4.25-5.39-7.26-5.12-11.69,.1-1.74-.42-4.2,2.85-4.07,2.83,.1,1.86,2.37,2.14,3.94,.8,4.6,.76,9.64,7.71,11.76l-.07,.06c-1.46-2.54-3.5-4.81-3.98-7.76-.53-3.23-.9-3.2,3.41-4.8-1.28,7.96,.96,11.12,10.57,14.82,5.3,2.04,10.73,3.84,16.54,4.8Zm-149.41-27.08c.21-.23-.05-1.16,.86-.36-.3,.11-.61,.21-.91,.32-1.84,8.18,7.05,11.04,13.4,15.45-7.26,1.32-12.62-.03-18.1-2.76-7.23-3.59-13.6-8.51-22.37-9.97-1.36-.23-1.77-1.05-1.53-1.83,.77-2.48,3.14-4.12,6.07-4.49,2.89-.37,3.85,1.49,3.8,3.6-.03,1.33-.22,2.85,2.17,3.03,2.41,.18,4.13-.91,4.85-2.57,.52-1.2,.39-2.61,.35-3.92-.05-1.41-.05-2.93,2.07-3.13,2.44-.23,3.45,1.34,3.23,2.92-.56,4.07,2.16,4.44,6.11,3.71Z"/><path class="cls-1" d="M38.01,99.25c2.78,1.89,5.55,3.78,8.33,5.67-3.99-6.92-11.81-11.86-14.77-20.47,3.93,2.22,4.67,6.08,9.39,5.47,.99-.13,.85,.82,.55,1.49-.95,2.1,.29,3.36,2.84,3.36,2.47,0,3.58-1.65,3.92-3.38,.53-2.71-.92-5.48-3.47-6.6-9-3.92-9.2-11.08-10.99-17.52-1.72-6.19-1.44-12.51,1.56-18.66-.3,8.23-.57,16.44,3.91,24.16-1.71-7.96-1.26-15.87,.56-23.77,.6-2.55,.8-5.21,4.1-8.57-.84,3.84-1.36,6.23-1.89,8.62-.1,7.41-2.89,14.95,1.66,22.12,.88,1.38,.81,3.38,4.22,3.81-4.8-11.96-5.25-23.53,2.79-34.62-.79,8.99-2.06,17.97,5.11,26.04-.78-3.46-1.71-6.91-2.3-10.4-1.7-10.15,3.28-18.53,11.47-25.97,1.37-1.25,3.27-2.16,2.65-4.15-4.02-.17-4.49,3.31-7.27,4.41-3.13,4.77-4.84,.23-7.31-1.03-1.39,4.65-3.92,7.13-10,4.12-2.73-1.35-5.83-.6-7.08,1.49-2.58,4.3-5.56,8.19-10.68,10.86,.4,2.2,2.81,4.22,.82,6.64-2.24,2.73-1.43,5.74-1.19,8.72,.47,5.83,.79,11.67,1.17,17.51-4.05-10.8-4.38-21.75-2.66-32.79-.74-2.23-.39-4.11,3.06-4.4,3.78-.31,4.64-2.47,5.4-4.78,2.01-6.1,5.89-7.44,12.87-4.41,2.83,1.23,4.64,1.06,5.27-1.88,.91-4.27,2.88-5.36,6.24-1.01,.82,1.06,2.29,.47,3.5,.46,2.3-3.31,2.44-6.49-1.33-9.61,1.94,.97,5.35-1.3,5.31,1.18-.05,2.65,2.53,3.11,3.81,4.61,7.04,1.81,9.2,.12,8.54-6.05,3.01,.83,2.75,2.43,2.12,4.4-.72,2.24,.89,3.47,3.65,3.7,2.76,.24,4.39-1.07,5.28-2.89,1.46-2.96,1.2-5.85-1.02-8.58-1.56-1.91-3.36-1.48-5.39-.53-.87,.41-2.38,.99-2.88,.7-6.37-3.63-14.52-.9-21.03-3.78-4.64-2.05-7.99-.98-9.14,2.92-1.42,4.83-3.56,7.84-11.01,6.47-2.6-.48-5.66,1.13-7.57,3.1-1.92,1.98-2.59,4.99-7.03,4.81-1.1-.04-1.15,1.19-1.39,2-3.41,11.72-4.62,23.49-1.46,35.39,1.07,4.04-.35,8.23,1.48,12.33,.86,1.93-2.39,2.89-4.29,3.8C1.75,90.79-3,100.02,1.81,113.14c2.93,7.98,8.66,14.42,17.82,18.72-.93-2.68-4.69-3.89-5.62-7.71,7.35,3.45,11.77,8.82,19.29,10.76-5.65-4.27-12.66-7.53-16.52-13,1.59-1.93,3.3,.84,4.65-.57-2.72-2.87-6.12-5.46-7.55-9.06-.63-.63-1.28-1.28-.36-2.03,.06-.05,1.07,.63,1.64,.98,2.1-1.94-2.26-3.55-.06-5.6,1.84,1.66,3.79,3.41,5.74,5.16,1.08-.3,.93-1.01,.88-1.68-1.71-.87-2.44-2.22-2.95-3.69-1.9-1.73-3.26-3.59-2.81-6.64,2.49,1.94,3.01,3.99,3.85,5.9,.88,1.31,1.76,2.63,2.65,3.94,.76,.82,1.51,1.64,2.27,2.47,2.74,2.21,5.09,4.85,10.08,5.49-7.65-5.7-12.71-11.96-14.38-19.76-.68-3.2-3.58-3.24-6.77-2.49-.4,1.05-.8,2.11-1.24,3.26-2.9-1.75-2.66-3.04,.15-4.1,2.07-1.87,7.53,1.34,8.12-3.28,.03-.2,2.87,1.47,2.74,2.95-.27,3.02,1.09,4.58,5,3.71,3.78-.85,3.47,1.78,4.35,3.06,2.91,4.2,5.7,8.38,12.06,9.93l-.06,.05c-2.66-3.23-6.08-6.06-7.99-9.68-.38-.38-.76-.76-1.14-1.14-3.58-3.9-6.89-7.9-7.78-12.82-.43-.29-.76-.62-.14-.97,.06-.03,.47,.33,.71,.5,2.89,4.05,5.78,8.11,8.67,12.16,.29,.43,.58,.86,.88,1.29Zm-27.55,22.75c-.54-.59-1.07-1.17-1.61-1.76-2.82-3.23-6.7-6.47-4.01-10.66,1.05-1.64,1.56-2.66,.78-4.34-.65-1.42-.57-3.08,1.29-4.02,2.17-1.09,4.14-.57,5.94,.73-1.2,1.78-5,.33-4.78,3.31,.35,4.76-2.27,9.72,1.85,14.18,.63,.5,1.26,1,1.89,1.5,.47,.92,2.82,1.63,1.17,2.68-.91,.58-1.88-.83-2.52-1.63Z"/><path class="cls-1" d="M73.78,70.83c-.01-2.83-.37-5.69,.08-8.47,.36-2.25-1.48-6.18,4.87-5.43,.51,.06,.62-2.21,2.76-2.56-.74,5.15-3.02,10.09-2.11,15.36,4.03-8.86,3.6-19.51,16.46-24.65-7.66,10.7-13.67,21.56-8.41,35.49,0-4.31,.06-7.31-.01-10.31-.2-8.09,3.51-14.94,10.45-20.78,3.14-2.64,5.87-5.68,11.61-3.92,1.99,.61,5,.59,4.17-2.52-.35-1.3-1.04-2.75,1.42-3.2,2.4-.44,3.96,.38,5.03,2.14,2.21,3.61,9.28,5.45,13.81,3.71,1.48-.57,2.19-1.48,2.2-2.77,.02-2.1-1.33-4-3.73-4.08-5.37-.16-8.37-4.79-14.07-4.21-1.09,.11-2.63-1.02-3.57-1.86-3.19-2.81-6.04-5.96-11.34-2.11-.68,.49-2.88,.01-4.18-.4-9.97-3.2-15.59-3.37-24.34,6.99-2.98,3.53-6.08,7.12-9.32,10.37-8.05,8.06-6.37,16.89-5.19,25.78,.94,7.13,4.36,13.65,9.71,21.03,.05-6.76-2.74-11.64-4.33-16.69-2.6-8.25-.55-16.2,2.4-24.05,.87-2.32,2.85-4.46,5.6-5.91,4.49-3.44,9.2-6.64,15.89-7.82-4.75,3.04-9.5,6.09-14.26,9.13-6.34,6.72-5.91,14.21-4.03,21.87,.81-.04,1.62-.09,2.42-.13Zm3.27-17.72c.19,.29,.5,.57,.5,.83,0,.28-.32,.56-.5,.85-.18-.27-.5-.53-.5-.8,0-.29,.31-.57,.5-.88Z"/><path class="cls-1" d="M182.14,29.32c.13,2.49,2.07,3.51,4.91,3.45,3.1-.06,5.3-1.39,5.2-3.92-.11-2.74-3.06-3.36-5.8-3.42-3.09-.07-4.27,1.63-4.31,3.89Z"/><path class="cls-1" d="M84.36,2.64c.25,1.86,1.78,2.4,3.9,2.45,2.19,.05,3.67-.39,3.56-2.44-.08-1.5-.66-2.57-2.82-2.64-2.42-.08-3.93,.83-4.64,2.64Z"/><path class="cls-1" d="M103.68,18.81c2.99,.04,4.24-.84,4.39-2.57,.14-1.5-.8-2.57-2.71-2.74-2.36-.21-3.28,1.02-3.46,2.66-.15,1.43,.29,2.6,1.77,2.65Z"/><path class="cls-1" d="M224.75,113.92c5.37,1.13,10.49,3.19,16.5,2.15-5.52-1.06-11.03-2.12-16.55-3.17,.02,.34,.03,.68,.05,1.02Z"/><path class="cls-1" d="M224.75,113.92c-.02-.34-.03-.68-.05-1.02-4.71-2.24-10.15-2.71-15.3-3.9-.41,.98-1.59,.8-2.49,1.05,5.71,1.95,11.87,2.63,17.83,3.87Z"/><path class="cls-1" d="M270.58,109.54c.52,.31,.92,.62,1.4,.78,.27,.1,.68-.04,1.03-.08-.42-.29-.79-.64-1.27-.85-.23-.1-.65,.07-1.15,.14Z"/><path class="cls-1" d="M100.59,101.89l.34,.69c.85-.65-.18-.46-.44-.62,0,0,.1-.07,.1-.07Z"/><polygon class="cls-1" points="44.85 109.85 44.98 110.12 44.79 109.9 44.85 109.85"/><path class="cls-1" d="M382.16,100.67c-.94-.97-2.3-1.03-3.68-1.06-.19,.14-.38,.29-.57,.43,.77,1.07,2.29,.94,3.48,1.35,.25-.25,.5-.49,.77-.73Z"/><path class="cls-1" d="M138.52,68.92c.3-.11,.61-.21,.91-.32-.9-.8-.65,.13-.86,.36,0,0-.05-.04-.05-.04Z"/><path class="cls-1" d="M378.48,99.61c-.43-.1-.87-.2-1.3-.3,.24,.25,.49,.49,.73,.74,.19-.14,.38-.29,.57-.43Z"/><path class="cls-1" d="M28.45,85.81c-.25-.18-.66-.54-.71-.5-.63,.35-.29,.67,.14,.97,.2-.15,.39-.3,.58-.46Z"/><path class="cls-1" d="M139.24,79.65c-3.45-2.25-1.18-6.07-4.04-8.76-1.89,4.29-.87,6.6,4.04,8.76Z"/><path class="cls-1" d="M133.52,79.07c-.97-3.36-.97-6.08-3.14-8.42-.85,2.88-.73,5.58,3.14,8.42Z"/></g></g></svg>