<?xml version="1.0" encoding="UTF-8"?><svg xmlns="http://www.w3.org/2000/svg" xmlns:xlink="http://www.w3.org/1999/xlink" viewBox="0 0 5102.4 5102.4"><defs><style>.ae{fill:none;}.af{font-family:TsukuAOldMinPr6N-L-83pv-RKSJ-H, FOT-TsukuAOldMin Pr6N;font-size:62px;isolation:isolate;}.ag{letter-spacing:-.08em;}.ah{letter-spacing:-.08em;}.ai{fill:red;}.aj{fill:#0f3e69;}.ak{fill:#101315;}.al{letter-spacing:-.12em;}.am{letter-spacing:0em;}.an{clip-path:url(#v);}.ao{clip-path:url(#u);}.ap{clip-path:url(#t);}.aq{clip-path:url(#y);}.ar{clip-path:url(#x);}.as{clip-path:url(#w);}.at{clip-path:url(#f);}.au{clip-path:url(#e);}.av{clip-path:url(#d);}.aw{clip-path:url(#n);}.ax{clip-path:url(#m);}.ay{clip-path:url(#l);}.b`{clip-path:url(#k);}.ba{clip-path:url(#j);}.bb{clip-path:url(#i);}.bc{clip-path:url(#h);}.bd{clip-path:url(#g);}.be{clip-path:url(#s);}.bf{clip-path:url(#r);}.bg{clip-path:url(#q);}.bh{clip-path:url(#p);}.bi{clip-path:url(#o);}.bj{clip-path:url(#ab);}.bk{clip-path:url(#aa);}.bl{clip-path:url(#ac);}.bm{clip-path:url(#ad);}.bn{clip-path:url(#a`);}.bo{letter-spacing:-.5em;}</style><clipPath id="d"><rect class="ae" width="5102.4" height="5102.4"/></clipPath><clipPath id="e"><rect class="ae" width="5102.4" height="5102.4"/></clipPath><clipPath id="f"><rect class="ae" width="5102.4" height="5102.4"/></clipPath><clipPath id="g"><rect class="ae" width="5102.4" height="5102.4"/></clipPath><clipPath id="h"><rect class="ae" width="5102.4" height="5102.4"/></clipPath><clipPath id="i"><rect class="ae" width="5102.4" height="5102.4"/></clipPath><clipPath id="j"><rect class="ae" width="5102.4" height="5102.4"/></clipPath><clipPath id="k"><rect class="ae" width="5102.4" height="5102.4"/></clipPath><clipPath id="l"><rect class="ae" width="5102.4" height="5102.4"/></clipPath><clipPath id="m"><rect class="ae" width="5102.4" height="5102.4"/></clipPath><clipPath id="n"><rect class="ae" width="5102.4" height="5102.4"/></clipPath><clipPath id="o"><rect class="ae" width="5102.4" height="5102.4"/></clipPath><clipPath id="p"><rect class="ae" width="5102.4" height="5102.4"/></clipPath><clipPath id="q"><rect class="ae" width="5102.4" height="5102.4"/></clipPath><clipPath id="r"><rect class="ae" width="5102.4" height="5102.4"/></clipPath><clipPath id="s"><rect class="ae" width="5102.4" height="5102.4"/></clipPath><clipPath id="t"><rect class="ae" width="5102.4" height="5102.4"/></clipPath><clipPath id="u"><rect class="ae" width="5102.4" height="5102.4"/></clipPath><clipPath id="v"><rect class="ae" width="5102.4" height="5102.4"/></clipPath><clipPath id="w"><rect class="ae" width="5102.4" height="5102.4"/></clipPath><clipPath id="x"><rect class="ae" width="5102.4" height="5102.4"/></clipPath><clipPath id="y"><rect class="ae" width="5102.4" height="5102.4"/></clipPath><clipPath id="a`"><rect class="ae" width="5102.4" height="5102.4"/></clipPath><clipPath id="aa"><rect class="ae" width="5102.4" height="5102.4"/></clipPath><clipPath id="ab"><rect class="ae" width="5102.4" height="5102.4"/></clipPath><clipPath id="ac"><rect class="ae" width="5102.4" height="5102.4"/></clipPath><clipPath id="ad"><rect class="ae" width="5102.4" height="5102.4"/></clipPath></defs><g id="a"/><g id="b"><g id="c"><g><g class="av"><path class="ak" d="M489.3,4181.1c1.1,2.5,2.3,5.6,3.6,9.6,1.8-.4,5.4-1.4,6-1.9-2-1.4-5.1-2.8-4.9-6.7,13.3-1.7,2.9-7.5-4.7-1Z"/></g><g class="au"><path class="ak" d="M527.2,4141.7c1.4,.7,5.2,.6,3.4-2.3-.4,.6-.8,1.3-1.2,2-1,.1-2,.3-2.2,.3Z"/></g><g class="at"><path class="ak" d="M1349,3923.8c-1.1,2-1,4.2,.8,6.6,4.2,.1-.7-4.8-.8-6.6Z"/></g><g/><g class="bd"><path class="ak" d="M2420.2,3893.9c-.7,.7-2.3,3-1.8,3.5,.6,.7,1.8-.5,2.3-1.6,.7,.1,1.8-.1,1.8-.2-.2-.2-1-.7-2.2-.7l-.1-1Z"/></g><g class="bc"><path class="ak" d="M2012.6,3525.8c-.1,4.4-2.9,9.2-4.6,12.9,8.4-5.8,3.7-8,19-7.6-.4,1.2-1.5,2.7-2,3.1,.5,.1,1.9,.2,2.8,.3,2.4-8.6-7.8-5.4-13.3-5.9-.8-.9-1.4-1.9-1.9-2.8Z"/></g><g/><g class="bb"><g><path class="aj" d="M722.1,4876.1c6.2-45.4,77.4-98.1,11.5-137.7,13.3-35.7-22.7-13.7-28.7-40.3,37.8-29,24,7.5,48.2,10.1,18.8-30.5,19-37.8-15.4-42.4-17.8-29.1-40.1,49.7-49,65.7-.4,3-2.9,53.9,38.5,61.9-6.3,13.9-.1,26.4-20.9,30.2,2.3,4.2,.6,5.1-8.8,.1-8.7,0-17,5.8-15.6-9.1-1.7-34.1-95.8,8-80.8-34-12.2,3-15.6-8.4-1.8-6.5-.3-3.7-2.7-3.5-5.8-4.3,1.7-1.8-.9-5.1-.7-2-3.1,6.6-13.3,.9-3.9-3.4-9.1-2.7-3.9-6.2-8.3-10-10-.8-10.9-1.5-11-2.4,1.1-3.2,15.9-4.4,14.6-9.5,53.3,38.5,63.4-70.3,21.3-85.4-9.8-4.3-14.6-7.9-16.2-12.2-1.8-5,.8-10.5,4.9-18.8,2.8-5.6,6.2-12.6,9.1-21.5-2.7-18.2-19.1-23.4-4.2-43.1-1.5-.5-3.1-2.2-4.5-2.9,0,.1,.1,.9,.2,1.3-3.5,.9-3.5-.1-4.9-1.9-.9-4.7-10.4-1.9-7.9-8.6-11.4-2.1-8-12.8-11.2-20.7-7.2-.2-1.8-4.9,1.7-6-4-13,3.2-5,11.6-7.1,.1-7.9,15.8-25.8,9.4-3.6,11-11.3,8,7.4,1.5,17.5,20.1,2.1-4.2,8-2.4,16.9,23.4-16.8,23.9,8,47.1-6.4,2-16.8,4.4-30.9,21.8-29.9-6.9-5.7,5.7-10.6,3-17.2,5.2-.5,7.2,1.8,11.2,.4-13.9-9.1,6.7-19.2,6.2-29.8,29.5-8.5,5.7-23.5,7.7-41.6,56.6-38.4,7.1-37.6-21.2,1.9l.1-1.6c.5-7.2,0-8.9-.2-9.2-1.3,1.2-3.4,8-4.4,10.7,11,6.9-5,27.8-9.4,39.5,18.9-4.6-2.1,23,.5,2.9-1.6,.4-2.9,3.8-3.7,.1-9.7-.2-12.9,17-14.6-.7-10.6-1.1-18.9-5.6-28.7,2.3l-.7-.7c7.5-14.5-19.4-11.3,3.7,5.9-12.7-.2-8.2,11.6-16.6,17.5-1.9-.9-7.8-3.8-8.6-3.5,5.1,13.7-6.4,8.1-10.7,15.8-.7,1.4-1.5,2.8-3.7,3.1,8.7,5.1-9.5,6.2-5.1,11.9-6.1,4.4-15.1-1.3-13.7,8,10.4,1.6,1.3,13.7-.9,5.1-6.3,2.6-15.1-13.8-8.6-18.4-15.6-4.9-10.3-11.7,4.1-20.9-33.7-13.6,22.7-50.5-1.6-69.6,9.8-6.7,6.6,.2,10.9,4.9,1.1,.6,2.7,.6,5,0,23.7-20,40.7-11.9,39.1,18.8,14.4-5.7,21.2-16.5,37.5-20.5,4.9-4.7,18.2,8.4,20.8-2.6-4.5-.3-11.2,.4-11.4-4.3,6.4-1.9,5.5,.8,5.8-6.9,1.4-.5,2.7-1.4,3.5-2.6-32.7-1.4,61.7-33.6,52.2-50.5-6.7-2.5-15.8-6-2-7.7-3.3-32.6-49.5-24.7-47.9-63.3-20.7-.4,14.6-26.2-9.6-29.6,0-2,.7-3.9,1.2-4.3-.9-.3-1.7-.5-2.9-.9-3.5-10.3-14.7-10.1-27-10.3,.6-5.8-3.6-10.2-12.5-13.7-2.5,14.6-21.6,15.4-26,26.4-.6,3.2,1,7.3,5,12.6,30.7,31.9,13,40.1-18.5,57.5,23.1,10.5,28.5-1.7,48.7-3.9,37.6-7.1,29.1,46.2,23.5,61.7-19.4,5.7-24.2,7.7-36.5,19.1-13,10.4-34.2-12.3-27.5-27.1,5.6,2.9,9.9,4.9,11.4-3.2,18-4.8,8.5-10,3.7-20.6,10-7.2-20.7,.8-22.6-4.5-52.2,17.2-45.9,35.4-85.8,64.1-10.4,2-13.4,1-13.7-.1,.8-7.6,25-20,22.6-30.9-10.4,3.2-14.3-4-17.7-11.7,11.4,.5,9.1,12.3,21.7,1.8,15.3,.9-46.8-40.4-46.3-51.4-.2-4.8-1.1-8.1-2.8-9.4-9-3.3-17.6,7.6-18.3-10.6,19.8,7.1,7.5,3.7,11.6-11.8,9.2-2.4,5.1-12.6-3-11.3-2.1,9.3-38.8,12.4-15.2,4.7-10.9-5.9,14-6.2,10.4-16.1,16.2,3.5,13.6,14.6,19.2-9.6-13.8-8.7,4.6-8.1,2.1-17.1-10.3-1.4-12.6-1.3-9.9-10.1-3.4,1.4-7.9,2.5-7.5-2-9.4,.5,.5,16.7-11.4,13.8-1-5,1.2-12,1.8-17.2-15.9,3.5-7-29.6,1.9-20.1-.5-8.7-5.6-9.7-9.9-17.5,6.4,.9,5.3-4.9,4.5-9.6-1.9,5.2-3.4,11.7-11.3,13.7,9.3,4.2-1.3,6.4-5.1,8.6-1.6,16.3-14.9,36.3-39,38.6-13.9-8-5.7-5.2-4.1-15.4,3.7,3.1,10.4,8.7,11.7,8.8,.2-.3-1.4-3.9-6.1-11.3,2.5-4,8.6-4.9,12.3-5.6-1.5-.4-3.4-.7-4.7-.9,3.9-14.6,12.9-14.5,9.6-32.4,4.2,2.2,26.1-6.2,30.2-8.6-.5,0-3.5,.4-6.9,1.2-3.7-10.5,15.7-14.2,12.6-1.2,14.8-1.9,7.9-5.3,16.7,5.3,10.3-.6,8.7-18,19.6-6.5-10.1,13.2-1.2,3.3,1.6,9.9,11.4-.7,22.4-11.7,28.2,1.1,3.2-5.6-7.6-22.5,2.6-19-23.1-30.6,13.8-10.7,2.6-32.4,2.7,0,5.4-.5,7.8-1.5-6.6-16.7,11.2,3.4,5.9-15.2l.9-.3c5.5,11.4,32.7,10.1,22.5,27.5,13.2,4.5-.9,15.1,22.4,10.5-5.9-23.7,28-11.2,23-24.2,5.5-2.2,9.3-3.9,10.1-4.4-6.3,.7-18.6,2.3-9.3-5-19.5,1.3-8-12.3,7-9.9-.5-15.3,10-6.7,15.3-18.5-5.9-10.8,20.9,3.8,6.8,7.3,.4,9.4,17.6,2.8,11.9,14.4,16.3-5.2,36.9,1.2,35.4-23.3-6.1,.2-23,14.8-21.5-.6,8.9,2,54.1-28.8,32.7-35.5-5.9-16.4,17.6-7.4,5.7-26.2l.8-.6c7.1,7.1,19.3,3.7,14.2-7.2,55.4,11.4,19.6-9.7,65.8-15.5,9.2-5.8,18.1,.3,25.9,5.8,13.9,11.1,22.7,9,29.1-9.8-7.6,3.2-3.9,19.3-16.9,15.4-1-10.1-8.6-5.3-7.7-15,21.8,8.4,8.9-41.3-3.9-42.3,1.3-11.7,3.2-13.7,6.7-13.7,14.4-2.3,15.5-20.2,6.8-31.1-5.4-8.8-11.2-19.9-1.5-36.2,8.8,9.7,25.9-2.5,37.2-4.7-8.2-5.3-31.1-3-18-17.7,14.5,9,31.9,2.3,46.5,8.9,4.1,6.1,8.5,17.9,14.3,5.8-24.1-12.1,26-20.2,20.6-7.4,13.8,5.9-24.3-4.6-12.4,11.4,4.4-9.7,16.2-.2,22.9-2.9,8.8-2.3,5.3-2.9,6.5-6.6,.4-.8,2.9-1.9,9.3-2.1,22.8,.9-.1-19.7,16.9-10.5,19.9-19-5-20.8,23-27.6,19.8-4.1,3.8-26.5,25.9-24.5-12.6-21.5,38.2-10.4,46.8-18.9,38.6-11.4,44.6-42.6,76.5-58.9,1-10,44.9-44.9,71.1-53.9,23.2-28.9,42.4-57.5,84.4-67.7,15.2-17.8,25.5-30.3,8.7-38.6-2.3-1.1-4.1-2-4-3.5-.1-3.3,12.1-9.4,64.6-30.9,9.8-.2,34,4.6,27.9-8.8,18.1,3.3,13.7-.4,25.1-4.9-4.9-12.4,14.6-1.7,7.4-14.4,4.8,2.1,20.8,2.9,11.5,9.5,20.1,7.7,36.2-11.6,57.8,7.3-22.4,2.7-27.2,14.8-5.9,23.5,51.8,18,38.4-30.7,99.1-11.3,7.5,1.8,15.2,3.7,22.6,4.3,45-3.1,69.2-9.1,115-10.4,43.9-11.3,68.3-42.7,121.3-38.2-.5,11.5,22.8-11.7,24.7,.8,6.4-8.4,9.5,2.6,20-7.1-6.2,11.3,31.6,.6,31.9,9.6,25.2-3.7,42.2-21.7,64.4-31.1,23.3-14.3,55.1-.5,50.5,28.8-11-3-14.8,1.1-15.3,13.7-6.8,.7-18.5,13.1-15.6,21.4,6.6-6,8.5-15.8,19.4-19,1.1,6.1-8.6,11.7,3.7,10.6,2.4,5.8-7.3,6.1-11.2,7.6,.7,.5,5.1,1.7,11.2,2.9,4,13.7,9-.1,14.9,4.3-2.6-11.6,15-12,24.5-14.7,1.5-9.5,13.6-13.1,17.3-8.6,.1,1.1-1.7,2-5.2,2.6-8,6.1,2.7,6.6,8.1,7.8-.2,4.4-6.9,9,.4,10.1-3.5-8.3,5.8-9,9.2-4.6-3,7.2-6.5,15.8,3.1,16.9,17-12.9,61.1-24.7,18.3,.6,8.6,6.3,19.2-5.8,27.9-.6,9.8-4.5,11.8-6.8,11.7-7.9-.1-1.4-3.8-2.3-7-3.2-8.3-1.7-13.5-5.2-5-11.4,13.3-10.8,17.9,9.4,28.3,8.5,3.9,.1,6.9-.1,4.3-4.2-8.9-3.9-9.8-5.5-2.4-6.4,6.1-.6,13.2-2.4,8.1-9.2-22.1-11.8-4.8-19.8,7.8-3.2,3.6-12.1,20.2,9.5,18.9-8.2,4.1,1.1,9.4,2.5,9.6,2.1-2.2-5-6.3-10-2.4-21.3-18.7,6,19.9-36.9,20.6-9.7-.5,17.3,1.1,21.3,2.6,21.6,31.8-23-15.3-69.3-28.5-96.2,2.1-6.1,4.7-12.1,11.9-12.7,5.5-3.6,5.6-27.8,13.4-27.8,18.4-11,16.3-53.8,36.5-48.6,70.6-58.7,184.5-143.6,153.1-247.3-9.8-4.8-1.2-18.9-2-27.7-39.4-1.2,11.9-43.9-2.1-61.4,7.8-4.4-1.7-9.9,9.8-5.7,4.5-16.9,42.8-17.6,54-17.2,24.1-16,58.2-30,88.3-41.6,26.4,.5,20.6,12.4,27.4,28.4-9.4,9.2-19.6-.7-29,7.2-14.4,12.2,9.5,24.5-2,38.4-48.1-13.4-54.4,66.9-84.8,22.6-7.4,2.2,.2,11.9-9.1,10.4-20.2,27.9,10.1,6.2,26.4,17.9,11.8-18.8,12.2-5.9,12.2,8.2-17.4-3.6-44.8,17.6-14.3,16.3,11.3-34.5,19.8,1.1,14.3,19.7-8.6,24.6-14,42.9-6.3,54.5,7,10.5,24.8,15.8,59.5,17.8,30.2,3.2,36.7-12.8,43.6-29.7,7.2-17.7,14.7-36,48.3-36.2,160.2-47.3,294.2-100.7,338.9-256.7,85.8-75.6,187.8-69.4,182.9-215.8,16.8-77,77.6-58.7,99.2-169.9,5.1-18.1,9.9-35.2,16.8-49.8-3.5-13.9,.1-18.5,2-28,45.3-24.7,73.1-250.7-22.6-193.5-6.8-8.4-14.9,1-21.4-3.8-3.7-9.9-18.6-22.6-8-31.7-7.9-9.9-9-12.4-8.1-13.5,12.4,.8,36.8,21.2,48.7,4.6,54-51.3,34.6-120.6,21-185.2-29.5-18.9-27.6-21.4,1.7-40.4,2.9-3.2,5.1-7.6,7.5-11.6,6.8-11.8,13.9-24,27.9-19.9,5.7,6,15.8,6.1,27.6,.4,15.5-7.5,31-24.2,29.1-38.1,7.4-25.2,22.2-72.3-11.1-82.8l.3-1c30.6,9.1,18.7-29.3,29.4-42.9,10.5,.8,23.6,28,39.2,25.5,7.1-9.6,13.7-17.1,23.5-12.1,40.8,14.2,8.4,95.8,34,120.5,23.2,18.4,44.9-5.2,45.7-27.6-19-1.1,10.1-13.3-.4-25.5,38.9,5.3,37.8,46,79.3,45.3,13.5-19.1,56-101.5,9.5-127.6-4-8.8-21.2,16.8-4.4,3.5-4.2,18.2-23.1,11.6-29.5,26.3-25.6-11.3-30.9,6.2-53.8,5.1-72.4,51.3,10.4-122.8,15.3-128.3,7.9,20.9,30.8,18.8,48.1,24.9,20.2,17.4,27.8,39.8,62.3,39.8,6.7-1.9,14.8-8.5,22.4-13.9,9.4-6.9,14.8-10.7,16.7-9.2-21.7,79.3-33.2,153.6-20.2,199.8,22.9,91,98,103.6,112.6,202.2,2.8,8,16.2,9.9,21,17.1,7.4,7.7-20.5,10.1-11.5,17.4,6.1,24.1,42.2,25.6,34.3,55.2-6.2-7.7-1.1,12,.1,14.3,9.4,7.7,17.8,41,4.7,50.8,7.8,4.2-4.7,13.1,3.2,13.3-2.4,6.2,3.7,16.5-6,18.2-1.7,6.2-3.1,11.7-3.4,13.7,4.8-6.7,10.7-16.8,20.9-22-6.3,26.7,14.8,22.7,9.2,46.9-9.7-7.6-11.5,6.4-13.4,13.7-16.8-6.8-21.7,12.2-4.5,5.9,8.4-10.8,16.1-15.7,15.8-2.4-.7,6.9-5.1,23.3-11.8,15.8-2.1,2.1-5,10.4-6.1,2.9-4.5-9.4-11.4,4.9-10.9,8,12.3-1.5,.8,14.5-6.1,11.4-2.7-4.2-4.2,3.6-7.7,3.5,7.8,3.1,19-6.8,27.9-6.2-5.5,16.5-15.6,14-28,17.9,12.7,4.9,7.9,10.2-2.2,10.8,6.2,6.1,8,6.8,12.2,4.3,25-1.4-8.8,16.6-16.5,18,4.3,1.8,6.1,3.6,13.2,.9,1.8,16.4-22.9,9.2-21.2,16,12.9,6.4,30.6,13.2,5.5,19.9l-.4-.9c5.6-3.3-11.1-7.1-13-7,.1,0,.5,.3,.6,.3-9,11.1,19.5,4.8,13,16.2-5,.5-8.1,.8-10.5,1,3.1,.8,8.1,3.8,6.8,9.6-33.4-10.3-24.1,12.2-38.4,8.7-2,7-4.9,7.5,4.1,9.4-3.3,20-22.6-.7-16.6-11.5-35.2-10.9,29.1,72.5-12,37.4,2.7,6.4,6.2,18.3-4.9,16.5-1.3-3.7-2.3-6.8-3.1-9,.5,5,1.6,12.5-3.9,12.5-.8,2.5-.1,4.8-4.1,5.1-33.2,15.1,11.5,14.6-2,38.7-11.3-19.3-11,8.2-30.4,4.7-1.1,11.9,52.1,7.6,5.8,27.6-3.9,12.1,11.1,14.2,19.9,8.9-2.5,4.7-3.7,5.6,1.3,7.8-2.5,25.5-5.3,12-17.5,5.1,7,8.1,10.4,31.6-6.9,24.1,2.1,3.7,6.6,6.2,4.2,11.3,12.6-6.4,29.3,7.2,6.9,8.7,14.7,3.2,11.5,48.8-.9,26.6-1,1.4-2.7,.9-4.7,1.7,6.6-10.3-9.7-1-9.1-11.6,1.4-.4,4.5-1.2,5.2-1.8,.2-.1-1.9-.7-3.4-.9,2.7-6.8-7.7,.4-11.4-3.6,0-8.3,7.9-7.2,2.8-9.9-1.2,3.6-3.7-.1-2.7-2.8,3.8-2.7-1.3-2.6-3-4-1.2,8.7-16.6,5.6-10.8-4-8.8-2.7-17.4,5.7-24.3,.2-34.7,.3-21.5,31.3-34.7,27.6-2.3-3.2-8.6,2.3-9.9-1.6-5.4,4.1-16-3.3-3.5-6.2,1.7-3.3,7.6-6,8.6-.9-1.1,.2-2.7,.5-3,.7,.7,.2,2.2,.3,3.7,.2-2.4-15-6.4-5.8-16.4-9.4-14.7,27.8-2.6,7.1,2.2,22.2-98.7,93.6,30.3,291.5-26.9,414.9-3.8,9.5-15.4,13.8-26.6,18-17.9,5.9-31.4,13.9-21,32.5-22.7,3.7-23.9,36-25.2,51.9-77.4,91.1-19.3,217.7,41.1,301.2-60.2-24.6-155.2,58.8-123.4,115.3-10.6,7.8,1.9,39.9-15.8,40.3-7-2.3-10.3,22.9-15.8,10.5-4.1,.5-4.2,1.7-5.1,5.1-95-8.9-80.2,109.7-138.7,55.5-11.8-5.2-12.6-6.6-12.4-7.6,3.2-3.5,21.8,.1,21.9-7.3,19.4,2.7-.5-9.5-4-15.1,9.5-16.4,6.2-54.1,11.5-74.5-7.7-5.7-13.1-2.1-19.8-9.4,22.2,.8,6.6-19.8,30-17.4,12.8-.5,0-7.9,1.4-15.4,15.9-12.5,35.7-14.8,44.2-36.6,30.2-3.9-24.4-47.9-27.9-35.5h-5.3c6.6,10.7-2.8,12-14.6,13.9-4.4-7.6-6.2-9-8.7-2.6-1.9,5.3-4.2,4.8-6.8-1.1-3.3-3.1-5.3-2.2-2.7,1.6-1,.6-2,1.5-1.9,1.6,3.7,1.3,9,2.2,9.4,10.7-12.5,8.8-17.3-14.1-19.1-7.3,15.2,16.6,6.7,31,3.5,35.4-6.4-1-7.4,1.4-9.4,6.8-3.2,2.8-14.2-2.2-13.3,2.8,4.3,3.8-.7,4.8-4.7,3.2,2.2,3.1,3.2,6.3,.8,11.3-6,3.8-8.5,4.5-10.6,5.2,1.4,2.2,4.3,7.5,5,24.3-1.4,.5-2.7,1.4-3.5,2.6,11.8-.1,7.3,6.1,10.9,12.2,26.1-1.4,7.9,10,10.1,18.6-10.2-4.6-29.8,13.4-11.2,14.5-36.6,38.2-9.8-53.2-53-42.4-12.9-9.9-118.7-2.1-91.4,44.6,1,9.9-6.2,2.3-11.6,2.3-2.4,7.2-12.2,14.4-11.3,22.3-2.3,5.1,17.6,16.7,2.2,20.9,2.9,4.6,2.3,5.5,3.4,9.7,47.4,13.8-45.4,70.5-30.4,96.2-8.9,4.4-18.6-6.8-21.3,8.9-2.3,.1-4.4-.7-4.7-1.1-.3,.8-.5,1.5-1,2.6-15.5,8-35.7,4.9-33.5-17.4-25.6-7.4,9.4-23.6-6.1-38.9,.7,0,2.7-.7,2.3-.7-.6-1.3-3.1-2.8-4-4.2,11.4-9.2,1.7-10.5,2.1-21.1,17.9-7.7-4.7-30.4,8-41.9,11.8,2.3,42,3.6,28.6-7.7-18-29.4-82.1-28.4-98.9,1.6-11.5,12.3,18.7,10.5-7.8,26.2-55.9,10.4-33.5,53.7-76.3,77.9,24.9,68.2-202.3-34.6-297.6,40.2-17-.3-23.1,1.6-35.3,3.6,2-4.9,11.4-31.2,22-28.8,2.9,4.4,5.3,7.2,7.2,7.1,3.9-.4,5.6-8.5,9.9-8.9,18,.9,20.4-13.7,34.1-19,1-2,6.3-7,6.6-1.4,.9,9.6,2.4,10.2,2.5,10.2,6.5-10.8-1.3-40.3-23.5-35.8,1.8,3-21.6,25.1-13,10.5-25.2-.2-40.6,14.6-62.8-15.9,.2-3.5-.1-5.4-.2-5.7-3.6,7.5-5.1,39.1,8.9,45.2-4.3,15.3-52.3-12.7-35.4-27.8,9.1-15.9-15.9-33.9-9.6-50.4,6.7-4.7,13.3-21.9,13.5-25.1-.3,.2-2.4,3.2-5.2,8.6-11.6-4.5-15.3,10.2-25.4-1.9-4.2-1.1-2.9,2.4-5.6,3.6-1.7-1.9-3.6-1.6-7-.3,.9,5.5-3,6-7.3,4.1,4.9,14.5-16.3,7.9-2.2,21.5-7.8,22.9-58.8,59-28.4,80-8.3,5,.7,10.9-7,16.9,34.4-.2,42.9,29.4,75.9,31.3-6.1,9.2,26.4-2,26.6,7.6-7.8,5-7.2,.2-13.2,1.7,5.5,8.6,2.8,8.2,12.9,6.2,9.7,17.3,.2,20.6-7.5,27.6,6-2.4,12.2,6,1.7,6.4-6.3,13,14.4,24-11.4,27.7-5.7,7.4-26.3,.3-27.9-7.9,7.5-1.1,22,6.4,23.1-4.5-.4-.3-.9-.4-1.7-.3,1.9,1,.4,2.5-1.4,2.3-1.6,2.9-5,2-3.6-1-5.2,2.2-11.2,4.1-10.7-3.1-6.3,6.2-8.9-.3-18.3,4-19.9,8,7.6-15.9-1.8-13.9-8.1,13.8-24.2,31.2-34.4,19.9-1.3-1.1-2.4-2.1-3.7-2.4,1.1,11.9-2.8,13.3-11.7,5.6,4.4,18.5-47.9,17.5-59.4,25.4-13.5,13.9,7.8,12.4-.1,28-5.7-2.6-16,3-16.1-6.6-4.5,4.2,3.8,7.2-7.6,8.1,11.9,7.8,20.5,12.4,18.2,33-11.1,3.8-13.7-2.1-16.3-5.7,.1-.2-.7,1.1-1.1,2.4-.6-.1-1.4-.1-1.7-.1,1.4,1,4.8,2.5,5.7,2.7-1,12.2-2.2,14.9-8,9.6-.2-.1-.2,3,.4,7-32.1-1.4-59.5,57.3-57.5,79.8-24.8-3.6-2.3,8.2-11.9,8.6-13,7,8.4,2.9,4.1,12-15.2,12.7-53.4,20-47.7,43.6-2.2,.1-4.6-.7-4.9-1.1-.3,.8-.6,1.7-1.1,2.8-17,0,3.7-8-2.5-13.9-58.3-.5-98.3-22.1-120.6-60.4,.4-5.3,14.5-5.6,17.3-8.7-19.6-21.2-44.6-17.3-63.7-42.3-1.4-21.4-32.3-.1-28.6-20.5,.5,1.4,7.4,5,7.5,1.4-2.8-2.5-10.5-8-2-7.7-1.5-29.9,15.8-10.8,20.9-29.9-2.4,.3-1.9-3.2-1.8-5.5-18.8,1.9-18.7-25.6-2.2-18.9-1.3-7.1-4.3,1.4-5.6-6.4,47.2,2-18.9-32,.3-29.6-1.6-6.4-21-3.2-14-16.2-33.3,2.9,79.8-27.6,77.1-56.5,10.5-2.5,4.9-8.6,5.8-15.8,20.3,.9,9.7-37.4-.7-37.4,3.1-2.3,10.2-7.5,11.6-8.7-4.6,1.6-13.8,2.3-14.7-5.2-15.3-9.3-13,10.9-28.9,7,1.4-9.1-1.5-7.7-6.4-2.3,11.9,7.5,4.5,14.2-7,9.1v-.4c.4-6.5-.5-7.1-.5-7.1-.4,0-2.1,4.1-2.4,9.3-38.9,12.2-84.3-3.7-106.3-24.3-16.6-15.7-41.1-13-62.7-10.7-14,1.5-27.3,3-36.2-1.1-1.5,8-13.1,20.5-19.9,8.5-15.2,.7-4.5,6.4-11,15.7-9.1-4.2-12.7-6.1-18.5-2.3,11.5,11.6-24.8,6-23.5,15.2,12.5,5.5-7.6,4.3,7.7,10.4,2.1,7-13.1,6.8-12.8,.4-20.1,21.2-28.3-5.7-48,2.6,7.7-1.2,18.5-1.5,16.8,8-5,4.9-4.1,8.6-12.9,10.5,6.7,7.8-1.8,11.7-5,2.1-14.1,7,15,9.8,10.3,31-7.3,.4-10.8-11-18.2-6.6,.4-8.2-3.2-12.7,9.6-8.4-3.2-8.9-17.4-.1-10.2,7.8-10.2,8.6-37.7-15.7-36.7,3,6.9,7.1-15.2,2.5-12.5-3.2-7.9-21.6-19.1,15.2-19.1-19-3.8,7.1-12.2,15.2-9.7,.6-19.9,5.9-13.8,17.8-37.1,15.5,1.6,5.9-3.9,5.6-7.8,3.7-.2,6.5-7.9,5.5-10.9,.8,3.4-1.5,5-3.1,4.7-3.1-3.8-.2-11.5,3.3-11.1,10.5-3.9,1.5-5.7-.9-7-2.5,0-.1-.6,1.7-.8,2.7-5.5-1.5-6.7,2-6.9,7.1-.3,3.9-.7,8.3-4.8,10.1-16,9.3-26.4,10.9-29.6,8.3-3.4-5.1,5.3-8.5,15.9-9.2,4.1-1.2,4.4-1.9,4.5-1.9-3.2-2-25.8-2.2-25.9-5.3-30.7,20.9,1.3,12.5-11.2,27.4,9.9-2.4-6.6,10.9-2.4,12.8-.4-5.7,8.4-12.3,12.9-9.1,2.8,3.6-5.3,8.8-6.7,11.9-3.9,5.1-7.2,9.6-14.4,5.8,1.6,6.8-14.5,3.9-7.7,11.3-3,2.3-9.7-2.3-11.7-.4,1.8,1.2,1.2,1.7,2,4-.5,.2-1,.4-1.6,.7,3.9-.6,8.7-1.2,7.2,2.9-10.5,6.3-17.2,21-31.8,19.2,5.9-10.7-10.8-18.6,9.2-15-8.4-11.1-1.1-16.4,11.3-10.9-10-13.2-27.5,3.6-39.6-1.2,2,2.7,3.2,6.7-1.4,6.3-9.5-13.5,23-18.9,13-35.4,19-10.9,16.5,8.5,25.2,16.3,1.1,.4,2.5,0,4.1-.9,12.6-3.3,5.2,11.5,18.7,3.7-.5-1.3-.6-2.5-.6-3.4-.1,.2-.3,.5-.4,.8-12.3-3.8-4.2-9.5,3.4-12.3-2.4-2,.1-3.1,3.2-2.7-5.9-8-16.5,14.3-28.4,9.6,2.1-7.5-7.2-30.2,8-19.6-6.9-14.6,11.8-21.9,6.6,1.2,2.7-.5,3.7-.5,5.3-.7-.8-1.3-1.9-3.3-2.8-6.1,.4,.1,2.1,0,1.9-.1-2-2.3-2.6-4.2,2.4-3.4,1.1-1.8-1.7-3.9-1.2-1.3l-.9,.4c-8.2-13.9,9.7,2.6,9.6-4.9-5.9,1.3-7.4-2.1-5.5-6.3-4.5,2-4.7,5-11.6,4.5-2.9-3.7-4.1-1.1-6.1,2.7-2.6,5-6.6,12.5-16.6,11.2-13,1.1-29.1-1.9-41.8,5.1-5.7,17.5-20-12.2-22.7,9.1,2.7-1.8,11.3,1.3,5.5,3.1-1.6,7.6-19.6-8.8-13.5,2.6,22.5,1.5-12.2,10.1-18.1,11.1,8.2,5.5-4.4,4.3-9.1,4.4,.2,.1,.6,.3,.8,.4-4.5,8.2-15.8,.9-19.5-3.7-.5,9.2-19.5,6.7-8.9,16.5-18.2,0,1.8,3.5-6.1,16.6,2.9-1,10.8-9.4,11.2-3.4,7.7,8.8-34.6,43.3-10.8,10.8-9-4.4-32.6,12.6-26.5-9.2,3.1-1.2,10.9-4,12.6-5.2-10.6-.4-36.2,3-31.6-14.3,27.4,15.8,17.1,5.2,4.5-9.8-18.1-18.5-3.5-13.5,12.3-13.8-11.2-13.5,19.2-11.3,18.5,0-8.2,18.4-5.6,23.2-4.4,23.7,8.3,1.5,15.5-13.9,9.5-21.3-7.6,3.4-4-6.8-2.3-9.3-14.2-25-47.8-27.3-63.3-1.2,7.5-4.5,17.9-10.4,18.4,3-9.3,12-36.1,23.2-20.9,.7-7,2.1-11,4.3-11.7,14.5,10.3,6.7-.1,7.5-.1,13.8,12.6,6.8,6.5,22.2-7.4,18.4,4.7,22.9,7.6,53.2-21.1,51.9,10.3,49.7,7.5,29.6-27.8,49.8,2.1-5.6,15.8-15.9,8.7-23.5,42.2,15-17.8-27.4-23.3-14-12.2-6.7-3.1-12.3-25.6-19.4-16.2-24.7-18.6,13.7-28.7,.1-18.3-.4,5.2-4.9,3.6-13.1,17.8-2.8-3.3-8.4,3.3-2.8-8.3,2.5-10.7,1.6-6.8-3.8,.1-.6-9.7,3.2-16.7,6.5,10.4-13.5,2.3-15.4-13.8-5.9-13.6-5.7-10.9,7.5-20.6,3.4,4.6,8-4.1,12.3-13.1,12.2,11.6-14.3-17.1,6.8-11.1-10.6-13.9-5.6-6.9,2.7-10.5,10.6-2.4,0-4.3-.7-4.6-1.1-.3,.8-.6,1.7-1.1,2.8-9.7-.4-4.6-4.3-7.7-8.4-4.3,13.8-9.5,5.7-6.5-4.2-5.3-6.5-11.4,32.2-41.9,29.9-2.3-3-2,3.4-5.9-1.9-13.7-10.6-9.7,13.9-22.2-20.4-2.3,4.8-11.1-3.8-10.8-7.6-.3-2.1-1-2.9-8.9-3.2-13.5-13.2-13.9,13.1-24.6,18,23.2-1.7,6.9,11.4,8,23.1,4.4,14.8-16.1,15-11.8,23.8,24.5-.2,13.3,69.5,59.1,57.4,19.2,4.6,55.5,26.9,66.8,7.2,44.1-65.9,117.8,6.6,75.4,61.6-26.2-11.7-5.1,3.2-28.8,17.3-6.9,1.1-29.6-14.1-24.6,1.2,.2,10.5,2.3,17.1,6.6,20.4,15.1,9.9,45.4-14.9,58.4,3.5,21.6,10.2,52.8-17.9,42,5.3,2.3,2.3-1.6,5-7.3,11.4-6.3,6.6-15,15.7-13.4,20.2,3,7.3,24.3-4.5,26.9,1.5,1.2,3.4-10.1,8.7-14.8,10.7,14.7,10.9,21.9-11.5,24.3,6.3,14.3-3.7,10.7-15.4,19.6,6.5-3.7-.6-9.6-3.9-10,1.5-3.5,1.5-16.4-4-15.3,1.2-.1,5.8-10.3,8.5-2.9,11.5,1.5-15.7,19,1.2,0,6.4,.2,.1,1.4,.5,2.8,.9,5.4,11.2,9.2-1.4,15.7,5.6-5.1,5.5,4,2.1,2.6-2.3,10.4,.4-1,6.6,4.3,8.7,22.1-16.1,25.9,7.1,.8,4.6,2.4,6.9-4.6,2.6-6,5.8,17.3-1.1-5,12.6-9.4,17.7,9.4,3.6,2.4-4.1,15.1-.1-.9,9.8-4.4,6.4-9.5,10.8,3.6,4.1-1.6,4.7-5.1,5.9,.2-2.8,.9-6.3-2.7-5.5,2.1,4.6-13.5,18.6-12,7.9-4.4,4.8-8.5-.6-7.3,7.1,5.9,7.6-13,9.4-2.8,20.5-14.1-7.4-15.4,3.6-25.8,7.8,5.5,14.3-24.3,24.6-24.8,36.4,.4,2.8,3.3,5.4,8.9,7.9,12.6,.9-8.4,19.7-12,9.7-2.6-.1-3,.3-3,.3,2.8,2.1,9.1,5.5-.8,3.5,16.4,14.2-3.3,15.6-10.7,28.9-26.3,65.4-49.9,161.6-42.1,211.7-1.3,10.2-21.7,12-13,22.9-9.7,0-11.2,6.8-7.9,15.8-1-.2-2.9-.2-3.3,0,.2,.1,1.4,.5,2.8,.6,10.1,11.1-11.7,11.4-6,15.5,8.8-3.4-1.4,13.4-3.7,13.2-2.9,.7-3.3,1.3-3.4,1.5,1.5,2.1,3.6,3.3-1.6,3.7,16.2,21.8-20.9-.6-28.3,3.6,.7-20.2-19.6-21.9-35.8-26.1-54,31.7,15.5,31.4-5.6,53.8-2.2,0-3.5,.5-3.5,.6,.6,1.1,12.6,3.6,12.4-1.6,11.3,.3,2.3,7.2-5,11.3-34.9,17.7-36.6,47.7-84.2,50.4-1.8,5.5-3.8,5.8-7,5.7-12.8-.5-18.9,16.3-33.7,20.7Z"/><path class="aj" d="M3354.6,1639.5c-86.2-1.9-57.7-77.3-39.1-131.9,23.2,5.6,11.1-21.5,19.8-30.9-15.5-123.3-139.2-57.1-80.5-212.3-28.2-65.7,42.5-37.4,64.4-67.9,23.1,.6,18-45.1,41.2-21.8-1.4,10.3,7.1,10.6,14.9,9.5,1.3-33.1,46-55.4,62.1-79.7,4.4-7.9,2.5-14.3-4.7-19.8-11.6-21.9-22.3-30.7-30.1-37-18.9-13.3-13.7-30.5-10.3-56.9,27.9,11.3,26.7-13.4,38.2-13.1,16,7.4,23.3,24.8,42,29.1-7.5,18.6,45,8.9,35,29.7,27.7,5.4,39.4-11.3,67.8-13.5,6.9,54.3,73.2,22.5,96-4.3,10.7-11.6,16.5-23.5,16.6-33.6,2.7-8.1,3.4-14.7,2.2-21.1-7.5-24.9-19.1-29.6-17.5-69.7-8.5-15.9-11.1-29.4-7.5-40.6,3.9-15.3,26-28.8,41.1-37,14.8-8.7,30.9-16.8,41.1-32.7,5.2-72.1,9.9-151.9,42.2-224,12.3-126.3-89.7-180.2-37.5-304.9,6.1,7.1,16.5,24,25,9.9,28,13.8,32.7-23.9,46-37.7,5.4-3,8.6,1.8,13.2,6.9,43,42.7,86.9,96.3,132.1,152,120.1,151.3,264.7,318.6,463,332.6,43.8,10,32.5,9.7,47,48.4,113.5,70.6,218.1-35.8,283.3-125,26.3,38-19.4,81.7-40.1,114.6-7.8,11.3-16.1,24.5-19,36.7-24.8,43.9-8,78.2,31.6,99.5-.8,.1-2.1,.1-2.9,.2,1.6,63.9,54.6,173.6,119.6,77.6,18.3,.2,74.9-.9,23.9,16.6,2.8,6.4-15.6-1.2-15.6,8.6-10.8-4.5-20.8-.4-22.3,11.2-18.6-1.8-7.6,30.4-22.5,33.5-.5,0-1.6,.9-1.6,2.4,.7,.5,1.4,1,1.8,1.8-12.5-12.5-158.8,15.1-97,32.1-12,7.3-36.8,10.5-39.9,27-9.1,6.8-30.9,8.4-39.6,1.1-4.9-1.3-8.2-3.4-8.9-5.8-1.1-3,1.4-7,1.5-10.3-1.3-7.4-10.6-4.9-17.3-4.8-18.4,18.7-22.5,23.9-3.7,42-25.7-8.8-104,9.7-111-21.3-175.7,7.2-285.6,193.7-307.9,348.8-2.2,4.6-3.6,8.8-7.1,9.4-6.1-3.4-9.7-12.4-14.7-18.3-4-5.4-10.6-13.7-19.8-20.3-63.7-17.6-118.1-48.5-162.8-76.4-156.7-103.7-266.5-182.3-419.4-7.4-5.2-1.7-12.1-7.8-12-13.4,3.4,.4,7.7,4.4,10.9,7.1,10.5-11.5-13-14.6-19.5-18.8,2.9-36.8-37.3-28.4-38.4-59.1-69.9-41.5-143.4,21.8-135.6,98.8,21.5,17,41,18.4,61.6,38.3,4.2,7.3,9.7,11.3,16.8,12.2,17.8,2.4,40.8-16.1,55.9-.2,6.1,24.4,40,33.8,46.1,59.1,24.8,21.1,54.8,12.5,70.2,43.8-76.5,45.2-38.1,23.3-120.9,9.3-5.4,4.2-8.6,6.6-12.2,8.7,7.5-16.8,3.2-27.1-17.3-24.1-19.4,49.6-38.9,27.9-55.1,50-3.8,7-5.3,18.6-4.8,36.5,1.9,5.7-.2,9.4-5.3,12.6-16.8,10.4-53.8,11.9-52.7,38Z"/><path class="aj" d="M2811.5,2806.8c-5.1-.1-10.6-1-6.2-7.9,31.2,1.5,7.8-29,33.1-38.5,9.3-13.9-20.8-23.7-23.7-5-21-30.4,23.4-77.2,50.5-88.9,3.3-11.1,5.3-25.9,20.2-25.6,8.8,33.5-25.1,51.7-19.2,83.6,79.7-16.2-6.3,80.8-38.1,76.5-2.5,4.9-11.5,5.4-16.6,5.8Z"/><path class="aj" d="M1369.6,4364.3c-2.4,0-5.5-.3-9.2-.7-9.8-30.8-31.1-10.7-51-5.5-20.2-9.8-17-20.6-40.2-4-11.6-18.6,55.1-57.3-10.4-44.9-1.9-6.6-11.7-15.2-15.6-5.5-.6-.2-1.1-.4-1.6-.6-.9-3.4-4.7-3.4-5.3,.1-2.8,17.4-8,9.9-15.4-1,10.5-.2,13.5-2.8,5-9.5,15.5-6.4-5.9-12.4,4.3-24-13.2,4-12.7,2.7-25.2-1.8,1,2.9,2.2,6.8-.5,8.8v.1c-1.1,.8-2.4,1.6-3.9,1.8l-.2-.5c.9-.5,2.4-1.2,3.5-1.7-.8-2.2-1.4-5.1-.9-6.6h0c.3-1,.8-1.7,1.6-2.2h0l.4-.2h0c5-2.1,12.1,.3,17.4,.6,4.4,.1,3.1-3.7,.3-5.5-1.7-5.2,2.3-9.2-.6-14.4,3.2,.3,5.5,1.1,7.9-.2,1.9-1.7-.4-3.6-2.4-3.8-3.5-1.1-7.6,.2-11.3-.3l.1,.2-.4,.3c-8.3-9.7,12.7-19.8-12.3-18.8,.7,.6,3.2,3,3.9,3.4,0,.2,.1,.6,.1,.7-5.3,2.6-3.8-4.3-8.1-5.6l.1-.5c6.4,.5,13.5,0,18.2,4.2l.7-1.1c4.5,10.7,18-2,26.2-7.9-2.3-.4-12.6,.5-9.2-3.4,7.2-6.6,9-10.9-3.2-7.7-1.5-6.5-6-.8-8.2,1.8-2.6-8.4,9-13,14.9-15.6l-.8-3c-10.3,.2-26.1,2.4-34.5,.9-8.5-1.9-1.4-10.8,1.6-15.7l-3-1.6c-.4,.7-1,1.4-1.5,1.9-.9-1.7-1.4-4.4-2.1-6.4,8.9-.5,2.7-5.2,2.5-9.3,3.9-1.9,7.7-5.8,1.3-6.9v-.5c2.3-.2,8.1-1.9,4-4.2-1.3-.4-3.5-.5-4.6-1.1l.2,.1c-.1-.1-.3-.1-.5-.1v-.1h0c.6-.9,1-1.3,3-2.6l-1.5-2.8c-4.4,.4-4.4,2.7-6.7,5.5-1.2-1.9-1.3-4.5-2.8-6.2-1.8-1.7-4.2,.2-4.7,2.6-6.9,1.9-14.4,4-21.8,6.8-.2-5.6-1.2-9.1,6.1-7.4,32.4-13.3,45-42.3,80.8-52.2,11.8-7.8,20.2-15.6,24.7-21.8,11.7-15.4-3.1-26.7,11.1-40-6.2-25.6,18-3,17.1-43.3,8-12.2,53.6-20,36.5-36.2,4.6,.6,6.6-3.6,9.9-5.7,3,3.9,8.7,3.4,13.1,4.5v.5c-.3,.1-1.8,.5-2.2,.7,24.3,63,43.2,65.1,99.8,34.1,44.2,34.2,116.3-32.1,63.7-77.2l.2-.4c4.8,1.3,8.1,3.8,9.6,7.4,6.5,3.1,11.1-.2,14.7-2.3,.3,1,.3,3.1,.3,4.4,16.5,1.7,12.6-16.7,26.7-15.7-.3-1.9-.8-4.1-.6-5.7,1.5,.3,3.8-.5,3.9-2.4,16.8,5.2,7.4-16.1,21-14.7-1.8,3.9-3.5,5.6-4.9,7.4-1.1,5.2,5.9,.3,8.7-.6,15.2-33.2,51.3,13.1,71.8-16.8-1.6-2.6-4.9-3.4-7.9-3.3,.3-.6,.5-1.1,.9-1.9,22.9,2.7,7.2,17.4,21,27.1,5.8-17.6,10.1-17.1,17.4-.5,.4-2.1,.6-7.1,1.7-8.8,2.2,1.9,3.3,6,3.3,9-15.9,8.3,9.2,12.2,15.3,14.7,10.9,5.3,19,9,27.6,13.2,18.9,11.1,34.7-2,53.8-7.6,1.2,6.5,1.2,7.8,7.9,4.5-5.6,20.5-7.1,35-14.4,55.8-1.9,25.1,31.5,11.6,30.7,42.9-3.5,4.4-13.6,7-8.8,11.7-1.5,.3-1.7,1.8-2.2,2.9-3.7-.5-5.3,1.7-3.9,5.3,10.2-4.2,16.7-.9,26.4,2.4-12,8.7-30.6,12-43,19.6-6.2,8.5-15,17-25.9,22.8-8.7,4.3-18.5,11.7-26.9,8.1,1,4.3-2.9,7.5-6.5,9.4-5.8,3.5,.2,5.4,4.1,4.9-1.9,12.3-28.8,8.5-19,22.4-11.3,2.2-12.5,15.6-20.8,22.2-24,158.3-67.5-82.7-185.1-5.9-48.5,9.8-18.2,21.2-44.5,24.3-3.6,6.8-15.3-1.6-19.7,4.4,1.2,3.8-5.2,15.4-9.2,10.2,19.6-5.8-11.6-10.9-13.9-.9,3.4,4.3,2.9,9.7-3.5,8.7l-1,3c5.7,2.9,5,3.8,2.2,7.6-.8,1.6-.3,3.2,1.1,4.3,5.2,6.7-.5,18.5-3.9,25.3-10.1,2.3-1.2,11-6.5,14.6-2-15.7-18.6,6.7-17.2,13.7-8.9,5.2-16.3,12.6-14.2,22.5-14.4-4.5-25.3-1.5-27.9,14.8,2.8,9.1,3.9,16.6,2.9,21.8-1,11.8-17.1,10.7-12.7,22.9-7.5,8.4,32.2,30,12.7,29.5Z"/></g></g><g class="ba"><path class="ak" d="M1203.6,4269c-.5,1.3,.1,4.1,.8,6.2,2.3-1.8,1.2-5.4,.3-7.9-.6,.4-.9,.9-1.1,1.7h0Z"/></g><g class="b`"><path class="ak" d="M1200.5,4223.1c2.3,1.2,2.9,4.5,4.2,5.6,.1,.1,.7,.2,2.2-.4v-.1c-.5-.4-4.1-3.7-4.7-4.2,2,0,6.7-.1,8.5,.1-3.2-.6-6.5-.9-10.2-1Z"/></g><g/><g class="ay"><path class="ak" d="M1452.5,4177.1c1.4,1.9,3.9-.7,5.3-2.4-1.4,1.4-3.3,1.8-5.3,2.4Z"/></g><g class="ax"><polygon class="ak" points="1201.8 4146.8 1201.8 4146.8 1201.7 4146.7 1201.8 4146.8"/></g><g/><g class="aw"><path class="ak" d="M1215.4,4302.1c1-1.3,2.4-2.8,3.9-3.2,0,.5,.1,1,0,1.6-1.3,.7-2.6,1.3-3.9,1.6Z"/></g><g class="bi"><path class="ak" d="M1218.9,4299.6c-.7,.4-1.3,.8-1.9,1.4,.6-.2,1.3-.5,1.9-.8v-.6Z"/></g><g class="bh"><path class="ak" d="M1198.3,4277.7v-.5h.1c0,.1-.1,.4-.1,.5Z"/></g><g class="bg"><path class="ak" d="M1195,4229.9c-2.4-.5-3.4-2.8-2.8-5.6,1.2,1.7,2.9,3.7,2.8,5.6Z"/></g><g class="bf"><path class="ak" d="M1193.2,4228.2c.3,.5,.8,.8,1.2,1-.3-1.3-1-2.3-2-3.7,0,1.3,.4,2.2,.8,2.7h0Z"/></g><g class="be"><polygon class="ak" points="1189.6 4222.2 1189.6 4222.2 1189.5 4222 1189.7 4222 1189.9 4221.8 1189.6 4222.2"/></g><g class="ap"><path class="ak" d="M1238.6,4209.1h0c-.1-.1,0-.4,0-.5v.5Z"/></g><g class="ao"><polygon class="ak" points="1237.5 4207.3 1237.5 4207.1 1237.4 4207.1 1237.3 4207.2 1237.4 4207.1 1237.2 4207.1 1237.2 4206.9 1237.6 4206.8 1237.8 4207 1237.7 4207.3 1237.5 4207.3"/></g><g class="an"><path class="ak" d="M1102.9,4178.9l-.4-.3c4.4-8.2,19.7-14.2,29.8-16.6,3.9-.9,7.7-2.2,10.8-4.8l-2.7-.3c2.1-5.8,6.8-9.3,11.7-3.4,5-3.7,7.1-10.3,12.5-2.5-12.5,4.7-25,13.3-29.1,21.8-20.3,9.5-5.7-14.3-32.6,6.1Z"/></g><g class="as"><path class="ak" d="M1141.1,4156.5l3.4,.3c-3.5,2.9-7.9,4.9-12.4,5.8-9.4,2.3-23.6,7.8-28.3,15.1,25.4-19.1,12.3,3.7,31.3-5.3,4.1-8.3,16.1-16.7,28.6-21.6-2.2-2.3-2.6-3.3-4.4-3-2.2,1.4-4.9,4.7-7.3,6.4-4.6-5.4-8.5-3.5-10.9,2.3Z"/></g><g class="ar"><path class="ak" d="M1136.9,4156.5c-.5-.1-1.3-.4-1.6-.7h-.1c-.3-.6,.6-1.4,1.2-1.4,.5,.4,.5,1.2,.5,2.1Z"/></g><g class="aq"><path class="ak" d="M1135.7,4155.4c.1,.1,.5,.3,.7,.4,0-.4-.1-.7-.1-.9-.2,.1-.5,.4-.6,.5Z"/></g><g class="bn"><polygon class="ak" points="1196.1 4147 1195.8 4146.9 1195.8 4146.5 1196 4146.5 1196 4146.7 1196.1 4146.5 1196 4146.7 1196 4146.7 1196 4146.7 1196 4146.7 1196.2 4146.9 1196.1 4147"/></g><g class="bk"><polygon class="ak" points="1193.3 4143 1193.1 4142.8 1192.9 4142.9 1193.1 4142.8 1192.9 4142.7 1193 4142.6 1193.3 4142.6 1193.4 4142.9 1193.3 4143"/></g><g class="bj"><polygon class="ak" points="1369.4 3947.2 1369.4 3947 1369.3 3946.9 1369.1 3947 1369.3 3946.9 1369.1 3946.8 1369.2 3946.7 1369.5 3946.7 1369.6 3947 1369.4 3947.1 1369.3 3947 1369.4 3947.2"/></g><g class="bl"><path class="ak" d="M1369.5,3947.1l.1,.1-.1-.1Z"/></g><g class="bm"><path class="ak" d="M1553.1,3911c0-.1-.1-.4-.1-.4l.1,.1v-.1h.8l-.6,.5-.2-.1Z"/></g><g/></g><g><path class="ai" d="M1276.3,3926.4v6.3c-.9,0-1.8,.1-2.7,.1,0,.2-.1,.4-.1,.5,.6,4.6,1.2,9.2,1.8,13.9,.3,2.5,.7,5,1,7.5,.1,.9-.2,2-.4,2.9-1.1,3.5-4.5,6-8.5,5.9-3.5-.1-6.8-2.5-7.9-6-.4-1.3-.4-2.5-.3-3.8,.4-3,.8-6,1.2-9,.3-2.4,.6-4.9,.9-7.3,.2-1.2,.3-2.5,.5-3.7,0-.2,0-.5,.1-.8h-2.7v-6.3c-14.8-2.4-26.9-9.4-36.5-20.9-1.8,1-3.6,2-5.4,3.1-.5-.8-.9-1.5-1.4-2.3-.2,.2-.4,.3-.6,.4-5.4,4.1-10.8,8.2-16.3,12.3-2.5,1.9-5.3,2.3-8.2,1.3-3.1-1-5.4-4.1-5.6-7.4-.2-2.6,.6-4.7,2.3-6.6,.9-1,2-1.6,3.3-2.1,6.3-2.6,12.6-5.2,18.8-7.8,.1,0,.2-.1,.4-.2-.4-.8-.9-1.6-1.3-2.4,1.8-1,3.6-2.1,5.4-3.1-5.2-14-5.2-27.8,0-41.8-1.8-1-3.5-2-5.4-3.1,.4-.8,.9-1.6,1.3-2.4-.3-.1-.6-.3-.9-.4-6.3-2.6-12.6-5.2-18.8-7.8-3.2-1.3-4.8-3.8-5.1-7.3-.3-3.9,2-7.4,5.5-8.6,2.9-1,5.7-.7,8.2,1.1,2.1,1.5,4.1,3.1,6.2,4.7,3.5,2.7,7,5.3,10.6,8,.1,.1,.2,.1,.3,.2,.5-.8,.9-1.5,1.4-2.3,1.8,1,3.6,2.1,5.4,3.1,9.5-11.5,21.6-18.5,36.4-20.9v-6.2h2.7c-.1-.8-.1-1.4-.2-2.1-.6-4.8-1.3-9.6-1.9-14.4-.3-2-.5-4-.6-5.9-.2-4,3.1-8,7.8-8.4,4.3-.3,8,2.3,9.1,6.5,.3,1.1,.3,2.3,.1,3.4-.4,3-.8,6-1.2,9-.4,3-.8,6-1.1,9-.1,.6-.2,1.3-.3,1.9,0,.2,0,.5-.1,.8h2.8v6.2c14.8,2.4,26.9,9.4,36.4,20.9,1.8-1,3.6-2,5.4-3.1,.5,.8,.9,1.6,1.4,2.4,1.2-.9,2.4-1.8,3.5-2.7,4.5-3.4,8.9-6.8,13.4-10.2,3.1-2.4,8-2.4,11.3,.7,1.4,1.3,2.2,3,2.5,4.9,.6,4.3-2,7.9-5.6,9.4-6.3,2.5-12.5,5.1-18.7,7.7-.2,.1-.3,.2-.5,.3,.4,.8,.9,1.5,1.4,2.4-1.8,1-3.5,2.1-5.4,3.1,5.2,13.9,5.2,27.9,0,41.8,1.8,1,3.5,2.1,5.4,3.1-.4,.8-.9,1.6-1.3,2.4,1,.4,2,.8,2.9,1.2,5.6,2.3,11.1,4.6,16.7,7,3.1,1.3,4.8,3.7,5.3,7,.6,4.5-2.7,8.9-7.5,9.4-2.3,.3-4.4-.3-6.2-1.7-5.1-3.9-10.2-7.8-15.3-11.7-.5-.4-1-.8-1.6-1.2-.5,.8-.9,1.5-1.4,2.4-1.8-1-3.6-2-5.4-3.1-4.6,5.6-9.9,10.2-16.1,13.8-6.7,3.5-13.4,5.9-20.6,7Zm-4.8-98.4v31.7c.8,.4,1.5,.8,2.2,1.3,.5,.3,.8,.3,1.4,0,8.8-5.1,17.6-10.1,26.4-15.2,.1-.1,.3-.2,.5-.4-3.9-5.3-8.6-9.5-14.3-12.6-5.1-2.6-10.4-4.3-16.2-4.8Zm30.5,65.9c-9.2-5.3-18.4-10.6-27.5-15.8-1,.6-2,1.2-2.9,1.7v31.7c5.7-.5,11-2.1,16-4.8,5.7-3.2,10.5-7.4,14.4-12.8Zm3.8-41.7c-.4,.2-.7,.4-1.1,.6-7.2,4.1-14.3,8.2-21.5,12.4-1.4,.8-2.9,1.7-4.3,2.5-.4,.2-.7,.5-.6,1,.1,.7,.1,1.4,0,2.1,0,.4,0,.7,.5,.9s1,.6,1.5,.8c8.3,4.8,16.7,9.6,25,14.4,.2,.1,.4,.2,.6,.3,5.4-11.6,4.7-25.2-.1-35Zm-72.6-6.7c9.3,5.3,18.4,10.6,27.6,15.8,.7-.4,1.4-.9,2.1-1.2,.6-.3,.9-.6,.9-1.3v-30.9c-12.8,1.5-22.8,7.3-30.6,17.6Zm-3.7,6.7c-1.6,2.9-4.4,10.3-3.9,19.6,.3,5.4,1.5,10.5,3.8,15.4,9.2-5.3,18.4-10.6,27.5-15.8v-2.6c0-.6-.1-.8-.6-1.1-5.6-3.2-11.2-6.4-16.8-9.6-3.3-2-6.6-3.9-10-5.9Zm31.3,25.8c-9.2,5.3-18.3,10.5-27.6,15.8,3.9,5.4,8.7,9.7,14.6,12.8,5,2.6,10.3,4.3,15.9,4.7v-31.7c-.5-.3-1-.5-1.5-.8-.4-.1-.8-.4-1.4-.8Zm3.5-8.3c-.1,1.7,1.5,3.4,3.3,3.4s3.3-1.6,3.4-3.3c0-1.8-1.5-3.2-3.3-3.3-1.8-.2-3.5,1.5-3.4,3.2Z"/><rect class="ae" x="2720.7" y="4381.4" width="879.1" height="220.2"/><text class="af" transform="translate(2720.68 4430.2)"><tspan x="0" y="0">広島県</tspan><tspan class="bo" x="186" y="0">、</tspan><tspan x="217" y="0">　東広島</tspan></text><text class="af" transform="translate(2720.68 4584.74)"><tspan x="0" y="0">SHINTOKU KAIUN C</tspan><tspan class="ah" x="621.11" y="0">O</tspan><tspan class="am" x="667.42" y="0">., </tspan><tspan class="al" x="715.16" y="0">L</tspan><tspan x="743.31" y="0">T</tspan><tspan class="ag" x="785.47" y="0">D</tspan><tspan x="830.36" y="0">.</tspan></text><path class="ai" d="M2559.8,4548.2v6.3c-.9,0-1.8,.1-2.7,.1,0,.2-.1,.4-.1,.5,.6,4.6,1.2,9.2,1.8,13.9,.3,2.5,.7,5,1,7.5,.1,.9-.2,2-.4,2.9-1.1,3.5-4.5,6-8.5,5.9-3.5-.1-6.8-2.5-7.9-6-.4-1.3-.4-2.5-.3-3.8,.4-3,.8-6,1.2-9,.3-2.4,.6-4.9,.9-7.3,.2-1.2,.3-2.5,.5-3.7,0-.2,0-.5,.1-.8h-2.7v-6.3c-14.8-2.4-26.9-9.4-36.5-20.9-1.8,1-3.6,2-5.4,3.1-.5-.8-.9-1.5-1.4-2.3-.2,.2-.4,.3-.6,.4-5.4,4.1-10.8,8.2-16.3,12.3-2.5,1.9-5.3,2.3-8.2,1.3-3.1-1-5.4-4.1-5.6-7.4-.2-2.6,.6-4.7,2.3-6.6,.9-1,2-1.6,3.3-2.1,6.3-2.6,12.6-5.2,18.8-7.8,.1,0,.2-.1,.4-.2-.4-.8-.9-1.6-1.3-2.4,1.8-1,3.6-2.1,5.4-3.1-5.2-14-5.2-27.9,0-41.8-1.8-1-3.5-2-5.4-3.1,.4-.8,.9-1.6,1.3-2.4-.3-.1-.6-.3-.9-.4-6.3-2.6-12.6-5.2-18.8-7.8-3.2-1.3-4.8-3.8-5.1-7.3-.3-3.9,2-7.4,5.5-8.6,2.9-1,5.7-.7,8.2,1.1,2.1,1.5,4.1,3.1,6.2,4.7,3.5,2.7,7,5.3,10.6,8,.1,.1,.2,.1,.3,.2,.5-.8,.9-1.5,1.4-2.3,1.8,1,3.6,2.1,5.4,3.1,9.5-11.5,21.6-18.5,36.4-20.9v-6.2h2.7c-.1-.8-.1-1.4-.2-2.1-.6-4.8-1.3-9.6-1.9-14.4-.3-2-.5-4-.6-5.9-.2-4,3.1-8,7.8-8.4,4.3-.3,8,2.3,9.1,6.5,.3,1.1,.3,2.3,.1,3.4-.4,3-.8,6-1.2,9s-.8,6-1.1,9c-.1,.6-.2,1.3-.3,1.9,0,.2,0,.5-.1,.8h2.8v6.2c14.8,2.4,26.9,9.4,36.4,20.9,1.8-1,3.6-2,5.4-3.1,.5,.8,.9,1.6,1.4,2.4,1.2-.9,2.4-1.8,3.5-2.7,4.5-3.4,8.9-6.8,13.4-10.2,3.1-2.4,8-2.4,11.3,.7,1.4,1.3,2.2,3,2.5,4.9,.6,4.3-2,7.9-5.6,9.4-6.3,2.5-12.5,5.1-18.7,7.7-.2,.1-.3,.2-.5,.3,.4,.8,.9,1.5,1.4,2.4-1.8,1-3.5,2.1-5.4,3.1,5.2,13.9,5.2,27.9,0,41.8,1.8,1,3.5,2.1,5.4,3.1-.4,.8-.9,1.6-1.3,2.4,1,.4,1.9,.8,2.9,1.2,5.6,2.3,11.1,4.6,16.7,7,3.1,1.3,4.8,3.7,5.3,7,.6,4.5-2.7,8.9-7.5,9.4-2.3,.3-4.4-.3-6.2-1.7-5.1-3.9-10.2-7.8-15.3-11.7-.5-.4-1-.8-1.6-1.2-.5,.8-.9,1.5-1.4,2.4-1.8-1-3.6-2-5.4-3.1-4.6,5.6-9.9,10.2-16.1,13.8-6.6,3.5-13.3,5.8-20.6,7Zm-4.7-98.4v31.7c.8,.4,1.5,.8,2.2,1.3,.5,.3,.8,.3,1.4,0,8.8-5.1,17.6-10.1,26.4-15.2,.1-.1,.3-.2,.5-.4-3.9-5.3-8.6-9.5-14.3-12.6-5.1-2.7-10.5-4.3-16.2-4.8Zm30.4,65.9c-9.2-5.3-18.4-10.6-27.5-15.8-1,.6-2,1.2-2.9,1.7v31.7c5.7-.5,11-2.1,16-4.8,5.8-3.2,10.5-7.5,14.4-12.8Zm3.8-41.7c-.4,.2-.7,.4-1.1,.6-7.2,4.1-14.3,8.2-21.5,12.4-1.4,.8-2.9,1.7-4.3,2.5-.4,.2-.7,.5-.6,1,.1,.7,.1,1.4,0,2.1,0,.4,0,.7,.5,.9,.5,.2,1,.6,1.5,.8,8.3,4.8,16.7,9.6,25,14.4,.2,.1,.4,.2,.6,.3,5.5-11.7,4.8-25.2-.1-35Zm-72.5-6.7c9.3,5.3,18.4,10.6,27.6,15.8,.7-.4,1.4-.9,2.1-1.2,.6-.3,.9-.6,.9-1.3v-30.9c-12.8,1.5-22.9,7.3-30.6,17.6Zm-3.7,6.7c-1.6,2.9-4.4,10.3-3.9,19.6,.3,5.4,1.5,10.5,3.8,15.4,9.2-5.3,18.4-10.6,27.5-15.8v-2.6c0-.6-.1-.8-.6-1.1-5.6-3.2-11.2-6.4-16.8-9.6-3.3-2-6.6-3.9-10-5.9Zm31.3,25.8c-9.2,5.3-18.3,10.5-27.6,15.8,3.9,5.4,8.7,9.7,14.6,12.8,5,2.6,10.3,4.3,15.9,4.7v-31.7c-.5-.3-1-.5-1.5-.8-.4-.1-.9-.5-1.4-.8Zm3.5-8.3c-.1,1.7,1.5,3.4,3.3,3.4s3.3-1.6,3.4-3.3c0-1.8-1.5-3.2-3.3-3.3-1.8-.2-3.5,1.4-3.4,3.2Z"/></g></g></g></svg>