<?xml version="1.0" encoding="UTF-8"?><svg id="_レイヤー_2" xmlns="http://www.w3.org/2000/svg" viewBox="0 0 4648.69 3900.49"><defs><style>.cls-1{fill:#142142;}.cls-2{fill:#dd020c;fill-rule:evenodd;}</style></defs><g id="_レイヤー_2-2"><g><g id="b"><g id="c"><path class="cls-1" d="M4008.8,3042.39c4.1-17.9,3.1-38.2,31.3-34.7,12.3,1.5,25.1-40.4,19.1-65.4-7.2-29.8-10.9-63.1-43.6-76.8-2.5-1.1-3.8-5.3-6.1-7.4-5.2-5-10.8-9.6-16.2-14.3-4.8,8.8-13.7,17.7-13.4,26.2,.7,16.7,6.5,33.1,5.8,51.9-3.3-5.3-5.6-12.1-10.2-15.4-4.3-3.1-13.8-5.6-15.9-3.2-14.6,16.8-33.3,32.8-39.9,53.1-6.8,20.6-20.6,21.5-30.5,18.7-29.6-8.3-52.4,8-77.5,17.6-40.4,15.4-81.8,28-121.8,44.5-31.1,12.8-62,27.6-90.9,45.4-27.6,17-40.7,17.1-69.6,1.4-26.7-14.5-56.2-22.9-89.3-35.9,3,13.1,4.5,20,5.9,26.4-12.7,1.9-24.9,3.7-37,5.4-.1,1.8-.2,3.5-.3,5.3,13.1,4.6,26.3,9.1,36.7,12.8-6.2,38.4-11.1,76.3-18.6,113.6-9.3,46.7-20.4,54.2-64.2,48.1-31.5-4.4-43.8,26.3-64.6,41.2-3.1,2.2-4.6,7.3-3.4,5.3-20.2,4.1-35.4,6.3-50.2,10.5-26.1,7.4-50.9,11.8-73-11.8-12.6-13.4-27-14.2-44.1-6.1-12.2,5.7-27.1,6.7-40.7,6.3-14.2-.5-28.4-4.3-42.3-8.4-36.4-10.6-68.3-9.7-96.1,24.9-15.1,18.7-38.1,19.8-63.2,15.3-24.6-4.4-51.3,2.8-76.7,7.1-5.9,1-14,9.9-15.2,16.4-3.4,18.4-15.1,21.9-29,25-38.5,8.7-38.4,8.9-25.5,43.2-24.8,16.3-49,32.2-75.1,49.3-10.8-29.6-56-35.2-43.3-82.2-33.3-5.8-64.4-23.7-95.6,4.6-5.6,5.1-17.2,2.6-32.1,4.4-12.7,42.7-27.3,92.2-42.4,143-15.9-8.8-30-20.5-45.8-24.1-13.2-3-30.5-.6-42,6.6-14,8.8-10.4,25.4-4.4,41.5,2.9,7.7-2.6,19.4-5.3,29-3.3,11.4-7.7,22.4-11.6,33.5,2.6,1.9,5.2,3.8,7.8,5.6,7.9-4.1,16.1-7.5,23.6-12.3,13.1-8.3,27.3-7.9,31.4,7.4,2.3,8.5-8.7,21.3-14.2,31.9-.9,1.7-4.6,2.2-7.1,2.5-22.2,2.3-32.2,11.9-13.4,41.3-14.4-3.1-22.8-4-30.7-6.7-54.7-18.6-107.3-12.9-157.2,16.9-11.6,7-21.2,17.9-31.9,26.7-18.6,15.2-30.3,33.7-28.4,60.2,.5,6.7-2.1,13.6-3.2,19.8-17.4-11.4-32.1-25.3-49.1-31.3-24.9-8.7-33.8,1.1-33.1,29.3,.1,5.2,.7,11.3-1.4,15.5-4.4,8.7-65.8,19.4-74.1,14.2-19.6-12.6-39.4-24.9-58-36.6-1.2-14.7-2.4-28.8-3.6-42.9-3.5-1.8-7.1-3.6-10.6-5.5-3.1,6.2-5.5,13-9.5,18.4-3,4.1-8.1,6.3-16,12.1,1-19.3,1.7-33.2,2.4-47.7-43.2,9.9-59,32.8-45.7,57.5-15.2,11.3-30.4,21.7-44.8,33.4-37.6,30.7-78.2,52.6-125.4,56.6,3.6-19.5,9.6-37.9,9.5-56.1-.1-12.9-5.9-28-13.7-38-16-20.3-14.3-26.6,9.3-38,14.7-7.1,29.9-17.8,39.5-31.3,14.4-20.2,7.7-38-15.3-45.3-12.5-4-26.9-5-39.8-3-19.2,3-24.2-6.6-24.8-24-.3-8.1-1.3-16.2-2.3-24.3-1.8-14.8-9.7-18.8-21.4-12-20.7,12.1-23-1.1-22.5-18.2,.2-6.3,1.1-12.7,2.5-18.8,6.4-27.6,3.7-53.5-9.3-78.9-13.4-26.3-24.6-53.8-36.8-80.8-12.9-28.6-17-56.5,2.2-84.7,5.1-7.5,7.7-18.3,8.4-27.8,1.4-17-2.9-29.7-23.3-22.8-4,1.4-12.4,.5-12.9-1.2-1.4-5.3-2-12.8,.6-17.1,12.1-20.6,11-38.5-4.8-56.6-15.7-18-31.4-11.4-48.6-4-7.1,3.1-16.1,3.4-23.9,2.1-25-4.2-30.3,.9-27.9,28.8,.6,7.4,.7,14.9,1,22.3-2.4,.1-4.8,.2-7.1,.4-.7-9.1,1-19.7-2.8-27-5.1-9.6-14.5-16.5-22.1-24.6-4.6,9-9.8,17.7-13.4,27.1-3.5,9-5.2,18.8-8.6,31.6-30.7-30.6-30.5-30.4-8.1-55.7,3.7-4.2,8.8-12.6,7.3-15.3-2.9-5.1-10-10.5-15.3-10.4-9.7,.1-20.7,1.7-28.9,6.8-17.4,10.7-22.9,6.1-21.9-14.3,.3-6.5-2.5-13.1-5.4-27.1-15.4,26.8-33,48.1-55.2,32.6-38.3-26.5-71.3,1.5-98,1.5-15.6,19.4-26.6,33.2-35.4,44.2-13.6-13.1-22.8-22-31.9-30.8-5.6,8.1-11.1,16.2-19.3,28.1-25.8-2.3-44.4,7.2-51.5,30.7-30.7-8.2-47-.5-53.7,37.6-10.2,58.4-44.7,93.6-86.5,125.8-13,10-24,26.2-30.3,42.1-18,45.7-50.5,72.6-88,99.3-31.6,22.5-76,32.1-88.8,79.4-5.2,18.9-8.3,38.6-11.7,55.2-8.9,7.8-24.7,18.8-23.7,21.1,5.6,12.5,14.8,23.3,23.9,33.6,3.1,3.5,9.5,5.5,14.1,5.1,27.8-2.5,35.1,18.1,42.3,44.5-11.9,3.9-23.8,7-35.1,11.7-15.5,6.4-32.2,11.6-45.4,21.7-17.9,13.6-32.7,22.6-50.3,.6-3.1-3.9-10.9-3.5-18.5-5.7,2.2-18.8,5.3-37.4,6.5-56.1,1.7-28.2-6.1-34.5-31.2-27.1-2.4,.7-4.9,1.2-7.4,1.2-17.8,.1-35.6,.1-54.8,.1-8.6-30.7-15.8-35-47.7-24.7-4.9-5.9-9-15.1-15.2-17.3-22.7-7.8-20.4-26.9-18-44.4,3.2-23.5,3.2-41.7-21.5-53.4-16.5-7.8-21.7-51.3-12-69.7,17.4-33.1,16.4-38.5-12-60.9-7.4-5.8-14.9-11.5-22.3-17.2,2.2-1,4.4-2,6.6-3-3.3-14.3-8.7-28.6-9.4-43-.8-16.4,2-33.2,4.6-49.5,.9-5.9,7.9-10.8,8.2-16.5,.9-13.4,3.8-30.4-2.4-39.3-4.8-6.9-23.4-8-33.6-4.3-36.4,13.2-48.7,5.8-51.4-37.3-1.5-24.1-8.9-42.2-32.9-48-4.9-1.2-12-2.6-13.7-6.3-12.6-27.6-32.1-18.7-57.5-8.8,1.8-23,1.9-42.1,5-60.6,3.3-19.5,9.6-38.5,14.4-57.7,3.3-13.2,8.1-26.3-10.3-33.2-3.6-1.3-3.9-15.2-4.3-23.3-1.3-21.1-1.8-42.3-2.6-63.5-.3-6.2-2.3-12.9-.9-18.6,8.6-34.9,23.7-69.4,25.1-104.5,1.1-28.4-13.6-57.8-22-86.4-4.2-14.2-9.1-28.4-15.2-41.8-7.9-17.3-17.3-33.8-29.2-56.4,9-58.9-2.4-74.2-68.1-76.3,5.5-9.5,11-17,14.4-25.5,6.5-16.1,10.7-33.4,17.8-49.2,5.7-12.9,11.9-27.6,21.9-35.6,11.7-9.4,27.6-12.9,41.9-18.3,37.4-14.2,69.6-34.1,92.1-72,12.8-21.7,34.7-36.9,50.7-56.8,9-11.2,14.8-25.6,21.3-39,7.1-14.5,14.4-29,19.8-44.3,8.6-23.9,17.5-48,22.9-72.9,3.8-17.1-9.3-22.5-22.5-19.6-15.5,3.4-20.8-5.5-21.7-18.5-2-26.8-.2-52.6,22.1-71.5,18.1-15.4,27.4-34.1,15.3-59.6-2.2-4.7,0-13.9,3.1-19,21.2-35.8,43.1-71.1,64.8-106.5,11.1-18.1,25-35,32.5-54.8,5.7-15.2,7.3-35.4,2.7-50.5-2.6-8.5-22.8-17.4-33-15.2-23.6,5-39.4-7.9-54.3-21.3-5.6-5.1-5.7-28.5-5.2-28.6,39.7-9.5,51.3-55.7,84.5-73.8,22.4-12.2,42.4-29.5,64.1-43.4,5.3-3.4,13-3,19.6-3.3,34.5-1.7,40.8-7.4,46.5-43.9,16.4,0,33,.8,49.4-.2,23.4-1.4,44-18.9,38.6-40.5-11.8-47.8,19-71.6,42.2-98.2,22.9-26.3,18.4-59.2,26.7-88.9,1.5-5.2-8.1-13.9-13.3-22.3,16.5-19.2,39.1-18.9,57.9-12.1,18.2,6.6,33.3,23.1,50.7,36-11,33.6,25.1,74.8,76.8,85.7,19.2-31.8,37.7-62.6,60.5-100.4,14.9,42.3,41,56.1,74.1,49.1,17.7-3.7,34.3-14,51.1-22.1,14.5-7.1,27.9-17.3,42.9-22.7,24.9-8.9,42.5,4.6,41.6,32.4-.7,21.7,6.8,34.6,25.3,41.2,19.8,7.1,37.8,7.9,52.7-11.9,17.8-23.5,31.9-52.3,65.9-53.9,2.8-.1,7.6-13.2,7-19.8-1.1-11.5-5.6-22.7-8.8-34.2,13.4-10.6,26.7-21.1,40.4-31.9,49.8,18.9,66.2,43,45.7,72.3,11.5-1.1,21.3-2.6,31.2-2.7,12.5-.2,27.2-3.5,37.2,2.1,25.5,14.2,49.9,19.6,77.2,7.9,4.6-2,13.4-1,16.3,2.5,16.8,20.3,30.5,11.5,44.4-3.5,11.3-12.2,21.8-12,35.5-1.8,39.9,29.9,49.9,28.4,81.4-12.1,13.1-16.9,29-16.5,46-13.4,13.3,2.4,18.8-2.8,27.6-14.9,14.3-19.8,35.8-33.6,54.5-49.6,3.2-2.8,9.5-3.2,10.8-6.4,11.2-29.2,28.6-45.2,60.2-39.3,3.6,.7,11.3-12.1,14-19.9,11.7-33,31.1-41.6,59.9-23.4,16.8,10.7,31.6,24.2,53.6,15.4,4.1-1.6,11.6,8.5,18.1,11.7,11.8,5.8,23.8,12.3,36.3,15.2,12.9,3.1,20.3-2.2,23.9-19.4,4-18.6,13.2-37.4,24.5-52.3,13.1-17.2,26.6-13.3,37.4,6.4,10.4,18.9,26,21,40.7,5.3,2.4-2.6,4.1-7.2,6.8-7.8,36.4-8.6,25.8-36.9,20.2-60.2-6.8-28-13.3-57.8-27.9-81.2-8.7-14-31.9-20-49.7-24.2-13.4-3.1-22.8-2.5-24.9-21.5-2-18.8-16.9-23.1-30.7-14.2-18.3,11.8-27.5,7.1-33.6-13.5-7-23.4-22.2-26.8-42.2-19-10.2,3.9-21.3,5.1-31.8,7.5,14.2-20.3,29.1-36.5,38.2-55.8,18-37.8,51.2-54.8,80.9-77.7,13.2-10.2,24.7-27.5,30.2-44.1,13.6-41.2,12.9-42.5,53.8-41.8,4.1,.1,9.1-.6,12.1-3.1,17-13.9,29.7-4.7,41.6,8.3,11,12.1,22.6,12.8,33.1,1.2,13-14.5,24.5-30.7,36.7-46.1,1.2,2.8,2.4,5.7,3.6,8.5,12.1-2.8,26.5-2.2,36-9.2,17-12.6,15.4-42.4-1.2-73.1,12.1-1.8,23.6-2.8,34.8-5.2,23.3-5,29.8-16.8,23.5-40.8-6.4-24.2,.2-36.5,22.3-43.9,8.4-2.8,15.9-8.1,24-12,19.9-9.4,32.2-21.6,26.3-49.1-1.5-7.1,11.9-20.6,20.9-27,27.5-19.5,53.6-37.1,59.1-77.9,3.6-26.5,28-36,50.9-42.2,10.8-2.9,21.4-6.6,32.1-10-4.9-12.8-8.9-26.1-15-38.3-3.4-6.9-10.1-12-15.3-17.9,25.5-29.1,51-57.5,75.7-86.6,14.2-16.8,24.7-38.4,41.2-51.3,23.9-18.7,51-33.8,78.6-45.3,8.1-3.4,24.6,8.5,33.5,17.6,10.7,11,16.2,27.7,26.3,39.8,7.4,9,17.9,15.6,28.1,21.2,12.7,7,26.4,12.1,39.8,17.6,3.8,1.6,8,1.8,12.1,2.7,12.2,2.8,25.9,2.7,36.3,9,36.1,21.6,90.9,6,112.3-32.1,12.2-21.7,27.7-41.3,42.3-62.8,20.7,16.5,38.7,33.6,59.1,46.2,11.5,7.1,19.4,12.1,18,27.8-1.4,16.1,5.6,23.8,21.4,27.1,11.4,2.4,22.8,11.1,31.8,19.8,31.2,30,70.3,31.8,98.9-1.4,19.2-22.3,39-28.2,65.3-22.4,9.9,2.2,23.4,1.8,31.2-3.9,15.5-11.3,27.3-26.3,47.9-8.7,4,3.5,16.7-7.2,25.4-7.1,12.4,.1,26.3,1.1,36.7,7.3,13.7,8.1,24.6,21.5,41.5,37,5.9,35.5,27,44,62,17.5,13.1-10,24.8-18.6,41.5-1.3,7.6,7.8,25.9,6.5,38.9,4.8,30.1-4,59.7-12.6,89.8-15.6,15.5-1.6,33.3,1.2,47.3,8.3,26.3,13.4,32.7,10.9,47.4-17.3,4.5-8.7,20.7-13.4,31.9-14.2,9-.7,22.9,4.1,27.2,11.5,21.4,36.3,39.6,74.8,60.4,111.5,6.3,11.1,17.5,18.9,26.4,28.3,18.1,19.1,40.1,35.6,53.4,58,17.7,29.8,36,56.9,65.5,73.6,12.5,7.1,20.1,15.9,14.5,32.6-1.9,5.7-2.8,13.1-1.1,18.8,13.3,46.1-15.5,70.5-38.8,101.7-17.5,23.4-25.2,57.2-30.9,87.8-2.4,12.6,12,28.8,18.7,43.4,3.3,7.3,11,18.2,8.8,21.7-24.2,38.2,4.6,87.3-24.8,125.5-25.4,33-17,74-10.8,112.7,.5,3.2,2.9,7.1,5.4,8.8,43.9,29.9,72.9,74.6,100.4,119.9,9.1,15,12.2,35.3,14.6,53.6,3.4,26.4,20.8,48.9,45.6,54.7,7.8,1.8,16.8,4.1,22.4,9.5,21.3,20.4,40.9,42.9,62.2,63.4,18.5,17.8,25.4,54.9,7.6,72.5-20.9,20.7-18.4,38.1-7,52.4-11.4,40.7-22.1,76.4-30.7,112.7-1.7,7,2.8,19,8.2,24.2,16.4,15.8,11.7,29.3,.1,44.6-27.5,36.1-25.9,45.8,6.5,78.1,6.2,6.2,7.4,18.8,9.4,28.9,2.9,14.5,5.2,29.3,6.3,44.1,2.3,31.4,7,60.8,36.6,77.3,2.8,1.5,3.8,9.9,3.1,14.7-4.3,31.2,6,48.8,34.1,48.6,19.6-.2,23.3,9.8,18.7,24.4-9.2,29.6-19.4,59.2-32.4,87-9.6,20.4-20.3,37.3-2.9,59.3,3.3,4.1-1.6,19.8-6.8,26.9-17.5,24-18.9,37.6,2.3,58.7,18.1,18.1,26.2,39.7,27.3,65,.9,22.1,11,35.3,30.1,41.7,16.8,5.6,33.4,11.7,51.5,18,5,21.4,9.6,44.7,16.1,67.5,1.7,6,8.2,12,13.8,14.8,33.6,16.3,55.3,44.4,59,82.6,3.1,31.9,23.8,62.5,1,98.5-12.2,19.2-8.5,50-11.9,75.3,30.1,7.9,42.2,26.7,25.9,47.9-29,37.6-20.5,80.7-25.3,122-2.9,25.1-4.4,50.3-6.9,80.6-17.5-9.2-32.5-16.4-46.8-24.8-14.5-8.5-28.4-18.3-44-28.4-3.6,25.1,9.4,36.8,24.4,48.5,13,10.2,35.2,12.1,32,39.3-.5,3.9,11,9.5,19.2,16.1-6.9,12.1-14.2,24.8-21,36.7-36.4-14-56.5-59.5-105.5-58.3,8.2,17,13.2,27.1,19.5,40.1-9,5.2-17.2,12.6-26.4,14.6-28.8,6.2-44.1,25.9-49.9,54.7-7.9,39.3-22.5,78.4-.7,119,3.6,6.7-3.7,24.9-10.8,32.7-26,28.4-58.2,45.6-95,52.7-9.2-51.3-18-60.1-67.8-55.4-22.2,2.1-37.6-6.8-55-18.1-10-6.5-25.2-10.4-36.1-7.3-33.9,9.8-49.8,.5-54.8-37.4-.7-5.4,.8-11.4-.9-16.2-1.9-5.3-5.4-11.5-9.8-13.6-2.9-1.4-11.4,2.6-12.4,5.9-10.6,35.1-33.5,29.4-57.5,21.2l-1.1-2.4h0Z"/></g></g><path class="cls-2" d="M2320.16,2992.94v-48.14c1.83-.61,3.52-1.48,5.01-2.54l47.48,24.07c-11.9,14.79-30.81,24.89-52.48,26.61h0Zm-65.57-26.61l47.47-24.06c1.5,1.06,3.18,1.93,5.02,2.54v48.14c-21.67-1.71-40.59-11.83-52.48-26.62h0Zm52.48-99.74v48.14c-1.83,.61-3.52,1.47-5.02,2.54l-47.47-24.07c11.89-14.78,30.81-24.9,52.48-26.61h0Zm65.57,26.61l-47.47,24.07c-1.49-1.07-3.18-1.93-5.01-2.54v-48.14c21.67,1.71,40.58,11.83,52.48,26.61h0Zm-40.93,34.03c.15,.83,.23,1.67,.23,2.54s-.08,1.71-.23,2.55l47.48,24.07c4.27-8.09,6.65-17.11,6.65-26.61s-2.38-18.52-6.65-26.62l-47.48,24.08h0Zm-18.1,7.62c-3.2,0-5.79-2.27-5.79-5.08s2.59-5.07,5.79-5.07,5.78,2.27,5.78,5.07-2.59,5.08-5.78,5.08h0Zm-72.23-5.08c0,9.51,2.38,18.52,6.65,26.61l47.47-24.07c-.15-.84-.23-1.68-.23-2.55s.08-1.71,.23-2.54l-47.47-24.07c-4.27,8.1-6.65,17.11-6.65,26.61h0Zm204.92,52.49l-33.85-12.41,2.41-3.68-9.33-4.73c4.38-9.81,6.8-20.5,6.8-31.68s-2.41-21.87-6.8-31.67l9.33-4.73-2.41-3.67,33.85-12.4c8.18-3,11.5-11.63,7.07-18.38h0c-4.43-6.74-14.61-8.54-21.66-3.81l-29.15,19.54-2.42-3.68-9.35,4.74c-15.19-16.7-37.26-28.36-62.45-31.67v-9.48h-4.83l4.7-31.95c1.14-7.72-5.71-14.57-14.59-14.57h0c-8.87,0-15.72,6.85-14.59,14.57l4.7,31.95h-4.83v9.48c-25.19,3.3-47.26,14.97-62.45,31.67l-9.36-4.74-2.42,3.68-29.16-19.54c-7.05-4.73-17.22-2.93-21.65,3.81h0c-4.44,6.75-1.11,15.38,7.07,18.38l33.85,12.4-2.42,3.67,9.33,4.73c-4.39,9.81-6.8,20.49-6.8,31.67s2.41,21.87,6.8,31.68l-9.33,4.73,2.42,3.68-33.85,12.41c-8.18,3-11.51,11.63-7.07,18.38h0c4.44,6.74,14.6,8.53,21.65,3.8l29.16-19.54,2.42,3.68,9.36-4.74c15.19,16.7,37.26,28.36,62.45,31.67v9.48h4.83l-4.7,31.94c-1.14,7.73,5.72,14.57,14.59,14.57h0c8.87,0,15.72-6.85,14.59-14.57l-4.7-31.94h4.83v-9.48c25.19-3.3,47.26-14.97,62.45-31.67l9.35,4.74,2.42-3.68,29.15,19.54c7.05,4.73,17.23,2.94,21.66-3.8h0c4.44-6.75,1.11-15.38-7.07-18.38Z"/></g></g></svg>