<?xml version="1.0" encoding="UTF-8"?><svg xmlns="http://www.w3.org/2000/svg" viewBox="0 0 4650.17 4183.93"><defs><style>.d{fill:none;}.e{letter-spacing:-.08em;}.f{letter-spacing:-.08em;}.g{fill:#e7211a;}.h{letter-spacing:-.12em;}.i{letter-spacing:0em;}.j{fill:#10345b;stroke:#000;stroke-miterlimit:10;}.k{fill:#040000;font-family:TsukuAOldMinPr6N-L-83pv-RKSJ-H, FOT-TsukuAOldMin Pr6N;font-size:62px;isolation:isolate;}.l{letter-spacing:-.5em;}</style></defs><g id="a"/><g id="b"><g id="c"><path class="j" d="M4009.65,3043.33c4.07-17.94,3.11-38.25,31.27-34.73,12.33,1.54,25.09-40.45,19.1-65.4-7.16-29.81-10.86-63.13-43.59-76.83-2.52-1.06-3.76-5.27-6.06-7.44-5.24-4.96-10.78-9.56-16.19-14.3-4.76,8.75-13.73,17.69-13.39,26.21,.66,16.68,6.51,33.12,5.81,51.93-3.3-5.28-5.64-12.08-10.18-15.4-4.27-3.12-13.84-5.59-15.94-3.17-14.58,16.75-33.27,32.77-39.95,53.09-6.78,20.61-20.59,21.51-30.53,18.72-29.6-8.29-52.38,8.01-77.53,17.62-40.41,15.44-81.81,28.01-121.83,44.46-31.15,12.81-62,27.55-90.87,45.38-27.6,17.04-40.66,17.14-69.59,1.45-26.71-14.48-56.24-22.94-89.27-35.92,2.96,13.13,4.5,19.99,5.93,26.36-12.7,1.87-24.87,3.66-37.04,5.45-.11,1.76-.22,3.52-.32,5.28,13.15,4.58,26.31,9.15,36.71,12.77-6.17,38.38-11.13,76.26-18.55,113.57-9.28,46.71-20.45,54.22-64.21,48.13-31.48-4.38-43.75,26.3-64.63,41.19-3.14,2.24-4.57,7.27-3.4,5.31-20.17,4.12-35.45,6.3-50.24,10.47-26.12,7.36-50.95,11.77-73.04-11.78-12.58-13.42-27.03-14.17-44.14-6.1-12.16,5.73-27.11,6.73-40.7,6.26-14.17-.49-28.44-4.33-42.26-8.35-36.42-10.59-68.26-9.66-96.13,24.87-15.13,18.74-38.07,19.84-63.19,15.33-24.59-4.42-51.27,2.84-76.72,7.11-5.93,1-14.02,9.92-15.22,16.45-3.37,18.36-15.1,21.87-28.97,24.99-38.5,8.66-38.45,8.91-25.53,43.21-24.78,16.27-49.02,32.18-75.15,49.33-10.82-29.59-55.96-35.23-43.33-82.24-33.32-5.83-64.35-23.68-95.6,4.62-5.64,5.11-17.21,2.65-32.11,4.39-12.66,42.72-27.31,92.2-42.37,143.04-15.88-8.77-30.02-20.46-45.75-24.07-13.21-3.03-30.49-.65-41.98,6.62-13.96,8.84-10.42,25.44-4.43,41.5,2.87,7.7-2.55,19.43-5.29,28.98-3.26,11.36-7.67,22.35-11.58,33.49,2.61,1.88,5.22,3.76,7.84,5.63,7.89-4.05,16.09-7.52,23.6-12.27,13.15-8.31,27.31-7.91,31.37,7.45,2.26,8.54-8.7,21.32-14.24,31.86-.91,1.73-4.58,2.24-7.05,2.49-22.17,2.26-32.16,11.87-13.37,41.32-14.41-3.07-22.83-4.01-30.74-6.7-54.72-18.55-107.29-12.93-157.23,16.93-11.64,6.96-21.17,17.91-31.92,26.68-18.58,15.16-30.3,33.66-28.41,60.21,.48,6.69-2.11,13.63-3.17,19.81-17.41-11.44-32.08-25.32-49.13-31.27-24.93-8.7-33.75,1.14-33.1,29.34,.12,5.22,.72,11.33-1.43,15.53-4.44,8.69-65.83,19.45-74.06,14.18-19.61-12.55-39.36-24.86-57.99-36.6-1.25-14.71-2.45-28.78-3.64-42.86-3.52-1.82-7.05-3.65-10.57-5.47-3.1,6.2-5.51,12.99-9.54,18.39-3.02,4.06-8.12,6.32-16.03,12.13,.98-19.29,1.69-33.16,2.44-47.72-43.21,9.92-58.96,32.82-45.7,57.47-15.21,11.29-30.45,21.69-44.77,33.39-37.56,30.68-78.24,52.64-125.45,56.56,3.62-19.54,9.62-37.87,9.5-56.15-.08-12.86-5.89-28.04-13.74-37.98-16-20.27-14.31-26.61,9.34-37.98,14.72-7.08,29.94-17.76,39.53-31.26,14.37-20.22,7.67-37.97-15.35-45.34-12.52-4.01-26.89-4.97-39.84-2.96-19.19,2.98-24.2-6.56-24.78-23.99-.27-8.13-1.31-16.25-2.28-24.34-1.79-14.82-9.74-18.77-21.37-11.99-20.67,12.07-23-1.13-22.54-18.22,.17-6.3,1.1-12.69,2.51-18.81,6.39-27.64,3.65-53.46-9.28-78.89-13.36-26.27-24.58-53.79-36.76-80.75-12.93-28.63-16.96-56.54,2.23-84.69,5.13-7.53,7.68-18.27,8.44-27.81,1.36-16.97-2.92-29.67-23.3-22.78-4.01,1.35-12.41,.51-12.86-1.17-1.43-5.32-1.99-12.83,.55-17.15,12.13-20.62,11.03-38.53-4.78-56.64-15.7-17.97-31.36-11.39-48.57-3.98-7.12,3.07-16.13,3.35-23.87,2.06-25.03-4.16-30.31,.86-27.94,28.77,.63,7.4,.66,14.85,.97,22.28-2.37,.12-4.75,.24-7.12,.36-.74-9.11,1-19.74-2.83-26.96-5.08-9.58-14.5-16.5-22.05-24.57-4.55,9-9.81,17.68-13.43,27.1-3.47,9.03-5.24,18.82-8.64,31.57-30.67-30.56-30.51-30.4-8.1-55.72,3.7-4.18,8.75-12.65,7.26-15.29-2.88-5.13-9.98-10.48-15.3-10.44-9.73,.08-20.65,1.73-28.9,6.81-17.4,10.73-22.86,6.08-21.87-14.32,.31-6.46-2.47-13.09-5.38-27.1-15.39,26.76-32.99,48.15-55.19,32.63-38.07-26.6-71.1,1.37-97.79,1.4-15.56,19.43-26.58,33.2-35.36,44.17-13.59-13.12-22.75-21.97-31.92-30.83-5.57,8.12-11.14,16.25-19.26,28.09-25.83-2.33-44.43,7.23-51.49,30.67-30.68-8.19-47-.46-53.67,37.59-10.24,58.45-44.72,93.58-86.49,125.76-12.96,9.98-24.04,26.2-30.32,42.15-17.97,45.66-50.54,72.62-87.98,99.29-31.58,22.49-76.02,32.11-88.85,79.38-5.15,18.95-8.26,38.55-11.74,55.2-8.92,7.76-24.69,18.79-23.67,21.06,5.62,12.48,14.85,23.32,23.94,33.61,3.07,3.48,9.48,5.51,14.13,5.09,27.84-2.47,35.12,18.12,42.31,44.51-11.89,3.89-23.79,7.01-35.13,11.69-15.5,6.4-32.16,11.57-45.43,21.68-17.86,13.61-32.7,22.58-50.3,.59-3.13-3.92-10.93-3.51-18.54-5.66,2.25-18.82,5.35-37.4,6.5-56.12,1.72-28.24-6.08-34.5-31.18-27.13-2.39,.7-4.92,1.19-7.39,1.21-17.78,.1-35.56,.05-54.8,.05-8.61-30.67-15.81-35.03-47.68-24.74-4.93-5.85-9.02-15.13-15.23-17.27-22.68-7.79-20.41-26.92-17.99-44.35,3.25-23.49,3.18-41.66-21.5-53.4-16.47-7.83-21.66-51.32-11.99-69.74,17.4-33.13,16.35-38.54-11.98-60.87-7.39-5.83-14.88-11.51-22.33-17.25,2.2-.99,4.41-1.98,6.61-2.98-3.31-14.33-8.71-28.55-9.39-43.03-.78-16.41,2.04-33.17,4.6-49.54,.92-5.85,7.85-10.83,8.23-16.51,.89-13.38,3.81-30.4-2.37-39.32-4.77-6.9-23.43-8.01-33.59-4.31-36.37,13.24-48.71,5.76-51.44-37.28-1.53-24.14-8.93-42.18-32.94-48.01-4.87-1.19-12.02-2.61-13.68-6.26-12.57-27.59-32.07-18.66-57.52-8.76,1.77-22.99,1.9-42.1,5.04-60.61,3.32-19.54,9.63-38.48,14.43-57.74,3.29-13.24,8.12-26.31-10.3-33.22-3.58-1.34-3.86-15.17-4.34-23.33-1.26-21.13-1.76-42.32-2.64-63.48-.26-6.24-2.27-12.91-.86-18.64,8.55-34.92,23.68-69.36,25.07-104.48,1.13-28.44-13.61-57.76-22.03-86.44-4.18-14.25-9.12-28.4-15.24-41.78-7.91-17.29-17.35-33.77-29.18-56.44,9.04-58.92-2.42-74.22-68.07-76.26,5.49-9.52,11.04-17.02,14.44-25.51,6.46-16.14,10.72-33.35,17.75-49.16,5.72-12.88,11.93-27.55,21.95-35.64,11.66-9.41,27.6-12.86,41.89-18.28,37.36-14.17,69.56-34.08,92.05-72.03,12.84-21.67,34.68-36.93,50.66-56.76,9.03-11.21,14.75-25.63,21.29-38.99,7.09-14.49,14.35-29.04,19.82-44.27,8.59-23.92,17.46-48.01,22.91-72.86,3.75-17.11-9.33-22.51-22.53-19.59-15.52,3.43-20.8-5.53-21.73-18.46-1.95-26.83-.21-52.56,22.11-71.5,18.08-15.35,27.4-34.08,15.29-59.6-2.22-4.67,.02-13.86,3.06-19.01,21.17-35.79,43.09-71.07,64.78-106.51,11.1-18.14,25.04-35.03,32.45-54.77,5.69-15.16,7.34-35.38,2.69-50.46-2.63-8.52-22.75-17.41-33.01-15.25-23.61,4.97-39.35-7.86-54.26-21.32-5.63-5.08-5.68-28.53-5.19-28.64,39.7-9.46,51.32-55.72,84.51-73.77,22.44-12.2,42.43-29.52,64.13-43.44,5.29-3.39,12.97-3,19.6-3.32,34.54-1.66,40.81-7.37,46.49-43.94,16.39,0,32.95,.82,49.4-.2,23.38-1.44,43.98-18.86,38.62-40.53-11.8-47.76,19.02-71.63,42.18-98.24,22.88-26.28,18.42-59.24,26.72-88.87,1.45-5.18-8.07-13.91-13.35-22.31,16.53-19.24,39.09-18.86,57.9-12.07,18.22,6.58,33.32,23.15,50.67,35.98-10.95,33.63,25.06,74.81,76.84,85.68,19.18-31.81,37.74-62.61,60.52-100.41,14.9,42.33,41,56.08,74.11,49.13,17.7-3.71,34.32-13.99,51.07-22.15,14.53-7.08,27.95-17.31,42.93-22.67,24.95-8.93,42.5,4.61,41.6,32.42-.71,21.67,6.76,34.58,25.34,41.2,19.76,7.05,37.78,7.89,52.7-11.89,17.75-23.52,31.93-52.29,65.94-53.88,2.79-.13,7.62-13.24,7.01-19.84-1.07-11.52-5.63-22.67-8.81-34.24,13.4-10.59,26.66-21.06,40.37-31.89,49.83,18.94,66.25,42.99,45.74,72.34,11.51-1.06,21.35-2.59,31.2-2.71,12.53-.16,27.15-3.48,37.21,2.14,25.47,14.24,49.95,19.57,77.25,7.92,4.59-1.96,13.44-1,16.3,2.46,16.81,20.33,30.52,11.51,44.37-3.49,11.29-12.22,21.85-12.02,35.5-1.78,39.87,29.91,49.89,28.35,81.36-12.08,13.13-16.87,29.02-16.51,45.99-13.45,13.3,2.4,18.82-2.83,27.6-14.93,14.34-19.77,35.85-33.57,54.53-49.62,3.2-2.75,9.54-3.21,10.75-6.37,11.2-29.21,28.58-45.23,60.17-39.29,3.59,.68,11.26-12.12,14.01-19.91,11.65-33.01,31.12-41.63,59.95-23.35,16.81,10.66,31.56,24.15,53.62,15.42,4.1-1.62,11.58,8.51,18.12,11.73,11.82,5.83,23.76,12.29,36.31,15.25,12.93,3.05,20.31-2.25,23.94-19.35,3.96-18.62,13.22-37.43,24.52-52.34,13.05-17.21,26.62-13.29,37.45,6.45,10.4,18.95,26,21,40.66,5.27,2.39-2.56,4.14-7.21,6.82-7.84,36.4-8.61,25.82-36.91,20.2-60.23-6.75-28-13.33-57.83-27.87-81.19-8.7-13.98-31.89-20.03-49.67-24.16-13.44-3.12-22.81-2.48-24.87-21.51-2.04-18.77-16.93-23.06-30.71-14.16-18.26,11.79-27.48,7.15-33.64-13.52-6.98-23.4-22.16-26.78-42.25-19.03-10.19,3.93-21.31,5.1-31.8,7.47,14.2-20.32,29.06-36.51,38.24-55.82,17.99-37.82,51.23-54.75,80.87-77.69,13.24-10.25,24.71-27.47,30.18-44.12,13.55-41.19,12.93-42.46,53.75-41.85,4.07,.06,9.07-.58,12.1-3.07,16.98-13.94,29.74-4.72,41.56,8.3,11,12.11,22.65,12.82,33.11,1.16,13.04-14.53,24.54-30.67,36.7-46.11,1.22,2.83,2.44,5.65,3.65,8.48,12.15-2.82,26.52-2.19,35.98-9.22,16.96-12.6,15.43-42.39-1.25-73.14,12.1-1.76,23.58-2.8,34.81-5.2,23.26-4.97,29.84-16.83,23.53-40.79-6.39-24.25,.19-36.47,22.27-43.85,8.35-2.79,15.94-8.13,24.02-11.96,19.93-9.44,32.21-21.64,26.33-49.08-1.52-7.08,11.85-20.62,20.92-27.05,27.47-19.48,53.57-37.12,59.09-77.94,3.59-26.52,28.01-35.98,50.87-42.17,10.79-2.92,21.4-6.62,32.1-9.97-4.89-12.83-8.95-26.14-15-38.3-3.45-6.94-10.14-12.01-15.34-17.89,25.49-29.08,50.97-57.46,75.67-86.6,14.2-16.76,24.68-38.42,41.23-51.34,23.95-18.69,51.04-33.83,78.64-45.29,8.1-3.37,24.61,8.49,33.49,17.62,10.73,11.03,16.25,27.73,26.29,39.81,7.45,8.97,17.94,15.63,28.08,21.23,12.71,7.02,26.38,12.06,39.77,17.59,3.78,1.56,8.03,1.78,12.05,2.7,12.2,2.79,25.9,2.72,36.33,8.96,36.12,21.61,90.89,5.96,112.27-32.08,12.2-21.72,27.66-41.31,42.32-62.85,20.68,16.52,38.68,33.58,59.06,46.16,11.54,7.12,19.42,12.09,18,27.8-1.45,16.07,5.56,23.76,21.41,27.08,11.43,2.39,22.75,11.11,31.82,19.8,31.24,29.95,70.31,31.79,98.85-1.45,19.16-22.32,38.97-28.21,65.28-22.43,9.95,2.19,23.4,1.82,31.19-3.85,15.48-11.28,27.31-26.33,47.91-8.74,4.04,3.45,16.73-7.17,25.39-7.07,12.39,.14,26.3,1.13,36.74,7.29,13.69,8.07,24.63,21.53,41.48,37.03,5.88,35.54,27.02,44.02,62.01,17.51,13.15-9.96,24.81-18.57,41.53-1.31,7.59,7.83,25.94,6.54,38.89,4.82,30.08-3.99,59.69-12.6,89.81-15.64,15.54-1.57,33.33,1.18,47.34,8.29,26.3,13.36,32.72,10.93,47.38-17.33,4.53-8.73,20.71-13.35,31.94-14.24,9.01-.72,22.87,4.13,27.21,11.52,21.35,36.33,39.57,74.77,60.41,111.47,6.29,11.07,17.48,18.91,26.38,28.28,18.15,19.09,40.12,35.56,53.44,57.98,17.7,29.79,36.01,56.86,65.47,73.56,12.46,7.06,20.14,15.91,14.45,32.65-1.94,5.72-2.75,13.14-1.11,18.8,13.31,46.1-15.54,70.52-38.79,101.7-17.45,23.4-25.19,57.2-30.88,87.75-2.35,12.61,12.03,28.79,18.68,43.41,3.33,7.33,11.03,18.22,8.83,21.69-24.22,38.25,4.58,87.27-24.83,125.52-25.38,33-17.01,74.01-10.79,112.72,.52,3.22,2.86,7.06,5.42,8.8,43.88,29.87,72.87,74.59,100.41,119.89,9.1,14.97,12.22,35.26,14.56,53.63,3.38,26.45,20.79,48.91,45.6,54.69,7.81,1.82,16.76,4.09,22.41,9.51,21.3,20.44,40.91,42.92,62.19,63.39,18.52,17.81,25.44,54.92,7.65,72.47-20.93,20.65-18.41,38.13-6.99,52.37-11.36,40.74-22.12,76.43-30.73,112.7-1.67,7.04,2.81,18.98,8.19,24.17,16.39,15.82,11.73,29.31,.11,44.59-27.48,36.14-25.87,45.79,6.53,78.15,6.17,6.17,7.43,18.83,9.42,28.86,2.88,14.52,5.18,29.29,6.26,44.08,2.29,31.37,6.97,60.77,36.64,77.3,2.75,1.53,3.81,9.87,3.15,14.65-4.26,31.16,6,48.76,34.13,48.55,19.6-.15,23.29,9.75,18.73,24.41-9.2,29.61-19.36,59.2-32.44,87-9.59,20.4-20.31,37.26-2.91,59.32,3.28,4.15-1.63,19.85-6.75,26.85-17.53,23.97-18.85,37.59,2.31,58.7,18.15,18.11,26.19,39.74,27.26,65.03,.93,22.08,10.99,35.27,30.14,41.69,16.76,5.61,33.38,11.67,51.52,18.04,4.95,21.38,9.64,44.73,16.13,67.49,1.7,5.98,8.18,12.04,13.84,14.79,33.61,16.32,55.3,44.39,58.97,82.64,3.07,31.94,23.76,62.54,1.02,98.47-12.16,19.22-8.5,50.03-11.94,75.33,30.12,7.95,42.24,26.73,25.9,47.92-28.96,37.57-20.54,80.7-25.34,122.03-2.91,25.06-4.38,50.31-6.94,80.63-17.55-9.24-32.46-16.41-46.75-24.81-14.51-8.53-28.42-18.27-43.97-28.38-3.57,25.15,9.37,36.82,24.35,48.5,13.02,10.16,35.2,12.13,32.01,39.29-.46,3.93,11.04,9.49,19.18,16.05-6.91,12.05-14.2,24.77-21.04,36.72-36.39-13.97-56.53-59.54-105.45-58.26,8.25,17,13.17,27.14,19.49,40.14-9.05,5.18-17.23,12.63-26.42,14.6-28.77,6.16-44.11,25.9-49.88,54.7-7.87,39.31-22.54,78.41-.66,119.04,3.6,6.69-3.69,24.94-10.8,32.69-26.02,28.37-58.23,45.58-95.01,52.69-9.19-51.33-18-60.15-67.75-55.36-22.23,2.14-37.58-6.8-54.95-18.05-10-6.47-25.24-10.45-36.06-7.32-33.88,9.8-49.76,.52-54.75-37.36-.71-5.37,.81-11.38-.87-16.22-1.85-5.3-5.4-11.48-9.76-13.65-2.85-1.42-11.4,2.59-12.41,5.92-10.63,35.05-33.54,29.42-57.53,21.23l-1.4-1.81Z"/><path class="g" d="M2102.22,3275.78v6.3c-.9,0-1.8,.1-2.7,.1,0,.2-.1,.4-.1,.5,.6,4.6,1.2,9.2,1.8,13.9,.3,2.5,.7,5,1,7.5,.1,.9-.2,2-.4,2.9-1.1,3.5-4.5,6-8.5,5.9-3.5-.1-6.8-2.5-7.9-6-.4-1.3-.4-2.5-.3-3.8,.4-3,.8-6,1.2-9,.3-2.4,.6-4.9,.9-7.3,.2-1.2,.3-2.5,.5-3.7,0-.2,0-.5,.1-.8h-2.7v-6.3c-14.8-2.4-26.9-9.4-36.5-20.9-1.8,1-3.6,2-5.4,3.1-.5-.8-.9-1.5-1.4-2.3-.2,.2-.4,.3-.6,.4-5.4,4.1-10.8,8.2-16.3,12.3-2.5,1.9-5.3,2.3-8.2,1.3-3.1-1-5.4-4.1-5.6-7.4-.2-2.6,.6-4.7,2.3-6.6,.9-1,2-1.6,3.3-2.1,6.3-2.6,12.6-5.2,18.8-7.8,.1,0,.2-.1,.4-.2-.4-.8-.9-1.6-1.3-2.4,1.8-1,3.6-2.1,5.4-3.1-5.2-14-5.2-27.8,0-41.8-1.8-1-3.5-2-5.4-3.1,.4-.8,.9-1.6,1.3-2.4-.3-.1-.6-.3-.9-.4-6.3-2.6-12.6-5.2-18.8-7.8-3.2-1.3-4.8-3.8-5.1-7.3-.3-3.9,2-7.4,5.5-8.6,2.9-1,5.7-.7,8.2,1.1,2.1,1.5,4.1,3.1,6.2,4.7,3.5,2.7,7,5.3,10.6,8,.1,.1,.2,.1,.3,.2,.5-.8,.9-1.5,1.4-2.3,1.8,1,3.6,2.1,5.4,3.1,9.5-11.5,21.6-18.5,36.4-20.9v-6.2h2.7c-.1-.8-.1-1.4-.2-2.1-.6-4.8-1.3-9.6-1.9-14.4-.3-2-.5-4-.6-5.9-.2-4,3.1-8,7.8-8.4,4.3-.3,8,2.3,9.1,6.5,.3,1.1,.3,2.3,.1,3.4-.4,3-.8,6-1.2,9-.4,3-.8,6-1.1,9-.1,.6-.2,1.3-.3,1.9,0,.2,0,.5-.1,.8h2.8v6.2c14.8,2.4,26.9,9.4,36.4,20.9,1.8-1,3.6-2,5.4-3.1,.5,.8,.9,1.6,1.4,2.4,1.2-.9,2.4-1.8,3.5-2.7,4.5-3.4,8.9-6.8,13.4-10.2,3.1-2.4,8-2.4,11.3,.7,1.4,1.3,2.2,3,2.5,4.9,.6,4.3-2,7.9-5.6,9.4-6.3,2.5-12.5,5.1-18.7,7.7-.2,.1-.3,.2-.5,.3,.4,.8,.9,1.5,1.4,2.4-1.8,1-3.5,2.1-5.4,3.1,5.2,13.9,5.2,27.9,0,41.8,1.8,1,3.5,2.1,5.4,3.1-.4,.8-.9,1.6-1.3,2.4,1,.4,2,.8,2.9,1.2,5.6,2.3,11.1,4.6,16.7,7,3.1,1.3,4.8,3.7,5.3,7,.6,4.5-2.7,8.9-7.5,9.4-2.3,.3-4.4-.3-6.2-1.7-5.1-3.9-10.2-7.8-15.3-11.7-.5-.4-1-.8-1.6-1.2-.5,.8-.9,1.5-1.4,2.4-1.8-1-3.6-2-5.4-3.1-4.6,5.6-9.9,10.2-16.1,13.8-6.7,3.5-13.4,5.9-20.6,7Zm-4.8-98.4v31.7c.8,.4,1.5,.8,2.2,1.3,.5,.3,.8,.3,1.4,0,8.8-5.1,17.6-10.1,26.4-15.2,.1-.1,.3-.2,.5-.4-3.9-5.3-8.6-9.5-14.3-12.6-5.1-2.6-10.4-4.3-16.2-4.8Zm30.5,65.9c-9.2-5.3-18.4-10.6-27.5-15.8-1,.6-2,1.2-2.9,1.7v31.7c5.7-.5,11-2.1,16-4.8,5.7-3.2,10.5-7.4,14.4-12.8Zm3.8-41.7c-.4,.2-.7,.4-1.1,.6-7.2,4.1-14.3,8.2-21.5,12.4-1.4,.8-2.9,1.7-4.3,2.5-.4,.2-.7,.5-.6,1,.1,.7,.1,1.4,0,2.1,0,.4,0,.7,.5,.9s1,.6,1.5,.8c8.3,4.8,16.7,9.6,25,14.4,.2,.1,.4,.2,.6,.3,5.4-11.6,4.7-25.2-.1-35Zm-72.6-6.7c9.3,5.3,18.4,10.6,27.6,15.8,.7-.4,1.4-.9,2.1-1.2,.6-.3,.9-.6,.9-1.3v-30.9c-12.8,1.5-22.8,7.3-30.6,17.6Zm-3.7,6.7c-1.6,2.9-4.4,10.3-3.9,19.6,.3,5.4,1.5,10.5,3.8,15.4,9.2-5.3,18.4-10.6,27.5-15.8v-2.6c0-.6-.1-.8-.6-1.1-5.6-3.2-11.2-6.4-16.8-9.6-3.3-2-6.6-3.9-10-5.9Zm31.3,25.8c-9.2,5.3-18.3,10.5-27.6,15.8,3.9,5.4,8.7,9.7,14.6,12.8,5,2.6,10.3,4.3,15.9,4.7v-31.7c-.5-.3-1-.5-1.5-.8-.4-.1-.8-.4-1.4-.8Zm3.5-8.3c-.1,1.7,1.5,3.4,3.3,3.4s3.3-1.6,3.4-3.3c0-1.8-1.5-3.2-3.3-3.3-1.8-.2-3.5,1.5-3.4,3.2Z"/><rect class="d" x="2961.62" y="3956.78" width="879.1" height="220.2"/><text class="k" transform="translate(2961.6 4005.58)"><tspan x="0" y="0">広島県</tspan><tspan class="l" x="186" y="0">、</tspan><tspan x="217" y="0">　東広島</tspan></text><text class="k" transform="translate(2961.6 4160.12)"><tspan x="0" y="0">SHINTOKU KAIUN C</tspan><tspan class="f" x="621.11" y="0">O</tspan><tspan class="i" x="667.42" y="0">., </tspan><tspan class="h" x="715.16" y="0">L</tspan><tspan x="743.31" y="0">T</tspan><tspan class="e" x="785.47" y="0">D</tspan><tspan x="830.36" y="0">.</tspan></text><path class="g" d="M2800.72,4123.58v6.3c-.9,0-1.8,.1-2.7,.1,0,.2-.1,.4-.1,.5,.6,4.6,1.2,9.2,1.8,13.9,.3,2.5,.7,5,1,7.5,.1,.9-.2,2-.4,2.9-1.1,3.5-4.5,6-8.5,5.9-3.5-.1-6.8-2.5-7.9-6-.4-1.3-.4-2.5-.3-3.8,.4-3,.8-6,1.2-9,.3-2.4,.6-4.9,.9-7.3,.2-1.2,.3-2.5,.5-3.7,0-.2,0-.5,.1-.8h-2.7v-6.3c-14.8-2.4-26.9-9.4-36.5-20.9-1.8,1-3.6,2-5.4,3.1-.5-.8-.9-1.5-1.4-2.3-.2,.2-.4,.3-.6,.4-5.4,4.1-10.8,8.2-16.3,12.3-2.5,1.9-5.3,2.3-8.2,1.3-3.1-1-5.4-4.1-5.6-7.4-.2-2.6,.6-4.7,2.3-6.6,.9-1,2-1.6,3.3-2.1,6.3-2.6,12.6-5.2,18.8-7.8,.1,0,.2-.1,.4-.2-.4-.8-.9-1.6-1.3-2.4,1.8-1,3.6-2.1,5.4-3.1-5.2-14-5.2-27.9,0-41.8-1.8-1-3.5-2-5.4-3.1,.4-.8,.9-1.6,1.3-2.4-.3-.1-.6-.3-.9-.4-6.3-2.6-12.6-5.2-18.8-7.8-3.2-1.3-4.8-3.8-5.1-7.3-.3-3.9,2-7.4,5.5-8.6,2.9-1,5.7-.7,8.2,1.1,2.1,1.5,4.1,3.1,6.2,4.7,3.5,2.7,7,5.3,10.6,8,.1,.1,.2,.1,.3,.2,.5-.8,.9-1.5,1.4-2.3,1.8,1,3.6,2.1,5.4,3.1,9.5-11.5,21.6-18.5,36.4-20.9v-6.2h2.7c-.1-.8-.1-1.4-.2-2.1-.6-4.8-1.3-9.6-1.9-14.4-.3-2-.5-4-.6-5.9-.2-4,3.1-8,7.8-8.4,4.3-.3,8,2.3,9.1,6.5,.3,1.1,.3,2.3,.1,3.4-.4,3-.8,6-1.2,9s-.8,6-1.1,9c-.1,.6-.2,1.3-.3,1.9,0,.2,0,.5-.1,.8h2.8v6.2c14.8,2.4,26.9,9.4,36.4,20.9,1.8-1,3.6-2,5.4-3.1,.5,.8,.9,1.6,1.4,2.4,1.2-.9,2.4-1.8,3.5-2.7,4.5-3.4,8.9-6.8,13.4-10.2,3.1-2.4,8-2.4,11.3,.7,1.4,1.3,2.2,3,2.5,4.9,.6,4.3-2,7.9-5.6,9.4-6.3,2.5-12.5,5.1-18.7,7.7-.2,.1-.3,.2-.5,.3,.4,.8,.9,1.5,1.4,2.4-1.8,1-3.5,2.1-5.4,3.1,5.2,13.9,5.2,27.9,0,41.8,1.8,1,3.5,2.1,5.4,3.1-.4,.8-.9,1.6-1.3,2.4,1,.4,1.9,.8,2.9,1.2,5.6,2.3,11.1,4.6,16.7,7,3.1,1.3,4.8,3.7,5.3,7,.6,4.5-2.7,8.9-7.5,9.4-2.3,.3-4.4-.3-6.2-1.7-5.1-3.9-10.2-7.8-15.3-11.7-.5-.4-1-.8-1.6-1.2-.5,.8-.9,1.5-1.4,2.4-1.8-1-3.6-2-5.4-3.1-4.6,5.6-9.9,10.2-16.1,13.8-6.6,3.5-13.3,5.8-20.6,7Zm-4.7-98.4v31.7c.8,.4,1.5,.8,2.2,1.3,.5,.3,.8,.3,1.4,0,8.8-5.1,17.6-10.1,26.4-15.2,.1-.1,.3-.2,.5-.4-3.9-5.3-8.6-9.5-14.3-12.6-5.1-2.7-10.5-4.3-16.2-4.8Zm30.4,65.9c-9.2-5.3-18.4-10.6-27.5-15.8-1,.6-2,1.2-2.9,1.7v31.7c5.7-.5,11-2.1,16-4.8,5.8-3.2,10.5-7.5,14.4-12.8Zm3.8-41.7c-.4,.2-.7,.4-1.1,.6-7.2,4.1-14.3,8.2-21.5,12.4-1.4,.8-2.9,1.7-4.3,2.5-.4,.2-.7,.5-.6,1,.1,.7,.1,1.4,0,2.1,0,.4,0,.7,.5,.9,.5,.2,1,.6,1.5,.8,8.3,4.8,16.7,9.6,25,14.4,.2,.1,.4,.2,.6,.3,5.5-11.7,4.8-25.2-.1-35Zm-72.5-6.7c9.3,5.3,18.4,10.6,27.6,15.8,.7-.4,1.4-.9,2.1-1.2,.6-.3,.9-.6,.9-1.3v-30.9c-12.8,1.5-22.9,7.3-30.6,17.6Zm-3.7,6.7c-1.6,2.9-4.4,10.3-3.9,19.6,.3,5.4,1.5,10.5,3.8,15.4,9.2-5.3,18.4-10.6,27.5-15.8v-2.6c0-.6-.1-.8-.6-1.1-5.6-3.2-11.2-6.4-16.8-9.6-3.3-2-6.6-3.9-10-5.9Zm31.3,25.8c-9.2,5.3-18.3,10.5-27.6,15.8,3.9,5.4,8.7,9.7,14.6,12.8,5,2.6,10.3,4.3,15.9,4.7v-31.7c-.5-.3-1-.5-1.5-.8-.4-.1-.9-.5-1.4-.8Zm3.5-8.3c-.1,1.7,1.5,3.4,3.3,3.4s3.3-1.6,3.4-3.3c0-1.8-1.5-3.2-3.3-3.3-1.8-.2-3.5,1.4-3.4,3.2Z"/></g></g></svg>