<?xml version="1.0" encoding="UTF-8"?><svg id="_レイヤー_2" xmlns="http://www.w3.org/2000/svg" viewBox="0 0 500.02 500"><defs><style>.cls-1{fill:#dd020c;}.cls-2{fill:#231815;}</style></defs><g id="_レイヤー_1-2"><g id="c"><path class="cls-2" d="M.02,498.06c2.54-24.22,4.66-48.48,7.7-72.65,6.07-48.32,12.25-96.63,19.12-144.86,7.73-54.28,16.31-108.47,24.42-162.71,3.95-26.45,8.06-52.9,11.13-79.44,.56-4.83-4.74-10-5.27-15.19-.76-7.45-2.21-20.18,1.23-21.54,7.96-3.17,18.68-.88,28.28-.8-.71,8.03-.05,16.42-2.5,24-2.6,8.05-8.16,15.34-13.42,24.72,7.79,0,9.6,.51,10.5-.07C152.09,3.6,206.54,11.33,279.05,55.26c34.91,21.16,70.49,42.11,108.26,58.67,30.17,13.22,60.17,4.93,84.91-16.28,6.73-5.77,15.38-9.78,23.15-14.59,1.55,1.12,3.1,2.23,4.65,3.35-6.31,21.43-13.89,42.65-18.66,64.35-8.11,36.88-16.44,73.88-20.69,111.19-2.03,17.81,4.8,36.49,8.19,54.69,1.83,9.79-.17,15.25-11.34,21.17-63.73,33.78-125.91,21.58-188.41-2.14-45.64-17.32-91.73-34.75-142.85-29.21-31.2,3.38-61.35,11.24-84.25,32.93-20.34,19.27-12.18,44.14-16.56,66.35-5.71,28.97-7.39,58.56-11.28,87.83-.31,2.34-4.33,4.3-6.63,6.43-2.51-.64-5.03-1.29-7.54-1.93H.02Zm53.69-187.47c2.22,1.17,4.44,2.34,6.66,3.52,12.11-4.07,23.88-9.76,36.4-11.87,21.78-3.67,45.45-10.57,65.79-6.37,42.51,8.77,83.93,22.59,124.73,36.77,39.86,13.86,80.65,20.16,122.06,12.82,16.91-3,39.52-13.43,45.06-25.66,6.37-14.07-3.28-33.88-6.11-52.02-33.73,4.35-64.68,14.52-94.65-.1-1.89-20.59,6.42-27.94,30.78-26.26,21.65,1.49,43.89-3.9,64.92-6.16,2.67-11.28,4.7-19.86,6.94-29.35h-90.18c-5.43-25.64,9.92-28.71,33.26-28.84,21.93-.12,43.82-5.59,66.36-8.8,4.74-19.1,9.03-36.34,14.94-60.14-65.67,36.3-115.16,15.12-163.85-16.69-27.97-18.28-57.58-34.83-87.74-50.13-42.37-21.49-109.65-13.04-142.56,16.72-4.44,4.02-8.51,11.1-7.89,16.31,2.33,19.63,6.67,39.07,10.38,59.24,35.75-6.51,71.27-12.97,107.81-19.63-2.32,34.41-2.39,33.71-32.77,36.36-19.89,1.74-39.51,5.91-59.27,8.93-16.01,2.45-18.81,12.59-18.25,24.66,.73,15.65,13.26,9.73,22.16,9.1,22.76-1.63,45.48-3.84,68.79-5.86-1.78,32.43-4.04,34.45-34.94,34.91-3.89,.06-7.78,.05-11.67,.22-46.48,2.09-47.88,3.27-60.61,42.68-4.96,15.35-11.01,30.43-16.56,45.63h0Zm-14.6-13.97c29.37-24.9,54.96-160.74,26.65-192.51-8.96,64.76-17.53,126.64-26.65,192.51Z"/><path class="cls-1" d="M331.51,173.61h-29.38c3.85-20.42-8.66-30.62-28.45-31.7-7.57-.42-17.92,6.87-22.72,13.21-2.2,2.91,4.3,13.66,9.76,17.92,9.19,7.17,20.63,12.09,31.25,17.79,21.2,11.38,31.33,29.08,27.22,47.91-4.77,21.83-22.8,38.57-43.7,40.56-21.36,2.03-52.15-11.96-59.98-28.98-4.75-10.34-6.25-21.86-10.09-36.07,12.7,1.58,20.71,2.58,28.68,3.57,1.53,25.36,12.82,36.73,36.2,33.64,7.77-1.03,16.74-7.24,20.81-13.36,2.31-3.48-2.37-13.35-7.11-17.23-8.95-7.31-19.96-12.79-30.6-18.29-25.59-13.23-33.33-30.61-25.06-57.84,5.07-16.69,24.86-29.7,45.12-29.66,26.63,.06,44.67,12.66,51.71,36.19,1.96,6.54,3.73,13.13,6.34,22.36v-.02Z"/><g><path class="cls-1" d="M456.29,205.91c2.37-12.72,6.49-25.3,9.44-37.64-20.4,3.32-45.9,8.48-65.86,8.59-23.57,.13-39.08,3.3-33.59,29.66l90.02-.61h0Z"/><path class="cls-1" d="M449.35,235.26c-20.37,2.47-43.7,6.9-64.57,5.44-24.6-1.73-33,5.83-31.09,27.01,29.16,14.49,61.99,4.77,94.62,.08-.08-11.13-.22-21.28,1.04-32.52h0Z"/><path class="cls-1" d="M108.69,193.01c-5.02,.37-13.6,1.3-18.2,.24,0,11.06-3.35,25.79-3.2,36.85,7.83-2.88,23.27-3.58,41.4-4.41,3.92-.18,7.85-.17,11.78-.23,31.2-.47,35.21-4.98,37.01-38.33-23.55,2.08-45.8,4.19-68.79,5.86v.02Z"/><path class="cls-1" d="M89.01,133.58c-.91,1.48,.91-1.48,0,0,3.7,9.67,3.19,22.01,3.76,31.11,2.71-2.15,6.32-3.78,11.34-4.56,19.95-3.11,39.77-7.4,59.86-9.18,30.68-2.73,30.76-2.01,33.1-37.4-36.63,6.79-72.23,13.39-108.06,20.03Z"/></g></g></g></svg>